<?xml version="1.0" encoding="utf-8"?>
<!-- Generator: Adobe Illustrator 16.0.4, SVG Export Plug-In . SVG Version: 6.00 Build 0)  -->
<!DOCTYPE svg PUBLIC "-//W3C//DTD SVG 1.1//EN" "http://www.w3.org/Graphics/SVG/1.1/DTD/svg11.dtd">
<svg version="1.1" xmlns="http://www.w3.org/2000/svg" xmlns:xlink="http://www.w3.org/1999/xlink" x="0px" y="0px" width="1100px"
	 height="1100px" viewBox="0 0 1100 1100" enable-background="new 0 0 1100 1100" xml:space="preserve">
<g id="Layer_2">
</g>
<g id="Layer_1">
</g>
<g id="Layer_4">
</g>
<g id="Layer_3">
	<g>
		<circle fill="#C1272D" cx="553.1" cy="557.2" r="393.1"/>
		<g>
			<g>
				<path fill="#521013" d="M1005.9,285.7c-11.8-77.6-37.6-138-57.6-135l-5.6,0.7c-1.3,0.2-2.5,0.7-3.7,1.4l-334.5,50.1l-0.5,0.1
					c-3.1-3.1-5.6-3.4-6.9-1.7c-0.6,0.8-2.1,2.7-4.1,5.3c0,0-10.6-5.3-27.7-9.9c-17.1-4.5-21,0.7-25.2,3.5
					c-4.2,2.8-8.7,10.8-7.7,23.7s2.1,27.7,2.1,27.7c0,0-45,7.1-45,7.1c-1.5-2.6-2.8-4-3.9-3.8c-6.5,1-4.3,50.7,4.8,111.1
					c6.1,40.3,13.8,75.2,20.2,93.6l3.5,8.6c1.8,3.6,3.4,5.5,4.7,5.3c1.2-0.2,2.1-2.1,2.7-5.4l74.5-11.1l4.5,3.7c0-0.2,0-0.4,0,0
					c0.3,12.9,0.4,35.1,1.4,42.4c1,7.3,12.6,24.1,31.1,9.1c18.5-15,27.3-24.1,29.3-26.6c0.5-0.6,0.6-1.5,0.6-2.6l43.8-7.2
					l272.6-44.3c2.1,0.9,3.7,1.3,5.7,1l6-0.7C1011,428.7,1017.7,363.3,1005.9,285.7z M561.7,247.4l-12.6,2c0,0-3.1-21.9-4.2-31.7
					c-1-9.8,9.4-9.8,10.8-9.4c1.4,0.3,28.7,9.4,28.7,9.4C574.2,231,561.7,247.4,561.7,247.4z M621.7,501.7c-2.1,1.3-4.8,1.6-6,1.7
					c-0.6-3.1-0.8-7.8-0.5-15c0.3-6.8,0.5-12.9,0.9-18.5c0,0,19.4,12.5,19.4,12.5l5.2,3.8C633.1,492.9,623.6,500.5,621.7,501.7z"/>
				<g>
					<circle fill="#FFFFFF" cx="457.7" cy="584.3" r="3.6"/>
					<path fill="#FFFFFF" d="M458.1,518.1c0,0-44.5,88.5-53.8,133.5c5.4,3.7,11.5,8.3,18.2,13.9c0,0,13.4-13.6,21.4-15.6
						c8-2.1,19.6-6.6,17.1-17.8c-2.4-11.2-16.1,3.5-15.7-5.9c0.3-9.4,5.6-11.9,13.6-11.5s7-6.6,2.4-10.8c-4.5-4.2,4.2-18.5,12.2-8.7
						c8,9.8,6.6,7.3,11.5,2.8c4.9-4.5,6.7,4.7,7.8,12.6c0.6,5.6,1.7,11.6,3.4,17.8c9.1,32.8,37,94.3,36.3,134.2
						c-0.7,39.8-15.4,72.7-46.8,92.9c-12.8,8.2-103.6,4.9-109.7,0.7c-24.8-17.1-52.1-54.9-41.2-117.7c5.9-34.3,23.6-72,32.3-103.4
						c0,0,5-0.3,15.7,4.4c0,0,35.6-127.3,135.1-184.2c-0.1,5.7-0.5,9.7-1.3,11.6C494.7,477.9,474.3,498.4,458.1,518.1"/>
				</g>
			</g>
			<g>
				<g>
					<circle fill="none" stroke="#C1272D" stroke-width="3" stroke-miterlimit="10" cx="672.8" cy="395.8" r="4.2"/>
					<circle fill="none" stroke="#C1272D" stroke-width="3" stroke-miterlimit="10" cx="701.5" cy="388.1" r="4.2"/>
					
						<ellipse transform="matrix(0.991 -0.1336 0.1336 0.991 -57.0601 97.7747)" fill="none" stroke="#C1272D" stroke-width="3" stroke-miterlimit="10" cx="700.1" cy="474.1" rx="4.2" ry="2.9"/>
					
						<ellipse transform="matrix(0.991 -0.1336 0.1336 0.991 -57.8585 94.1602)" fill="none" stroke="#C1272D" stroke-width="3" stroke-miterlimit="10" cx="672.8" cy="478.3" rx="4.2" ry="2.9"/>
					<path fill="none" stroke="#C1272D" stroke-width="3" stroke-miterlimit="10" d="M482.3,264.2c0.4-1.9,1-2.9,1.7-3
						c5.1-0.8,16.3,44.9,25,102c8.7,57.1,11.6,104.1,6.4,104.9c-0.3,0-0.6,0-0.9-0.3"/>
					<path fill="none" stroke="#C1272D" stroke-width="3" stroke-miterlimit="10" d="M561.7,247.4c0.2-0.1,0.4-0.1,0.6-0.2
						c9.8-1.5,24.9,44.2,33.7,102c8.8,57.9,8,106.4-1.8,107.9"/>
					<path fill="none" stroke="#C1272D" stroke-width="3" stroke-miterlimit="10" d="M666.5,193.6c11.1-1.7,29.7,60.1,41.6,138
						c11.8,77.9,12.6,142.2,1.5,143.8"/>
					<path fill="none" stroke="#C1272D" stroke-width="3" stroke-miterlimit="10" d="M681.8,191.3c11.1-1.7,29.7,59.9,41.6,137.8
						c11.8,77.9,12.5,142.1,1.4,143.8"/>
					<path fill="none" stroke="#C1272D" stroke-width="3" stroke-miterlimit="10" d="M510.6,459.5c-6.4-18.4-14.1-53.3-20.2-93.6
						c-9.2-60.4-11.3-110.1-4.8-111.1c6.5-1,19.2,47.1,28.4,107.5c9.2,60.4,11.3,110.1,4.9,111.1c-1.3,0.2-2.9-1.7-4.7-5.3"/>
					<polyline fill="none" stroke="#C1272D" stroke-width="3" stroke-miterlimit="10" points="600.5,459.9 595.9,457 521.5,468.1 
											"/>
					<polyline fill="none" stroke="#C1272D" stroke-width="3" stroke-miterlimit="10" points="640.6,486.3 635.4,482.5 616.1,470 
											"/>
					<path fill="none" stroke="#C1272D" stroke-width="3" stroke-miterlimit="10" d="M649.9,416.3c1.4,12.9,2.2,23.6,2.3,30.9
						c0.1,11.4-0.7,19.6-1.9,25.7c-0.4,2.1-0.9,3.9-1.3,5.5"/>
					<path fill="none" stroke="#C1272D" stroke-width="3" stroke-miterlimit="10" d="M489.5,258.7l72.2-11.3
						c0,0,31.8-41.6,35.3-46.1c3.5-4.5,16,5.5,25.6,45.9c6.8,28.3,18.4,97.5,24.9,148.8"/>
					<path fill="none" stroke="#C1272D" stroke-width="3" stroke-miterlimit="10" d="M534.5,251.6c0,0-1.1-14.8-2.1-27.7
						s3.5-20.9,7.7-23.7c4.2-2.8,8-8.1,25.2-3.5c17.1,4.5,27.7,9.9,27.7,9.9"/>
					<path fill="none" stroke="#C1272D" stroke-width="3" stroke-miterlimit="10" d="M584.4,217.7c0,0-27.3-9.1-28.7-9.4
						c-1.4-0.3-11.9-0.3-10.8,9.4c1,9.8,4.2,31.7,4.2,31.7"/>
					<path fill="none" stroke="#C1272D" stroke-width="3" stroke-miterlimit="10" d="M705.5,466v-2.7c0,0-38.5,5.9-45.2,6.6
						s-7.5,2.9-12.3,8.4s-23.9,21.6-26.7,23.4c-2.1,1.3-6.5,1.6-7.7,1.7"/>
					<path fill="none" stroke="#C1272D" stroke-width="3" stroke-miterlimit="10" d="M620.8,508.7c0,0-6.6,4.5-5.6-20.3
						c1-24.8,0.7-40.5,16.4-55.9c15.7-15.4,30.7-25.5,30.7-25.5l47.2-13.6l-4.5-20.3l-46.8,14c0,0-33.9,28-43.7,38.8
						c-9.8,10.8-14.3,23.4-14,36.3c0.3,12.9,0.3,33.5,1.4,40.9c1,7.3,12.6,24.1,31.1,9.1c18.5-15,27.3-24.1,29.3-26.6
						c2.1-2.4-2.4-11.1,3.8-12.2c6.3-1.1,43.3-7.4,43.3-7.4l-2.8,9.8l-43.8,7.2"/>
					<line fill="none" stroke="#C1272D" stroke-width="3" stroke-miterlimit="10" x1="662.3" y1="391" x2="665.1" y2="405.6"/>
					<path fill="none" stroke="#C1272D" stroke-width="3" stroke-miterlimit="10" d="M604.4,202.9l334.5-50.1
						c1.2-0.7,2.4-1.2,3.7-1.4l5.6-0.7c20-3,45.8,57.4,57.6,135c11.8,77.6,5.1,143-14.9,146.1l-6.4,0.8"/>
					<path fill="none" stroke="#C1272D" stroke-width="3" stroke-miterlimit="10" d="M706.7,475.9l272.6-44.3
						c2.1,0.9,4.1,1.2,6.1,0.9c20-3,26.7-68.4,14.9-146.1c-11.8-77.6-37.6-138-57.6-135"/>
				</g>
				<path fill="none" stroke="#FFFFFF" stroke-width="3" stroke-miterlimit="10" d="M458.1,518.1c0,0-44.5,88.5-53.8,133.5"/>
				<path fill="none" stroke="#FFFFFF" stroke-width="3" stroke-miterlimit="10" d="M422.5,665.5c0,0,13.4-13.6,21.5-15.6
					c8-2.1,19.6-6.6,17.1-17.8c-2.4-11.2-16.1,3.5-15.7-5.9c0.3-9.4,5.6-11.9,13.6-11.5s7-6.6,2.4-10.8c-4.5-4.2,4.2-18.5,12.2-8.7
					c8,9.8,6.6,7.3,11.5,2.8c4.9-4.5,6.7,4.7,7.8,12.6"/>
				<circle fill="none" stroke="#FFFFFF" stroke-width="3" stroke-miterlimit="10" cx="457.7" cy="584.3" r="3.6"/>
				<path fill="none" stroke="#FFFFFF" stroke-width="3" stroke-miterlimit="10" d="M492.4,601.6c0,0,14.8-15.7,36.8-16.8
					c22-1,43,14.7,52.4,56.9s-9.1,80.4-24.8,104.1c-15.7,23.8-20.2,35.3-24.1,30.4"/>
				<path fill="none" stroke="#FFFFFF" stroke-width="3" stroke-miterlimit="10" d="M498.3,634.8c0,0,1.9,0.4,8.2-10.8
					s5.9-17.5,15.4-20.6c0,0,28-8.7,37,21c9.1,29.7,10.9,69.5-12.2,91.2c-11.2,10.5-19.1,9.3-18.5,12"/>
				<path fill="none" stroke="#FFFFFF" stroke-width="3" stroke-linejoin="round" stroke-miterlimit="10" d="M382.1,639.3
					c0,0,35.3-124.6,132.3-182.3l1-0.5h0.6"/>
				<path fill="none" stroke="#C1272D" stroke-width="3" stroke-miterlimit="10" d="M422.5,569.5c0,0,19.2-34.2,47.1-64.6
					c13.9-15.2,26.1-24.5,43.1-33.1"/>
				<path fill="none" stroke="#C1272D" stroke-width="3" stroke-miterlimit="10" d="M513.5,631.6c-9.8,3.2-9.3,15-9.3,15
					s1.5,10.1-11.9,29.1c-13.3,19-35.8,20.3-37.2,20.4c-60.8-62.8-87.9-61.2-87.9-61.2"/>
				<path fill="none" stroke="#FFFFFF" stroke-width="3" stroke-miterlimit="10" d="M496.4,568.1c0,0-9.1,27.3,0,60.1
					s37,94.3,36.3,134.2c-0.7,39.8-15.4,72.7-46.8,92.9c-12.8,8.2-103.6,4.9-109.7,0.7c-24.8-17.1-52.1-54.9-41.2-117.7
					c8-46.7,38-99.6,37.1-134.5c-0.8-34.9-13.4-58.7-36.4-66.4c-10.5-3.5,25.9-10.5,46.1,0C402,547.8,455.1,568.1,496.4,568.1z"/>
			</g>
		</g>
	</g>
</g>
</svg>
