<?xml version="1.0" encoding="utf-8"?>
<!-- Generator: Adobe Illustrator 16.0.4, SVG Export Plug-In . SVG Version: 6.00 Build 0)  -->
<!DOCTYPE svg PUBLIC "-//W3C//DTD SVG 1.1//EN" "http://www.w3.org/Graphics/SVG/1.1/DTD/svg11.dtd">
<svg version="1.1" xmlns="http://www.w3.org/2000/svg" xmlns:xlink="http://www.w3.org/1999/xlink" x="0px" y="0px" width="1100px"
	 height="1100px" viewBox="0 0 1100 1100" enable-background="new 0 0 1100 1100" xml:space="preserve">
<g id="Layer_2">
</g>
<g id="Layer_1">
</g>
<g id="Layer_4">
</g>
<g id="Layer_3">
	<g>
		<circle fill="#C1272D" cx="553.2" cy="551.6" r="393.1"/>
		<g>
			<path d="M614.9,402.5c-1.8,3.3,0.5,10.9,5.6,12.6s10.4-4,10.4-4l0.6-0.6c-2.3-3.4-5.8-7.6-9.7-8.7c-3.1-0.9-5.2-0.4-6.7,0.5
				L614.9,402.5z"/>
			<path d="M753.7,398.5c-2.8,18.7-16.3,9.7-16.3,9.7C738.4,402.8,741.9,392.2,753.7,398.5z"/>
			<path d="M663.1,470.6c0,0-0.3,6.6,4,8c4.3,1.3,15.3,7,11.6,11.6c-1.3,1-3.3-1.3-7.4-2.3C667.1,486.9,658.5,481.6,663.1,470.6z"/>
			<path d="M718.9,487.5c0,0-0.3-5.3,3.7-8.6s6-2.3,6-8.3c0.3,0,3.3,7.2,0,9.9C725.2,483.2,720.3,484.9,718.9,487.5z"/>
			<path fill="#FFFFFF" d="M722.2,328c0,0-6.3-3.5-14.4-6.7c-10.7-4.2-17.8-2.7-17.8-2.7s-5.3,0.2-5.2,0c-2.2-1.8-3.8,0.2-3.8,0.2
				c-5.1-1.7-13.2,2.3-13.2,2.3c-4.3-0.7-10,2.9-10,2.9c-2-0.2-4.1-0.1-6.3,0.4c-8.5,1.7-14.1,4.7-17.3,7.3c0,0-27.9-3.3-34.9-4.5
				c-7-1.2-28.9-8.5-38.9-8.5c-10,0-41.2,12.6-63.1,23.9c-21.9,11.3-34,20.8-70.4,23.7c-41.2,3.2-60.5-13.3-72.4-12.8
				s-25.2,6-36.5,11.5c0,0-13.3,9.4-23.9,14.3c-10.6,4.9-41.9,15.5-55.5,26.5s-23.6,28.5-23.6,44.6c0,16.2-1,81.6,0,97.9
				c1,16.3,15,69.1,17.9,80.7c3,11.6,12.3,36.9,12,56.5s-5.3,26.6-4.3,37.2c1,10.6,7,16.9,7.6,24.9c0.7,8,1.3,17.6-1.3,27.9
				c-2.7,10.3-9.6,32.6-10.3,38.9c-0.7,6.3-0.7,23.9,0,27.6c0.7,3.7,1.3,19.6,2.3,21.9c1,2.3,13.3,16.3,39.2,11.3
				c6-0.7,13.3-4,13.3-9.3c0-5.3-4-9.6-4-10.3c0-0.7,3.7-6.6,0.7-11.6c-3-5-8.3-11.6-9.3-14.3c-1-2.7-0.3-10.3-0.3-10.3
				s-6-10-6.3-33.9c-0.3-23.9,2-31.6,5.3-39.2c3.3-7.6,13-58.5,13.6-66.1c0.7-7.6,3-13.3,3-13.3s0.7-2,0.7-2
				c6.8,7.4,13.1,13.1,14.9,17c3,6.6,6.6,8,3.7,23.6s6.3,11.3,8.3,7c2-4.3,4-7.3,4-7.3s-0.3,8.4,0,11.3c0.3,3,3.3,3.4,5.6,0
				c0.3-0.4,22.6,49.1,26.9,70l10.6,54.5h-5.6c0,0,0.7,12.5,7.6,25.8c0.7,0,7.3-8.5,8.3-13.9c0.3,0,3,2.4,3.7,7.7
				c0.7,5.3,1.7,17.6,12.6,19.3c11,1.7,33.2,3.3,38.9,3c5.6-0.3,8.3-2,8.3-2l-1.7-4.6l14.6,1.6c0,0-6-10.6-8.6-14.3
				c-2.7-3.7-6-14-12.6-19.9c-6.6-6-14.3-7.6-17.6-9c-3.3-1.3-6.6-3.7-11-14s-4.3-18.6-5.3-23.3c-1-4.7-7.3-13.3-10-24.6
				c-2.7-11.3-2.7-46.5,5-55.5l0.6-0.7c11.6,1.9,25.4,3.7,36.3,3.7c25.6,0,59.8-2.6,59.8-2.6c7.3,13.3,13.1,26.1,15.7,35.5
				c6.2,22.6,16.9,45.8,18.2,55.8c1.3,10,2,27.9,6,36.5s9.9,16.7,8.6,37.3s-7.3,39.2-8.6,57.8s9.9,42.5,13.3,45.8
				c3.3,3.3,38.5,3.3,38.5,3.3l22.6-9.3c0,0,2.7-29.9,0-35.9c-2.7-6-14-10-15.3-12.6s-6-29.9-8.6-35.2c-2.7-5.3-3.3-10.6-2.7-23.9
				c0.7-13.3,8.6-25.9,7.3-35.2c-1.3-9.3-6.6-42.3-10-61c-1.3-7.3-2.1-15.5-2.6-23.3c0,0,13.8,9.6,25.4,12.5
				c2.3,7.6,3.1,11.4,3.4,27.6s4,25.3,4.2,33.2s0.8,28.2-2.2,39.9c-3,11.6-2.7,28.9-3,29.6c-6.6,6.6-6.6,16.9-6.6,20.9
				s3.3,8.3,6,8.3c2.7,0,7-10.3,9.3-9c2.3,1.3-3.3,3.7-6,12c-2.7,8.3,8.3,19.6,14.6,25.9c6.3,6.3,27.6,8,37.9,7.6
				c10.3-0.3,16.6-8.3,19.6-13c3-4.7-5.3-14.3-5.6-15.3c-2-22.9-11.6-27.2-11.6-27.9c-2.7-6.6-11.6-13.3-11.6-13.3s0.3-10,0-30.9
				c-0.3-20.9,7.6-36.9,7-44.5c-0.6-7.6-3.7-17.9-2.7-21.9c1-4,6.6-36.5,19.9-63.5c13.3-26.9,16.1-56.9,16.1-56.9
				c0.5-0.9,1-1.7,1.5-2.6c7.3-12.6,27.1-48.2,34.5-63.3s10.1-28.1,11.4-38.5c13.1-11.4,30.6-38.6,32.9-47c2.7-10-4.3-39.9-6.3-49.1
				c-2-9.2,4.7-9.7,17.6-5.2c13,4.5,40.5-3.9,60.5-13.5c19.9-9.6,41.4-26.6,41-26.9c-11.3-6.8-29.4-13.4-44.3-16.4
				c0,0,5.1-20.9,2.5-38.1c-2.7-17.2-10.4-33.3-12.6-37.5c-2.2-4.2-6.9-7.5-9.5-6s-1.6,8.2,0.7,22.8s0.9,23.3-3.1,36.8
				s-11.1,12-20.4,7.3c-9.3-4.6-25.5-18.4-29.5-21.5c0.9-2.8-3.2-4.5-4.9-8.9s-0.7-13.3-5-17.9c-4.3-4.7-6.6-9.9-20.5-16.4
				C732.3,331.6,724.9,327.9,722.2,328"/>
			<g>
				<path fill="#FFFFFF" d="M604.3,472.5c0.4-1.2-1,3.2-5.6,4.1c-9.1,1.7-28.3,6.5-51.9-1.6c-23.6-8.1-39.5-13.4-61.5-12.4
					c0.3,0.3,7.3-28.9,42.9-36.9c35.5-8,54.5-1,63.1-1s7.6-1.6,8-6.8c0.3-5.2,6-21.1,6-21.8c0-0.6-5.5-11.6-6.1-20.6
					c0,0-1.7,1.5-4.5,3.7c0,0,1.6-37.6,36.2-43.6c1.3-3,7.3-8.6,20.6-11.3c2.2-0.4,4.3-0.5,6.3-0.4c0,0,5.7-3.6,10-2.9
					c0,0,8.1-4,13.2-2.3c0,0,1.7-2,3.8-0.2c-0.2,0.2,5.2,0,5.2,0s7.1-1.5,17.8,2.7c8.1,3.2,14.4,6.7,14.4,6.7
					c2.7-0.1,10.1,3.6,12.8,4.9c13.8,6.5,16.1,11.8,20.5,16.4c4.3,4.7,3.3,13.6,5,17.9s5.8,6.1,4.9,8.9c-4-3.1-7.2-2.4-7.2-2.4
					s-2.1-0.6-2.1-0.6c1.2,2.7,1.7,5.4,1.4,6.8c-0.9,5.4-1.7,5.2,0.7,12.3c0,0,6,19.7,25.3,19.9c19.3,0.2,30.6-3.1,46.3-1.1
					c15.8,2,38.5,9.6,51.8,17.6c0.3,0.3-21.1,17.3-41,26.9c-19.9,9.6-47.5,18.1-60.5,13.5c-13-4.5-19.6-4-17.6,5.2
					c2,9.2,9,39.1,6.3,49.1c-2.7,10-26.8,46.5-39.6,51.5c-11.5,4.5-38.3,14-65.9,8.3c-3.2-0.7-6.4-1.5-9.6-2.6
					c-30.8-10.6-59.4-33.6-54.4-77.7C601.8,480.7,603.9,473.8,604.3,472.5"/>
			</g>
			<g>
				<path fill="#FFFFFF" d="M599.2,375.6c0,0-28.1,23.2-37.4,27.9s-21.3,8.3-25.3-8.3s-6.9-32.9-4.6-47.8s1.7-16.3,0-16.9
					c-1.7-0.7-6.7,1.3-11,10.6s-15,35.9-13,55.2c2,19.3,12.9,32,12.9,32c2.3-0.8,4.7-1.8,7.4-2.4c35.5-8,54.5-1,63.1-1
					s7.6-1.6,8-6.8c0.3-5.2,6-21.1,6-21.8C605.3,395.6,599.8,384.6,599.2,375.6z"/>
			</g>
			<g>
				<path fill="#FFFFFF" d="M756.3,373.7c1.1,2.5,1.4,4.9,1.2,6.3c-0.9,5.4-1.7,5.2,0.7,12.3c0,0,6,19.7,25.3,19.9
					c19.3,0.2,30.6-3.1,46.3-1.1c2.4,0.3,4.9,0.6,7.6,1.2c0,0,5.1-20.9,2.5-38.1c-2.7-17.2-10.4-33.3-12.6-37.5
					c-2.2-4.2-6.9-7.5-9.5-6s-1.6,8.2,0.7,22.8s0.9,23.3-3.1,36.8s-11.1,12-20.4,7.3c-9.3-4.6-25.5-18.4-29.5-21.5
					c-4-3.1-7.2-2.4-7.2-2.4L756.3,373.7z"/>
			</g>
			<g>
				<path fill="#521013" d="M395.7,716.7c-13.4-2.2-24-4.6-24-4.6s1.3,3,0,7.3c-1.3,4.3-6.6,5.3-8,1.7c-1.3-3.7-1.8-11-1.8-11
					l-11.5-2c0,0,0.2,1.9,0.7,4.7c0.7,3.7-2.3,8.3-5.3,5.7s-3.3-12-3.3-12s-7.3-1.7-7-1c-0.7,5.9-4.3,11-4.3,11
					c0.3-0.4,22.6,51.1,26.9,72l10.6,52.5h-5.6c0,0,0.7,12.5,7.6,25.8c0.7,0,7.3-7.5,8.3-12.9c0.3,0,3,1.9,3.7,7.2
					c0.7,5.3,1.7,17.4,12.6,19c11,1.7,33.2,3.2,38.9,2.9c5.6-0.3,8.3-2.1,8.3-2.1l-1.7-4.6l14.6,1.6c0,0-6-10.6-8.6-14.3
					c-2.7-3.7-6-14-12.6-19.9c-6.6-6-14.3-7.6-17.6-9c-3.3-1.3-6.6-3.7-11-14s-4.3-18.6-5.3-23.3c-1-4.7-7.3-13.3-10-24.6
					c-2.7-11.3-2.7-46.5,5-55.5L395.7,716.7z"/>
			</g>
			<g>
				<path fill="#521013" d="M599.9,765.9c2.7,0.7,5.3,1,7.6,0.7c12.1-1.3,39.4-28.1,50-43.3c9.9-14.2,23.4-35.5,31.1-48.5
					c0,0-2.8,30-16.1,56.9c-13.3,26.9-18.9,59.5-19.9,63.5c-1,4,2.1,14.3,2.7,21.9c0.6,7.6-7.4,23.6-7,44.5c0.3,20.9,0,30.9,0,30.9
					s9,6.6,11.6,13.3c0,0.7,9.6,5,11.6,27.9c0.3,1,8.6,10.6,5.6,15.3c-3,4.7-9.3,12.6-19.6,13c-10.3,0.3-31.6-1.3-37.9-7.6
					c-6.3-6.3-17.3-17.6-14.6-25.9c2.7-8.3,8.3-10.6,6-12c-2.3-1.3-6.6,9-9.3,9c-2.7,0-6-4.3-6-8.3s0-14.3,6.6-20.9
					c0.3-0.7,0-17.9,3-29.6c3-11.6,2.4-31.9,2.2-39.9s-3.8-16.9-4.2-33.2S602.2,773.5,599.9,765.9z"/>
			</g>
		</g>
		<g>
			<path fill="none" stroke="#C1272D" stroke-width="3" stroke-linejoin="round" stroke-miterlimit="10" d="M599.3,375.6
				c0,0-28.2,23.3-37.5,27.9s-21.3,8.3-25.3-8.3s-6.9-32.9-4.6-47.8s1.7-16.3,0-16.9c-1.7-0.7-6.7,1.3-11,10.6s-15,35.9-13,55.2
				c2,19.3,13,32.2,13,32.2"/>
			<path fill="none" stroke="#C1272D" stroke-width="3" stroke-linejoin="round" stroke-miterlimit="10" d="M837.3,412.2
				c0,0,5.1-20.8,2.4-38c-2.7-17.2-10.4-33.3-12.6-37.5c-2.2-4.2-6.9-7.5-9.5-6s-1.6,8.2,0.7,22.8s0.9,23.3-3.1,36.8
				s-11.1,12-20.4,7.3c-9.3-4.6-25.5-18.4-29.5-21.5c-4-3.1-7.2-2.4-7.2-2.4"/>
			<path fill="none" stroke="#C1272D" stroke-width="3" stroke-linejoin="round" stroke-miterlimit="10" d="M722.2,328
				c2.7-0.1,10.1,3.6,12.8,4.9c13.8,6.5,16.1,11.8,20.5,16.4c4.3,4.7,3.3,13.6,5,17.9s5.8,6.1,4.9,8.9"/>
			<path fill="none" stroke="#C1272D" stroke-width="3" stroke-linejoin="round" stroke-miterlimit="10" d="M634.2,415.1
				c0,0-5.5-11.3-12.4-13.3c-6.9-2-9.1,3.1-9.1,3.1"/>
			<path fill="none" stroke="#C1272D" stroke-width="3" stroke-linejoin="round" stroke-miterlimit="10" d="M737,411.1
				c0,0,1.3-22.2,18.2-11.7"/>
			<path fill="none" stroke="#C1272D" stroke-width="3" stroke-linejoin="round" stroke-miterlimit="10" d="M630.9,411.1
				c0,0-5.3,5.8-10.4,4s-7.3-9.3-5.6-12.6"/>
			<path fill="none" stroke="#C1272D" stroke-width="3" stroke-linejoin="round" stroke-miterlimit="10" d="M737.4,408.2
				c0,0,13.5,9,16.3-9.7"/>
			<path fill="none" stroke="#C1272D" stroke-width="3" stroke-linejoin="round" stroke-miterlimit="10" d="M663.1,470.6
				c0,0-0.3,6.6,4,8c4.3,1.3,15.3,7,11.6,11.6c-1.3,1-3.3-1.3-7.4-2.3C667.1,486.9,658.5,481.6,663.1,470.6z"/>
			<path fill="none" stroke="#C1272D" stroke-width="3" stroke-linejoin="round" stroke-miterlimit="10" d="M718.9,487.5
				c0,0-0.3-5.3,3.7-8.6s6-2.3,6-8.3c0.3,0,3.3,7.2,0,9.9C725.2,483.2,720.3,484.9,718.9,487.5z"/>
			<path fill="none" stroke="#C1272D" stroke-width="3" stroke-linejoin="round" stroke-miterlimit="10" d="M726.9,510.8
				c0,0,5-8.6,0-11.5s-10-8.5-10-15.1"/>
			<path fill="none" stroke="#C1272D" stroke-width="3" stroke-linejoin="round" stroke-miterlimit="10" d="M681,485.9
				c1.4,11.6-3.1,11.6-8.9,16.3c-3.7,2.9,1.7,10.6,1.7,10.6"/>
			<path fill="none" stroke="#C1272D" stroke-width="3" stroke-linejoin="round" stroke-miterlimit="10" d="M644.5,528.3
				c0,0-1.7-12.4,10.7-8.9c12.4,3.5,22,7.5,42.9,7.1c20.9-0.4,37.6-9.3,43.4-11.5c5.8-2.2,9.8-2.7,8.5,4.4"/>
			<path fill="none" stroke="#C1272D" stroke-width="3" stroke-linejoin="round" stroke-miterlimit="10" d="M676,455.6
				c0,0-18.3,3.1-31.5,31.9"/>
			<path fill="none" stroke="#C1272D" stroke-width="3" stroke-linejoin="round" stroke-miterlimit="10" d="M716.9,454.1
				c0,0,18.3,1.6,31.5,30.1"/>
			<path fill="none" stroke="#C1272D" stroke-width="3" stroke-linejoin="round" stroke-miterlimit="10" d="M604.3,472.5
				c0.4-1.2-1,3.2-5.6,4.1c-9.1,1.7-28.3,6.5-51.9-1.6c-23.6-8.1-39.5-13.4-61.5-12.4c0.3,0.3,7.3-28.9,42.9-36.9
				c35.5-8,54.5-1,63.1-1s7.6-1.6,8-6.8c0.3-5.2,6-21.1,6-21.8c0-0.7-7.6-15.6-6-24.9"/>
			<path fill="none" stroke="#C1272D" stroke-width="3" stroke-linejoin="round" stroke-miterlimit="10" d="M599.3,502.8
				c2.5-22.1,4.6-29.1,5-30.3"/>
			<path fill="none" stroke="#C1272D" stroke-width="3" stroke-linejoin="round" stroke-miterlimit="10" d="M663.3,583.2
				c-3.2-0.7-6.4-1.5-9.6-2.6c-30.8-10.6-59.4-33.6-54.4-77.7"/>
			<path fill="none" stroke="#C1272D" stroke-width="3" stroke-linejoin="round" stroke-miterlimit="10" d="M727,373.7
				c23-20.4,31.4,0.9,30.4,6.3c-0.9,5.4-1.7,5.2,0.7,12.3c0,0,6,19.7,25.3,19.9c19.3,0.2,30.6-3.1,46.3-1.1
				c15.8,2,38.5,9.6,51.8,17.6c0.3,0.3-21.1,17.3-41,26.9c-19.9,9.6-47.5,18.1-60.5,13.5c-13-4.5-19.6-4-17.6,5.2
				c2,9.2,9,39.1,6.3,49.1c-2.7,10-26.8,46.5-39.6,51.5c-11.5,4.5-38.3,14-65.9,8.3"/>
			<path fill="none" stroke="#C1272D" stroke-width="3" stroke-linejoin="round" stroke-miterlimit="10" d="M594.7,379.3
				c0,0,1.6-37.7,36.2-43.6c1.3-3,7.3-8.6,20.6-11.3c2.2-0.4,4.3-0.5,6.3-0.4c0,0,5.7-3.6,10-2.9c0,0,8.1-4,13.2-2.3
				c0,0,1.7-2,3.8-0.2c-0.2,0.2,5.2,0,5.2,0s7.1-1.5,17.8,2.7c8.1,3.2,14.4,6.7,14.4,6.7"/>
			<path fill="none" stroke="#C1272D" stroke-width="3" stroke-linejoin="round" stroke-miterlimit="10" d="M515.3,444
				c0,0,19.3-3.9,38.2,2.3c18.9,6.2,30.6,16.4,45.8,9.3"/>
			<path fill="none" stroke="#C1272D" stroke-width="3" stroke-linejoin="round" stroke-miterlimit="10" d="M866.6,432.1
				c0,0-25.7,1.4-35,5.4c-9.3,4-22,12.3-44.7,13c-10.6,0.3-16.4-7.6-16.4-7.6"/>
			<path fill="none" stroke="#C1272D" stroke-width="3" stroke-linejoin="round" stroke-miterlimit="10" d="M634.2,331.7
				c0,0-27.9-3.3-34.9-4.5c-7-1.2-28.9-8.5-38.9-8.5c-10,0-41.2,12.6-63.1,23.9c-21.9,11.3-34,20.8-70.4,23.7
				c-41.2,3.2-60.5-13.3-72.4-12.8s-25.2,6-36.5,11.5c0,0-13.3,9.4-23.9,14.3c-10.6,4.9-41.9,15.5-55.5,26.5s-23.6,28.5-23.6,44.6
				c0,16.2-1,81.6,0,97.9c1,16.3,15,69.1,17.9,80.7c3,11.6,12.3,36.9,12,56.5s-5.3,26.6-4.3,37.2c1,10.6,7,16.9,7.6,24.9
				c0.7,8,1.3,17.6-1.3,27.9c-2.7,10.3-9.6,32.6-10.3,38.9c-0.7,6.3-0.7,23.9,0,27.6c0.7,3.7,1.3,19.6,2.3,21.9
				c1,2.3,13.3,16.3,39.2,11.3c6-0.7,13.3-4,13.3-9.3c0-5.3-4-9.6-4-10.3c0-0.7,3.7-6.6,0.7-11.6c-3-5-8.3-11.6-9.3-14.3
				c-1-2.7-0.3-10.3-0.3-10.3s-6-10-6.3-33.9c-0.3-23.9,2-31.6,5.3-39.2c3.3-7.6,13-58.5,13.6-66.1c0.7-7.6,3-13.3,3-13.3l1.1-1.6"
				/>
			<path fill="none" stroke="#C1272D" stroke-width="3" stroke-linejoin="round" stroke-miterlimit="10" d="M268.4,609
				c0,0,3.3,21.2,12.6,37.8c9.3,16.6,25.6,28.5,28.6,35.2s6.6,8,3.7,23.6s6.3,11.3,8.3,7c2-4.3,4-7.3,4-7.3s-0.3,8.4,0,11.3
				c0.3,3,3.3,3.4,5.6,0c0.3-0.4,22.6,50.9,26.9,71.8l10.6,52.2h-5.6c0,0,0.7,12.7,7.6,26c0.7,0,7.3-7.4,8.3-12.7
				c0.3,0,3,1.9,3.7,7.3c0.7,5.3,1.7,17.4,12.6,19.1c11,1.7,33.2,3.2,38.9,2.9c5.6-0.3,8.3-2,8.3-2l-1.7-4.6l14.6,1.6
				c0,0-6-10.6-8.6-14.3c-2.7-3.7-6-14-12.6-19.9c-6.6-6-14.3-7.6-17.6-9c-3.3-1.3-6.6-3.7-11-14s-4.3-18.6-5.3-23.3
				c-1-4.7-7.3-13.3-10-24.6c-2.7-11.3-2.7-46.5,5-55.5"/>
			<path fill="none" stroke="#C1272D" stroke-width="3" stroke-linejoin="round" stroke-miterlimit="10" d="M331.2,716.5
				c0,0,3.6-5.1,4.3-11c-0.3-0.7,7,1,7,1s0.3,9.4,3.3,12s6-2,5.3-5.7c-0.5-2.8-0.7-4.7-0.7-4.7l11.5,2c0,0,0.5,7.3,1.8,11
				c1.3,3.7,6.6,2.7,8-1.7c1.3-4.3,0-7.3,0-7.3s36.8,8.3,60.5,8.3c25.6,0,60.1-2.7,60.1-2.7"/>
			<path fill="none" stroke="#C1272D" stroke-width="3" stroke-linejoin="round" stroke-miterlimit="10" d="M452.1,552
				c0,0-4,91.7,9.3,114.3c13.3,22.6,40,64.5,46.3,87c6.2,22.6,16.9,45.8,18.2,55.8c1.3,10,2,27.9,6,36.5s9.9,16.7,8.6,37.3
				s-7.3,39.2-8.6,57.8s9.9,42.5,13.3,45.8c3.3,3.3,38.5,3.3,38.5,3.3l22.6-9.3c0,0,2.7-29.9,0-35.9c-2.7-6-14-10-15.3-12.6
				s-6-29.9-8.6-35.2c-2.7-5.3-3.3-10.6-2.7-23.9c0.7-13.3,8.6-25.9,7.3-35.2c-1.3-9.3-6.6-42.3-10-61c-3.3-18.7-3.3-42.8-3.3-53.3"
				/>
			<path fill="none" stroke="#C1272D" stroke-width="3" stroke-linejoin="round" stroke-miterlimit="10" d="M574.5,753.4
				c0,0,20.9,14.6,33,13.3c12.1-1.3,39.4-28.1,50-43.3c10.6-15.2,25.2-38.5,32.6-51.1s27.1-48.2,34.5-63.3s10.1-28.1,11.4-38.5"/>
			<path fill="none" stroke="#C1272D" stroke-width="3" stroke-linejoin="round" stroke-miterlimit="10" d="M688.5,674.8
				c0,0-2.8,30-16.1,56.9c-13.3,26.9-18.9,59.5-19.9,63.5c-1,4,2.1,14.3,2.7,21.9c0.6,7.6-7.4,23.6-7,44.5c0.3,20.9,0,30.9,0,30.9
				s9,6.6,11.6,13.3c0,0.7,9.6,5,11.6,27.9c0.3,1,8.6,10.6,5.6,15.3c-3,4.7-9.3,12.6-19.6,13c-10.3,0.3-31.6-1.3-37.9-7.6
				c-6.3-6.3-17.3-17.6-14.6-25.9c2.7-8.3,8.3-10.6,6-12c-2.3-1.3-6.6,9-9.3,9c-2.7,0-6-4.3-6-8.3s0-14.3,6.6-20.9
				c0.3-0.7,0-17.9,3-29.6c3-11.6,2.4-31.9,2.2-39.9s-3.8-16.9-4.2-33.2s-1.1-20.1-3.4-27.6"/>
			<path fill="none" stroke="#C1272D" stroke-width="3" stroke-linejoin="round" stroke-miterlimit="10" d="M634.2,385.1
				c0,0-14.5-21-26.7-9c-5.4,5.3-6.5,8.7-2.5,19.1"/>
		</g>
	</g>
</g>
</svg>
