<?xml version="1.0" encoding="utf-8"?>
<!-- Generator: Adobe Illustrator 16.0.4, SVG Export Plug-In . SVG Version: 6.00 Build 0)  -->
<!DOCTYPE svg PUBLIC "-//W3C//DTD SVG 1.1//EN" "http://www.w3.org/Graphics/SVG/1.1/DTD/svg11.dtd">
<svg version="1.1" xmlns="http://www.w3.org/2000/svg" xmlns:xlink="http://www.w3.org/1999/xlink" x="0px" y="0px" width="1100px"
	 height="1100px" viewBox="0 0 1100 1100" enable-background="new 0 0 1100 1100" xml:space="preserve">
<g id="Layer_2">
</g>
<g id="Layer_1">
	<g>
		<circle fill="#C1272D" cx="550.5" cy="546.1" r="393.1"/>
		<g>
			<path fill="#521013" d="M869.9,939.2C820.4,856.8,814.4,828,785.4,763s-36.5-78.5-39-102.5s-15.5-45.5-24-64s-32-47-34.5-51
				s-3-18-7-33.5s-9.5-20.5-9.5-20.5s2.5-3.5,0-13.4s-9.5-46.6-13-51.6s-12-14-17-21c-2.4-3.3-6.6-11.1-10.5-18.4l-44.5,26.2
				l5.6,58.1c0.2,5.8,0.8,13.3,2.4,19.1c3,11,4.5,17.5,6.5,18.5c-2,2.5,0.5,14-2,22.2c-2.5,8.3-1.4,15.9-7.2,25.8l0,0
				c-28.6,13.4-37.9,27.9-38.3,32.4c-4.5,0.4-10.5,6.1-14.5,8.1s-10.5,0.5-15,6c-7-9-21.5-16.5-35.5-24s-24-13.5-32.5-14
				c-6-11.5-43.2-49.5-43.2-49.5l0,0c1.2-3.4,2.2-6.3,2.7-8c2-6.5,0.5-15.5,0.5-16.5c36-25.5,52.2-52.5,46.2-69.7
				c-1.1-3-2.4-5.5-3.8-7.6c-0.1-1.5-0.4-3-0.8-4.5c-4-13.3-22-14-22-14s-19.3,15.3-35.3,26.1c-9,6-24.6,18.8-20.7,15.7
				c1.5-8.9,3.6-24.7,2.7-37.8c-1.3-19.3-20-35.5-27.3-30l-4-1.1c0,0-8.3,26.7-7.9,37.9c0,0-15.8,25.3-13.8,46.7v0.1
				c-12,4.5-12.6,14.7-12.6,14.7h-2l16,32.6c-0.7,1.2-23,38-24,42.9c-1,5,1,17.5,5,23s11.7,14.3,16.6,22.9c4.9,8.6,8.1,18,24.5,33.5
				l0,0c0,0,0,0,0,0c0.9,1.7,1.8,3.2,2.7,4.6c7.3,11,24.3,26,29.8,35.5s26.5,54,36,60.5s29.2,11,37.4,11.5
				c8.1,0.5,55.1,18.5,75.6,27.5s70.5,36,80.5,45.5s52,46.5,76.5,125.5c20.3,65.5,24.6,78.5,38.6,125.3l66.4-30.8l91.1-60.6
				C872.8,944.3,883.7,962.1,869.9,939.2z"/>
			<g>
				<path fill="none" stroke="#C1272D" stroke-width="3" stroke-miterlimit="10" d="M881.3,958.1c-3.8-6.4-7.7-12.7-11.4-18.9
					C820.4,856.8,814.4,828,785.4,763s-36.5-78.5-39-102.5s-15.5-45.5-24-64s-32-47-34.5-51s-3-18-7-33.5s-9.5-20.5-9.5-20.5
					s2.5-3.5,0-13.4s-9.5-46.6-13-51.6s-12-14-17-21c-2.4-3.3-6.6-11.1-10.5-18.4l-44.5,26.2l5.6,58.1c0.2,5.8,0.8,13.3,2.4,19.1
					c3,11,4.5,17.5,6.5,18.5c-2,2.5,0.5,14-2,22.2c-2.5,8.3-1.4,15.9-7.2,25.8"/>
				<path fill="#FFFFFF" stroke="#C1272D" stroke-width="3" stroke-miterlimit="10" d="M416.2,494.8C440.4,507,487.1,520,542.4,505
					c47.6-12.9,99-85,88-152s-30-90-64-114c-43.1-30.4-146-37-197,33c-31.2,42.8-33.6,87.6-24,115.1"/>
				<g>
					<path fill="#521013" stroke="#C1272D" stroke-width="3" stroke-miterlimit="10" d="M458.2,414.3c-6.9-9.7-16.8-9.9-16.8-9.9
						l-5.3-2.7c-6.8,4.7-26.7,27.3-26.7,26.7c-2.7-1.3-16.7,6.7-27.1,17.3c-5.9,6-11.6,15.9-15.4,23.3c-3.4-4.5-7.4-8.4-11.9-11.1
						c0,0,29.1-25.3,45.1-36.1c16-10.8,35.3-26.1,35.3-26.1s18,0.7,22,14C457.9,411.3,458.2,412.8,458.2,414.3z"/>
				</g>
				<g>
					<path fill="#521013" stroke="#C1272D" stroke-width="3" stroke-miterlimit="10" d="M379.4,437.5C366.7,447.7,355,458,355,458
						c-9.5-5.8-20.2-7.5-26.9-4.9c-1.3-21.3,14.3-46.7,14.3-46.7c-0.4-11.2,8.4-37.9,8.4-37.9l4,1.1c7.3-5.5,26,10.7,27.3,30
						C383,412.8,380.8,428.6,379.4,437.5z"/>
				</g>
				<g>
					<path fill="none" stroke="#C1272D" stroke-width="3" stroke-miterlimit="10" d="M352.5,623c-16.4-15.5-19.6-25-24.5-33.5
						c-4.9-8.6-12.6-17.4-16.6-22.9s-6-18-5-23s24-42.9,24-42.9s3.9,15.8,9.9,30.7c0,0-7.9,18.3-9.9,23.3s-1.6,15.5,5,28
						C341.1,593.5,346.4,611.3,352.5,623"/>
				</g>
				<path fill="none" stroke="#C1272D" stroke-width="3" stroke-miterlimit="10" d="M467.9,635.5c0-22.5-43.2-55-43.2-55
					s-8.8-18-14.2-30s-16.5-20-16.5-20.5c-1.5-7.5-13.5-33.5-22.5-53.4c-9-19.9-32-25.1-43.3-20.6s-11.7,17.5-11.7,17.5h-2l16,30
					c0,0,7.5,28.6,17.5,45.1c3.5,13,10,26.8,10,26.8s-1.2,12,4.2,14.5c3.3,2.1,5.8,11.9,5.8,11.9s9.8,15.9,14.4,18.4
					c1.1,1,27.6,42.5,33.6,49.5s14.6,20.5,19.6,31c4.9,10.5,15.9,21,19.9,23"/>
				<path fill="none" stroke="#C1272D" stroke-width="3" stroke-miterlimit="10" d="M435.5,589.5c0,0,20.9,3.6,32.4,23.1
					c3,1,28.1,14,41.5,25.5c8.6,7.4,8.5,10,8.5,10s23.5-1.5,61.5,8.5"/>
				<path fill="none" stroke="#C1272D" stroke-width="3" stroke-miterlimit="10" d="M729.5,1058.9c-11.3-37.2-24.3-79.1-38.6-125.3
					c-24.5-79-66.5-116-76.5-125.5s-60-36.5-80.5-45.5s-67.5-27-75.6-27.5c-8.1-0.5-27.9-5-37.4-11.5s-30.5-51-36-60.5
					s-22.5-24.5-29.8-35.5c-7.3-11-13.2-32.5-19.8-45s-7-23-5-28s9.9-23.3,9.9-23.3"/>
				<g display="none">
					<path display="inline" fill="none" stroke="#C1272D" stroke-width="3" stroke-miterlimit="10" d="M912.5,1009.2
						c-10.4-16.9-20.9-34.1-31.1-51.1"/>
					<path display="inline" fill="none" stroke="#C1272D" stroke-width="3" stroke-miterlimit="10" d="M742.7,1102.8
						c-4.1-13.8-8.5-28.4-13.2-43.9"/>
				</g>
				<path fill="none" stroke="#C1272D" stroke-width="3" stroke-miterlimit="10" d="M412.7,516c0,0,37.2,38,43.2,49.5
					c8.5,0.5,18.5,6.5,32.5,14s28.5,15,35.5,24c4.5-5.5,11-4,15-6s10-7.7,14.5-8.1c0.5-5.4,13.9-25.3,58.5-40.4
					c34-11.5,64,1.5,64,1.5"/>
				<path fill="none" stroke="#C1272D" stroke-width="3" stroke-miterlimit="10" d="M455.9,565.5c0,0-18.4,7.5-22.5,22.1"/>
				<path fill="none" stroke="#C1272D" stroke-width="3" stroke-miterlimit="10" d="M600.9,462.4c10.9-0.7,29.7-4.1,46.5-17.1"/>
				<g>
					<path fill="#521013" stroke="#C1272D" stroke-width="3" stroke-miterlimit="10" d="M403.9,540.1c-4.9-6-9.9-9.7-9.9-10
						c-1.5-7.5-13.5-33.5-22.5-53.4c-1.3-2.8-2.8-5.3-4.5-7.6c3.8-7.4,9.5-17.3,15.4-23.3c10.5-10.7,24.5-18.7,27.1-17.3
						c0,0.7,19.9-22,26.7-26.7l5.3,2.7c0,0,14.7,0.2,20.7,17.5c6,17.2-10.2,44.2-46.2,69.7c0,1,1.5,10-0.5,16.5
						S403.9,540.1,403.9,540.1z"/>
				</g>
			</g>
		</g>
	</g>
</g>
<g id="Layer_4">
</g>
<g id="Layer_3">
</g>
</svg>
