<?xml version="1.0" encoding="utf-8"?>
<!-- Generator: Adobe Illustrator 16.0.4, SVG Export Plug-In . SVG Version: 6.00 Build 0)  -->
<!DOCTYPE svg PUBLIC "-//W3C//DTD SVG 1.1//EN" "http://www.w3.org/Graphics/SVG/1.1/DTD/svg11.dtd">
<svg version="1.1" xmlns="http://www.w3.org/2000/svg" xmlns:xlink="http://www.w3.org/1999/xlink" x="0px" y="0px" width="174.6px"
	 height="197.5px" viewBox="0 0 174.6 197.5" enable-background="new 0 0 174.6 197.5" xml:space="preserve">
<g id="Layer_1">
	<path opacity="0.15" d="M2.6,188.8c40.2,8.8,77.5,8.8,104.2,8.7c31-0.2,53.2-5.4,64.7-11.1c0-12.4,14-90-17.3-129.3
		c-20.6-25.9-54.4-26.5-72.3-27.4c-2-11.3,17-18.3,13.3-26.6c-3.7-8.3-14.2,7.2-19.5,4.6C71,5.3,55.9-3.5,54.9,7.3
		C54.1,15.8,74.1,13,72.6,29C-13.6,26.7-0.6,96.2,2.6,188.8z"/>
	<path opacity="0.3" fill="#D28941" d="M154.1,57.1c-11.7-14.7-27.7-21.2-42.6-24.3c-14.8,5.1-30.4,10.8-42.2,6.1
		c-6.2-2.5-12.9-5-18.5-8.6c-62,9.7-51.1,74.7-48.2,158.6c40.2,8.8,77.5,8.8,104.2,8.7c31-0.2,53.2-5.4,64.7-11.1
		C171.4,174,185.4,96.3,154.1,57.1z"/>
</g>
<g id="ricotta">
</g>
<g id="pussit">
</g>
<g id="vesi">
	<polygon fill="#808080" points="82.4,29.7 71.6,29 72.1,23.3 83,22.8 	"/>
</g>
<g id="Layer_5">
</g>
<g id="mozzarellat">
	<g>
		<path fill="#FFFFFF" d="M33.4,183.1c17.1,8,42.7-9.9,44.7-23.6c2.1-14.1-7.6-36.1-21.5-38C38,118.9,22,122.1,16,138.7
			C10.1,154.7,16.3,175.1,33.4,183.1z"/>
		<path fill="#FFFFFF" d="M144.2,125.2c-16.6-9-43.2,7.3-46.1,20.8c-3,14,5.3,36.5,19.1,39.3c18.4,3.7,34.5,1.5,41.6-14.6
			C165.7,155,160.8,134.2,144.2,125.2z"/>
		<path fill="#FFFFFF" d="M116.8,51.1c-18.9,0.7-33.4,28.3-29,41.4c4.6,13.5,23.2,28.7,36.5,24c17.7-6.2,30.5-16.4,28.3-33.9
			C150.5,65.7,135.7,50.3,116.8,51.1z"/>
		<path fill="#FFFFFF" d="M19.9,95.4c9.5,16.4,40.7,16.4,50.2,6.3c9.8-10.4,14.5-33.9,4.2-43.5C60.6,45.5,45.6,38.9,31.1,49
			C17.1,58.7,10.5,79,19.9,95.4z"/>
		<g display="none">
			<g display="inline">
				<defs>
					<path id="SVGID_13_" d="M19.9,95.4c9.5,16.4,40.7,16.4,50.2,6.3c9.8-10.4,14.5-33.9,4.2-43.5C60.6,45.5,45.6,38.9,31.1,49
						C17.1,58.7,10.5,79,19.9,95.4z"/>
				</defs>
				<clipPath id="SVGID_2_">
					<use xlink:href="#SVGID_13_"  overflow="visible"/>
				</clipPath>
				<g opacity="0.7" clip-path="url(#SVGID_2_)">
					<g>
						<g>
							<g>
								<g>
									<g>
										<path fill="#B45824" d="M23,67.4c0,0.1,0,0.2,0,0.3C23.1,67.6,23.1,67.5,23,67.4z"/>
										<path fill="#B45824" d="M30.2,63.9C30.2,63.9,30.2,63.9,30.2,63.9L30.2,63.9L30.2,63.9z"/>
										<path fill="#B45824" d="M30.2,63.8l-0.1-0.3C30,63.7,30.1,63.8,30.2,63.8z"/>
										<path fill="#B45824" d="M23.5,69.5c0,0.1,0,0.2,0,0.4L23.5,69.5z"/>
										<path fill="#B45824" d="M24.9,70.2c0,0,0.1,0.1,0.1,0.1C24.9,70.2,24.9,70.2,24.9,70.2z"/>
										<path fill="#B45824" d="M16.7,71.3c0,0,0-0.1-0.1-0.1C16.6,71.2,16.6,71.3,16.7,71.3z"/>
										<path fill="#B45824" d="M16.6,72C16.5,72.1,16.5,72.1,16.6,72l-0.1,0.1C16.6,72.2,16.6,72.1,16.6,72z"/>
										<path fill="#B45824" d="M17,72.2L17,72.2C17,72.3,17,72.2,17,72.2z"/>
										<path fill="#B45824" d="M16.5,77.3l0.2,0.3C16.6,77.5,16.6,77.4,16.5,77.3z"/>
										<path fill="#B45824" d="M16.5,70.9c0,0.1,0.1,0.2,0.1,0.3C16.6,71.1,16.6,71,16.5,70.9z"/>
										<path fill="#B45824" d="M23,67.3c0,0.1,0,0.1,0.1,0.1C23,67.3,23,67.3,23,67.3z"/>
										<path fill="#B45824" d="M23.1,69.8L23.1,69.8C23.1,69.7,23.1,69.7,23.1,69.8z"/>
										<path fill="#B45824" d="M32.7,62.2c0.1-0.1,0.1-0.1,0.1-0.2C32.7,62,32.7,62.1,32.7,62.2z"/>
										<path fill="#B45824" d="M18.6,70.5c0.7,0.7-0.2,0.2,0.4,0.9c0-0.2,0-0.4,0.3-0.1c0.2,0.5-0.3,0.2,0.2,0.8l0-0.4
											c0.4,0.2,0.6,0.8,0.7,0.7c-0.5-0.9,0.8-0.1,0.8-0.3l0,0.1l0.6,0.2c0,0,0,0,0,0c0,0-0.1-0.1-0.1-0.2c0.4,0.3,0.8,0.5,1,0.2
											c-0.3-0.5,0.5-0.6,0.3-1.1c0,0.2-0.1,0.3-0.3,0.2l-0.4-0.6c0.2-0.1,0.4,0.5,0.3,0c-0.6-0.8-0.3,0.2-0.5,0.2
											c-0.1-0.2-0.1-0.4-0.1-0.6c-0.3,0.2-0.8,0.1-0.4,1c-0.2-0.1-0.4-0.5-0.4-0.6c0.2,0.6-0.5-0.3-0.3,0.2
											c-0.5-0.8,0.1-0.7,0-1.2c0.7,0.4,0.6-0.4,0.8-0.8c0.4,0.5,0.6,1.1,0.9,1.4c0.5,0.1,0.1-0.5,0-0.9c0.3,0,0.7,0.9,1,0.7
											l0.1,0.5c0.7,0.6,0-0.4,0.2-0.4c-0.2-0.2-0.3-0.4-0.5-0.2C23,70,23,69.8,23.1,69.8l-0.1,0c-0.2-0.4-0.5-0.8-0.1-0.8
											c0.2,0.6,0.4,0.2,0.6,0.4l0,0.1c0-0.3,0.3-0.3,0.3-0.4l0.1,0.1c0-0.3-0.3-0.9-0.1-0.9c0.1,0.2,0.3,1,0.5,0.8
											c0.2,0.4,0,0.5-0.2,0.5c0.3,0,0.7,0.5,0.5,0.7c0.3,0.4,0.1-0.3,0.3-0.2c-0.1-0.1-0.2-0.3-0.3-0.4c0.4,0.6,0.4-0.2,0.2-0.6
											l0,0.5c-0.3-0.5-0.3-1-0.5-1.2c0.6,0.7,0.4-0.7,0.8-0.1l-0.3-0.4c0.6,0,0.4-1.1,0.8-1.6c0,0.3,0.5,1.2,0,1.1
											c0.5-0.1,0.6,0.8,1,1.2c0.5,0.1-0.3-0.9-0.3-1.2l-0.1,0.3c-0.3-1.2,1-0.3,1-1.1c0.2,0.2,0,0.2,0,0.3
											c0.5,0.4,0.1-0.2,0.1-0.5c0.3,0,0.6,0,0.9,0.7c0.3,0-0.3-0.4-0.2-0.6l0.1,0.1l-0.2-0.8c0.3,0.1,0.8,0.3,1.2,0.8
											c0.4-0.4-0.7-1.5-0.5-1.9c0.4,0.2,0.3,0.5,0.4,0.7l0.3-0.2c0.3,0.8-0.1,0.6,0.4,1.3c-0.3-1,0.2-0.4,0.2-1.2l-0.1-0.1
											c-0.2-0.6,0.4-0.5,0.5-0.7c0.1,0.4-0.1,0.5-0.1,0.8c0.4,0.1,0.8-0.5,0.5-1.3c0.2,0,0.6,0.2,0.6,0.6
											c0.5-0.1-0.4-1.1,0.1-1.2l0.3,0.6c0.9,0.5,0.4-1.2,1.2-0.7l-0.4-0.7c0.3,0.2,0.5,0.3,0.7,0.5l-0.1,0.3
											c0.5,0.5-0.1-0.7,0.3-0.4c-0.1-0.2-0.6-0.6-0.7-0.8c-0.6,0.9-2.1,0.4-2.5,1.6c0.1,0.1,0.2,0.1,0.2,0.3
											c-0.2-0.1-0.3,0.2-0.4-0.2l0-0.1c-0.1,0.3-0.8-0.4-1-0.3c0.2,0.5-0.6,0.1,0,0.8L28.6,64c0.1,0.3,0.4,0.7,0.4,0.9
											c-0.2,0-0.4-0.3-0.4-0.5c-0.8,0.1-1.4,0.6-1.8,1.1L26.7,65c-0.2-0.1-0.1,1-0.6-0.1c-0.1,0.5-0.9,0.2-0.4,1.2
											c-0.7-0.8-0.9,0-1.2,0.3c0.5,0.8-0.2,0.4-0.1,0.9c-0.4-0.6,0-0.9-0.2-1.3c0.1,1.3-1.8,0.1-0.9,1.8c-0.1,0-0.1-0.1-0.2-0.2
											c-0.1,0.1-0.4-0.2-0.5-0.2c0.1,0.3,0.4,0.3,0.3,0.6c-0.2,0-0.4-0.5-0.6-0.6c-0.1,0.6-0.4,1,0,1.7
											c-0.2-0.1-0.6-0.4-0.5-0.6c-0.1,0.8-0.5,0.2-0.7,0.9c0.1-0.1-0.4-0.7,0-0.6c-0.8-0.7-0.6,0.7-1.3,0.5L20,70
											c-0.1,0.3-0.6-0.2-0.6-0.6c-0.6,0-0.6,0.4-0.8,0.7c-0.1-0.1-0.1-0.2-0.1-0.2l-0.4,0.3c0.1,0.2,0.2,0.6,0.5,0.9
											C18.3,70.7,18.3,70.5,18.6,70.5z"/>
										<path fill="#B45824" d="M18.5,71.1L18.5,71.1L18.5,71.1C18.6,71.1,18.6,71.1,18.5,71.1z"/>
										<path fill="#B45824" d="M24,70.7c-0.1-0.1-0.2-0.2-0.3-0.2C23.8,70.6,23.9,70.7,24,70.7z"/>
										<path fill="#B45824" d="M15.8,75.1c0.7,0.8,0.1-0.3,0.5-0.2c-0.1,0.3,0.4,0.7,0.6,0.9c-0.7-1.2,0.4,0,0.6-0.5
											c0.3,0.3,0.2,0.5,0.5,0.9c0-0.4,0.2-0.8-0.3-1.5c0.3-0.3,0.7-0.3,0.9-0.6c0,0.4,0.5,0.6,0.7,1.3c-0.3-0.9-0.5-2.2-0.8-3.3
											c0.6,0.6,0.7,0.7,1.1,1.3c0.8,0.1-0.4-0.7,0.2-0.8l-0.3,0c0-0.3-0.5-1-0.8-1.4l-0.4,0.5c-0.4-0.4,0-0.6,0-0.8
											c-0.3-0.6-0.6-0.2-0.9-0.6c0.2,0.4,0,0.4,0,0.7L17,70.7c-0.4-0.1,0,0.6-0.2,0.8c-0.1-0.1-0.1-0.1-0.2-0.1
											c0.2,0.3,0.4,0.7,0.3,0.9l0.1-0.1c0.3,0.7,0.2,1.4,1,1.8l-0.6,0.2c-0.5-0.7-1.2-1.7-1-2l-0.2-0.3c-0.5-0.2-0.1,1,0.4,1.4
											c1.1,1.7-0.7,0.6-0.5,1.6c-0.4-0.4-0.3-0.7-0.5-1.1c0.1-0.1,0.1-0.2,0.4,0.1c0.2-0.6-1.2-1.2-0.6-1.5
											c0.4,0,0.3,0.9,0.7,0.7l-0.7-1.3c-0.2,0.2-0.2,0.6-0.3,0.8c-0.3,1.6-1.5,1.5-1.5,1.5s-1,1-2,1.8c-0.5,0.4-1,0.8-1.4,1.1
											c-0.4,0.3-0.6,0.4-0.6,0.4c-0.4,0.4-0.5,0.4-0.2,1.8c0.2,0.2,0.5,0,0.6,0.5c-0.1-0.5-0.1-0.9,0.2-1c0.3,0.5-0.1,0.4,0,0.4
											l0.1,0c0.1,0.3,0.1,0.5,0,0.5c0.6,0.6,1.3,0.1,0.9-0.9c0.5,0.3,0.3,0.8,0.3,1.3c1.1-0.2,1.7-0.7,2.6-1.2
											c-0.5-0.8-0.3-0.5-0.5-1.1l0.3,0.2c-0.1-0.1-0.4-0.7-0.7-0.8c0.9,0.2-0.2-1.4-0.2-2l0.3,0.4c0.2-0.3,0.3-0.3,0.3-0.7
											c1,0.4-0.3,0.4,0.6,1.2l0-0.2c0.2,0.4,0.7,1.1,0.7,1.5c-0.1-0.9,0.8-0.2,0.8-1c0.3,0.5,0.2,1.1,0.1,1.2
											c0.2-0.1,0.2-0.6,0.5-0.2l-0.4-0.6c0.2-0.3,0.4,0.5,0.7,0.8C17.4,77,15.5,75.8,15.8,75.1z"/>
										<path fill="#B45824" d="M22,70.4c-0.1,0-0.2,0.1-0.2,0.2C21.9,70.6,22,70.5,22,70.4z"/>
										<path fill="#B45824" d="M21.6,72.4c0.1,0.1,0.1,0.1,0.1,0.2C21.7,72.5,21.7,72.5,21.6,72.4z"/>
										<path fill="#B45824" d="M22.1,73.2c-0.2-0.2-0.2-0.3-0.3-0.6C21.8,72.8,21.6,73,22.1,73.2z"/>
										<path fill="#B45824" d="M42.4,62.2c0-0.2,0.2-0.4,0.1-0.6l-0.2,0.3L42.4,62.2z"/>
										<path fill="#B45824" d="M41.8,61.5l-0.3-0.2l0,0.9C41.8,62.2,41.6,61.6,41.8,61.5z"/>
										<path fill="#B45824" d="M41,61.1l0-0.2C41,61,41,61.1,41,61.1z"/>
										<path fill="#B45824" d="M41.1,61.5l0,0.7l0.2-0.5l-0.2-0.1c0-0.2-0.1-0.3-0.2-0.4l0,0.5C41,61.6,41,61.4,41.1,61.5z"/>
										<path fill="#B45824" d="M40.8,61.6c0,0.1,0,0.1,0.1,0.2C40.8,61.7,40.8,61.7,40.8,61.6z"/>
										<path fill="#B45824" d="M39.8,60.6c0.1,0.2,0.1,0.6,0.1,0.9c0.3,0.2,0.1-0.8,0.4-0.5c-0.2,0.6,0.2,0.3,0.4,0.7
											c-0.2-0.6-0.4-1-0.8-1.1l0.1,0.4C40,61,40,60.7,39.8,60.6z"/>
										<path fill="#B45824" d="M38.7,62l0-0.7c0.1,0.3,0.5,0.2,0.7,0.8c0.1-0.1,0-0.4,0.1-0.6c0.2,0.3,0.3,0.5,0.3,0
											c-0.6-0.3-0.5-0.5-1-0.5c0-0.1,0-0.1,0.1-0.1l-0.4-0.2C38.6,61.4,38.3,61.6,38.7,62z"/>
										<path fill="#B45824" d="M38.1,61.7c0.2-0.1,0.1-0.7-0.1-1.1c0,0-0.1,0.2-0.2,0.3c-0.1,0.2-0.2,0.3-0.2,0.3
											C37.8,61.2,38,61.1,38.1,61.7z"/>
										<path fill="#B45824" d="M37.8,61.8c-0.2-0.3-0.6-0.9-0.5-0.2C37.5,61.4,37.7,62.3,37.8,61.8z"/>
										<path fill="#B45824" d="M35.9,62l0.6,0.2c0.4,0.7-0.1,0.3-0.1,0.7c0.4,0,0.2-0.2,0.3-0.8c0.1,0,0.1-0.5,0.2-0.7
											C36.6,62.2,35.7,60.4,35.9,62z"/>
										<polygon fill="#B45824" points="37.2,62.3 37.1,62 37,62.3 										"/>
										<path fill="#B45824" d="M34.5,61.7c-0.7-0.7-0.2,0.8-0.8,0.6c0-0.1-0.1-0.1,0-0.3l-0.2,0.2L33.3,62
											c0.3,0.5,0.1,0.8,0.3,1.3c0.6,0.4-0.2-0.7,0.3-0.2c0.1,0.3,0.2,0.6,0.3,0.9c0-0.3-0.1-0.7-0.2-1c0.1-0.1,0.2,0.2,0.4,0.4
											c0-0.4-0.4-1.2,0-1.1c0.4,0.4,0.3,0.8,0.5,0.4c-0.6-0.7,0.4,0,0.2-0.6c0.3,0,0.7,0.5,0.8,0.8c-0.3-0.6-0.4-1.3-0.3-1.6
											L35.5,62L35,61.3C34.9,61.7,34.7,61.8,34.5,61.7L34.5,61.7z"/>
										<path fill="#B45824" d="M34.2,64c0,0.1,0,0.1,0,0.2C34.2,64.1,34.2,64.1,34.2,64z"/>
										<polygon fill="#B45824" points="36.1,63 36.1,63.2 36.2,63.4 										"/>
										<path fill="#B45824" d="M34.3,64.6c0.1,0-0.1-0.3-0.1-0.3l0.1,0.4L34.3,64.6z"/>
										<polygon fill="#B45824" points="33.8,64.3 33.5,63.9 33.6,64.3 										"/>
										<path fill="#B45824" d="M28.4,67c0.3,0.2,0-0.3-0.2-0.7C27.9,66.3,28.5,66.7,28.4,67z"/>
										<path fill="#B45824" d="M25.5,69.5c0.4,0.2,0.2-0.4,0.4-0.4C25.6,68.9,25.5,69.1,25.5,69.5z"/>
										<path fill="#B45824" d="M25.3,71.9c-0.1-0.2-0.1-0.3-0.2-0.3l-0.4-1C24.2,70.5,25,71.6,25.3,71.9z"/>
										<path fill="#B45824" d="M24,73l0-0.5l-0.1,0.1c-0.2-0.4-0.3-0.6-0.4-0.9C23.4,72,23.5,72.4,24,73z"/>
										<path fill="#B45824" d="M23.6,71.4c0,0,0,0.1,0,0.1C23.6,71.6,23.7,71.7,23.6,71.4z"/>
										<path fill="#B45824" d="M23.4,71.6c0,0,0,0.1,0,0.1C23.5,71.6,23.5,71.6,23.4,71.6C23.4,71.4,23.4,71.4,23.4,71.6z"/>
										<path fill="#B45824" d="M23.5,72.7l-0.3,0.4l0.3,0C23.1,72.6,23.9,73.3,23.5,72.7z"/>
										<path fill="#B45824" d="M21.2,73.9l-0.4-0.4c-0.3,0.1,0.2,1.4-0.6,0.8c0.4,0.2,0.2,0.7,0.7,0.6
											C20.6,74.3,20.9,74,21.2,73.9z"/>
										<path fill="#B45824" d="M19.7,74c-0.1-0.2-0.2-0.2-0.4-0.3c-0.1,0,0,0.3,0.2,0.5C19,73.5,19.9,74.5,19.7,74z"/>
										<path fill="#B45824" d="M18.5,75c0.1-0.1,0.1-0.2-0.1-0.2c-0.2,0.2,0.3,0.7,0.5,1.1C19.4,76,18.9,75.2,18.5,75z"/>
										<path fill="#B45824" d="M13.9,72.9c0.4,0.4,0.5,0.2,0.4,0C14.3,73.1,14.1,73,13.9,72.9z"/>
										<polygon fill="#B45824" points="16.7,76.4 16.8,76.4 16.4,75.7 										"/>
										<polygon fill="#B45824" points="15.6,77.8 15.7,78.4 15.9,78.1 										"/>
										<path fill="#B45824" d="M15.2,77.9L15,78.1l0.2,0.1C15.4,78.3,15.2,78,15.2,77.9z"/>
										<path fill="#B45824" d="M14.6,78.6c0-0.1,0.1,0,0.1,0l0-0.4L14.6,78.6z"/>
										<path fill="#B45824" d="M9.1,77.9c-0.1-0.5-0.2-0.1-0.3-0.2C8.9,77.8,9.2,78.4,9.1,77.9z"/>
									</g>
								</g>
							</g>
						</g>
					</g>
					<g>
						<g>
							<g>
								<g>
									<g>
										<path fill="#B45824" d="M30.7,82.6c0-0.1,0-0.2-0.1-0.3C30.6,82.3,30.7,82.4,30.7,82.6z"/>
										<path fill="#B45824" d="M22.8,88.7C22.8,88.8,22.8,88.8,22.8,88.7L22.8,88.7L22.8,88.7z"/>
										<path fill="#B45824" d="M22.9,88.8l0.1,0.3C23,88.9,23,88.9,22.9,88.8z"/>
										<path fill="#B45824" d="M30.2,80.4c0-0.1,0-0.3,0-0.5L30.2,80.4z"/>
										<path fill="#B45824" d="M28.6,80c0,0-0.1-0.1-0.1-0.1C28.5,80,28.6,80,28.6,80z"/>
										<path fill="#B45824" d="M38.6,78.2c0,0,0,0.1,0,0.1C38.6,78.3,38.6,78.2,38.6,78.2z"/>
										<path fill="#B45824" d="M38.9,77.4c0.1,0,0.1,0,0.1-0.1l0-0.1C39,77.2,38.9,77.3,38.9,77.4z"/>
										<path fill="#B45824" d="M38.5,77.2l0.1-0.1C38.5,77.1,38.5,77.1,38.5,77.2z"/>
										<path fill="#B45824" d="M40.8,71.8l-0.1-0.3C40.7,71.6,40.8,71.7,40.8,71.8z"/>
										<path fill="#B45824" d="M38.7,78.6c0-0.1,0-0.2,0-0.3C38.6,78.4,38.5,78.5,38.7,78.6z"/>
										<path fill="#B45824" d="M30.8,82.7c0-0.1,0-0.1-0.1-0.1C30.8,82.6,30.8,82.7,30.8,82.7z"/>
										<path fill="#B45824" d="M30.8,80L30.8,80C30.7,80.1,30.8,80.1,30.8,80z"/>
										<path fill="#B45824" d="M20.1,91.5c-0.1,0.1-0.1,0.2-0.1,0.3C20.1,91.7,20.2,91.6,20.1,91.5z"/>
										<path fill="#B45824" d="M36.1,79c-0.6-0.7,0.3-0.2-0.2-1c-0.1,0.3-0.1,0.5-0.4,0.1c-0.1-0.5,0.4-0.2,0-0.9l-0.1,0.4
											c-0.4-0.2-0.5-0.9-0.6-0.7c0.4,1-0.9,0.1-1.1,0.4l0-0.1L33.1,77c0,0,0,0,0,0c0,0.1,0.1,0.1,0.1,0.2
											c-0.4-0.3-0.9-0.5-1.1-0.2c0.2,0.6-0.8,0.8-0.6,1.3c0-0.2,0.1-0.3,0.4-0.3l0.4,0.6c-0.3,0.2-0.4-0.5-0.4,0
											c0.6,0.8,0.4-0.3,0.6-0.3c0.1,0.2,0.1,0.5,0,0.6c0.4-0.2,0.9-0.2,0.7-1.2c0.2,0.1,0.4,0.5,0.4,0.6c0-0.7,0.5,0.3,0.4-0.3
											c0.4,0.8-0.3,0.8-0.2,1.4c-0.8-0.4-0.8,0.5-1.1,0.9c-0.4-0.5-0.5-1.2-0.8-1.4c-0.6-0.1-0.2,0.6-0.2,1
											c-0.4,0-0.7-0.9-1.1-0.6l0-0.5c-0.8-0.6,0,0.5-0.3,0.5c0.2,0.2,0.4,0.3,0.5,0.2c0.2,0.3,0.2,0.5,0.1,0.6l0.1,0
											c0.2,0.4,0.5,0.9,0.1,0.9c-0.2-0.6-0.5-0.2-0.7-0.3l0-0.1c-0.1,0.3-0.3,0.4-0.4,0.6l-0.1-0.1c0,0.3,0.4,0.9,0.1,0.9
											c-0.2-0.2-0.4-1-0.5-0.8c-0.2-0.4,0-0.6,0.3-0.6c-0.3,0-0.8-0.4-0.6-0.7c-0.4-0.4-0.1,0.4-0.4,0.3
											c0.1,0.1,0.2,0.3,0.3,0.4c-0.4-0.6-0.5,0.3-0.2,0.7l0-0.5c0.4,0.4,0.3,1,0.6,1.2c-0.7-0.6-0.4,0.9-1,0.4l0.4,0.3
											c-0.7,0.2-0.4,1.3-0.7,1.9c0-0.4-0.7-1.1-0.1-1.1c-0.6,0.2-0.8-0.6-1.3-0.9c-0.6,0,0.4,0.9,0.5,1.2l0.1-0.3
											c0.4,1.1-1.1,0.6-1.1,1.6c-0.2-0.2,0-0.2,0-0.4C25.5,84.2,26,84.7,26,85c-0.3,0.1-0.7,0.2-1.1-0.5
											c-0.4,0.1,0.3,0.3,0.4,0.6l-0.2-0.1l0.3,0.8c-0.4,0-0.9,0-1.5-0.4c-0.4,0.6,1,1.4,0.8,1.9c-0.5-0.1-0.3-0.4-0.5-0.7
											l-0.3,0.4c-0.4-0.7,0.1-0.7-0.6-1.3c0.4,1-0.2,0.5-0.1,1.3l0.1,0c0.3,0.6-0.4,0.6-0.5,0.9c-0.2-0.4,0-0.6,0.1-0.9
											c-0.5,0-0.8,0.8-0.5,1.6c-0.2,0-0.8,0.1-0.8-0.4c-0.6,0.4,0.6,1.1,0,1.3l-0.4-0.5c-1.1-0.2-0.4,1.4-1.4,1.2l0.5,0.6
											c-0.3-0.2-0.6-0.1-0.9-0.3l0.1-0.4c-0.6-0.3,0.2,0.7-0.3,0.5c0.2,0.2,0.7,0.4,0.9,0.6c0.7-1.2,2.4-1.2,2.8-2.7
											c-0.1,0-0.2-0.1-0.3-0.2c0.2,0,0.3-0.3,0.5,0l0,0.1c0.1-0.4,1,0.1,1.1,0c-0.3-0.5,0.7-0.3-0.1-0.9l0.6,0.3
											c-0.2-0.3-0.5-0.6-0.5-0.8c0.2-0.1,0.5,0.2,0.5,0.4c0.9-0.4,1.6-1.1,2-1.9l0.1,0.5c0.3,0,0.1-1.1,0.7-0.2
											c0-0.6,1.1-0.6,0.3-1.4c0.9,0.6,1.1-0.3,1.4-0.8c-0.7-0.7,0.2-0.5,0-1c0.5,0.5,0.1,0.9,0.4,1.3c-0.3-1.3,1.8-0.4,0.8-2.1
											c0.1,0,0.2,0.1,0.2,0.2c0.1-0.1,0.4,0.1,0.6,0.1c-0.1-0.3-0.4-0.3-0.3-0.5c0.2-0.1,0.4,0.4,0.7,0.6
											c0.1-0.6,0.5-1.2,0.1-1.8c0.2,0.1,0.6,0.4,0.6,0.6c0.2-0.9,0.6-0.3,0.9-1c-0.2,0.2,0.4,0.7-0.1,0.7
											c0.9,0.7,0.8-0.8,1.5-0.6l-0.2-0.7c0.2-0.3,0.6,0.3,0.5,0.6c0.7,0,0.7-0.5,1.1-0.7c0.1,0.1,0.1,0.2,0,0.2l0.5-0.3
											c0-0.2,0-0.6-0.3-0.9C36.5,78.7,36.5,79,36.1,79z"/>
										<path fill="#B45824" d="M36.4,78.3L36.4,78.3L36.4,78.3C36.3,78.3,36.3,78.3,36.4,78.3z"/>
										<path fill="#B45824" d="M29.8,79.1c0.2,0.1,0.2,0.1,0.3,0.1C30.1,79.2,30,79.2,29.8,79.1z"/>
										<path fill="#B45824" d="M40.9,74.2c-0.6-0.9-0.3,0.3-0.6,0.2c0.2-0.3-0.2-0.8-0.4-1c0.4,1.4-0.5,0-0.9,0.5
											c-0.2-0.4,0-0.6-0.2-1c-0.1,0.5-0.5,0.9-0.2,1.6c-0.5,0.3-1,0.3-1.2,0.5c0.2-0.5-0.3-0.7-0.4-1.4c0.1,1-0.2,2.4-0.1,3.6
											c-0.5-0.7-0.6-0.7-0.9-1.4c-0.9-0.1,0.2,0.8-0.4,0.9l0.3,0c-0.1,0.4,0.3,1.1,0.5,1.6l0.6-0.5c0.3,0.5-0.1,0.7-0.2,0.9
											c0.2,0.7,0.6,0.2,0.8,0.7c-0.2-0.4,0.2-0.5,0.2-0.7l0.2,0.2c0.5,0.1,0.2-0.7,0.5-0.8c0.1,0.1,0.1,0.1,0.1,0.2
											c-0.1-0.4-0.2-0.8-0.1-1l-0.1,0.1c-0.2-0.8,0.2-1.5-0.6-2l0.8-0.2c0.3,0.7,0.8,1.9,0.5,2.2l0.1,0.3c0.5,0.2,0.5-1-0.1-1.5
											c-0.7-1.9,1-0.6,1.1-1.6c0.3,0.4,0.1,0.8,0.2,1.2c-0.1,0.1-0.2,0.2-0.4-0.2c-0.5,0.6,1,1.4,0.2,1.6c-0.5,0,0-1-0.6-0.8
											l0.4,1.5c0.3-0.2,0.4-0.6,0.6-0.9c0.9-1.7,2.3-1.4,2.3-1.4c0,0,0.4-0.2,0.9-0.6c0.6-0.3,1.3-0.8,2.1-1.2
											c0.8-0.4,1.5-0.9,2.1-1.1c0.6-0.3,1-0.5,1-0.5c0.6-0.5,0.9-0.5,0.7-2c-0.2-0.2-0.6,0.1-0.7-0.5c0.1,0.5-0.1,0.9-0.4,1
											c-0.2-0.5,0.2-0.4,0.1-0.5l-0.1,0c-0.1-0.3-0.1-0.5,0.1-0.5c-0.7-0.6-1.5-0.1-1.4,0.9c-0.5-0.4-0.1-0.9-0.1-1.3
											c-1.4,0.1-2.1,0.6-3.4,1.1c0.4,0.9,0.1,0.6,0.2,1.3l-0.2-0.3c0.1,0.1,0.2,0.8,0.6,0.9c-1-0.4-0.2,1.5-0.5,2.1l-0.2-0.5
											c-0.3,0.3-0.4,0.3-0.6,0.7c-1-0.5,0.4-0.4-0.3-1.4l-0.1,0.3c-0.1-0.5-0.4-1.2-0.3-1.6c-0.2,1-1,0.1-1.3,1
											c-0.2-0.5,0.2-1.2,0.3-1.3c-0.2,0.1-0.4,0.6-0.7,0.2l0.3,0.6c-0.3,0.3-0.2-0.6-0.6-0.9C39.6,72,41.4,73.5,40.9,74.2z"/>
										<path fill="#B45824" d="M32.2,79.1c0.1,0,0.2-0.1,0.2-0.2C32.3,79,32.3,79,32.2,79.1z"/>
										<path fill="#B45824" d="M33.1,77c0-0.1-0.1-0.2-0.1-0.2C33,76.8,33,76.9,33.1,77z"/>
										<path fill="#B45824" d="M32.7,76.1c0.2,0.2,0.1,0.3,0.3,0.7C33,76.5,33.3,76.3,32.7,76.1z"/>
										<path fill="#B45824" d="M11.6,95.7c-0.1-0.1-0.3-0.6-0.5-0.8c-0.1-0.1-0.2-0.2-0.3-0.2c-0.1,0-0.1,0-0.1,0.1
											c0,0,0.3,0.2,0.4,0.7c0.1,0.2,0.1,0.4,0.1,0.6c0,0.1,0,0.2,0,0.2C11.2,96.3,11.6,95.8,11.6,95.7z"/>
										<path fill="#B45824" d="M9.7,96.2c0-0.1,0-0.2,0.1-0.4c0-0.1,0-0.2,0-0.3l0-0.1l0,0l0,0c0,0,0,0.1,0.1,0
											c-0.1,0.1-0.2,0.1-0.4,0.1l0.1,0l-0.2-1c-0.1,0.1-0.1,0.2-0.1,0.4l0.6-0.1c0,0.1,0,0.2,0,0.3l0,0.1c0,0,0,0,0,0.2
											C9.8,95.6,9.7,96,9.7,96.2z"/>
										<path fill="#B45824" d="M10.2,95.6l0,0.2C10.3,95.7,10.3,95.6,10.2,95.6z"/>
										<path fill="#B45824" d="M10.1,95.2l-0.2-0.7l-0.2,0.6l0.2,0c0.1,0.2,0.2,0.2,0.3,0.3l0-0.5C10.2,95.1,10.1,95.3,10.1,95.2
											z"/>
										<path fill="#B45824" d="M10.4,95c0-0.1-0.1-0.1-0.1-0.2C10.3,94.9,10.4,95,10.4,95z"/>
										<path fill="#B45824" d="M11.8,95.8c-0.2-0.2-0.2-0.6-0.3-0.8c-0.4-0.1,0,0.8-0.4,0.7c0.2-0.7-0.3-0.3-0.6-0.6
											c0.4,0.5,0.7,0.8,1.1,0.8l-0.2-0.4C11.6,95.4,11.6,95.6,11.8,95.8z"/>
										<path fill="#B45824" d="M13,93.9l0.1,0.7c-0.2-0.2-0.6,0-0.9-0.6c-0.1,0.2,0,0.4,0,0.6c-0.3-0.2-0.5-0.4-0.4,0.1
											c0.8,0,0.7,0.3,1.3,0.1c0.1,0.1,0,0.1-0.1,0.2l0.5,0.1C13.1,94.4,13.6,94.1,13,93.9z"/>
										<path fill="#B45824" d="M13.7,94c-0.2,0.2-0.1,0.8,0.3,1.1l0.3-0.8C14.1,94.4,14,94.6,13.7,94z"/>
										<path fill="#B45824" d="M14.1,93.8c0.3,0.2,0.9,0.7,0.7,0C14.5,94.1,14.2,93.2,14.1,93.8z"/>
										<path fill="#B45824" d="M16.3,92.9l-0.8,0c-0.6-0.6,0.1-0.4,0-0.8c-0.5,0.2-0.2,0.3-0.2,0.9c-0.2,0-0.1,0.5-0.1,0.8
											C15.5,92.9,16.7,94.5,16.3,92.9z"/>
										<polygon fill="#B45824" points="14.8,93 15,93.3 15.1,92.9 										"/>
										<path fill="#B45824" d="M18.1,92.7c0.9,0.5,0.2-0.9,0.8-0.9c0,0.1,0.1,0.1,0.1,0.3l0.2-0.3l0.2,0.2
											c-0.4-0.4-0.3-0.9-0.4-1.3c-0.7-0.2,0.3,0.7-0.4,0.4c-0.1-0.3-0.3-0.6-0.4-0.8c0,0.4,0.2,0.7,0.3,1
											c-0.1,0.2-0.3-0.1-0.5-0.3c0,0.4,0.6,1.1,0.1,1.2c-0.5-0.2-0.4-0.7-0.6-0.3c0.8,0.6-0.5,0.2-0.2,0.8
											c-0.4,0.1-0.9-0.2-1.1-0.5c0.5,0.6,0.6,1.2,0.5,1.6l0.1-0.8l0.7,0.5C17.6,92.8,17.8,92.7,18.1,92.7L18.1,92.7z"/>
										<path fill="#B45824" d="M18.2,90.2c0-0.1,0-0.1,0-0.2C18.1,90,18.1,90.1,18.2,90.2z"/>
										<polygon fill="#B45824" points="16.1,91.9 16.1,91.7 15.8,91.6 										"/>
										<path fill="#B45824" d="M18,89.6c-0.1,0,0.1,0.3,0.2,0.2L18,89.4L18,89.6z"/>
										<polygon fill="#B45824" points="18.6,89.7 19.1,90 18.9,89.6 										"/>
										<path fill="#B45824" d="M24.6,84.8c-0.4,0,0,0.4,0.3,0.7C25.3,85.3,24.6,85.1,24.6,84.8z"/>
										<path fill="#B45824" d="M27.9,81c-0.5-0.1-0.3,0.5-0.5,0.7C27.7,81.7,27.9,81.3,27.9,81z"/>
										<path fill="#B45824" d="M28.3,78.1c0.1,0.2,0,0.3,0.2,0.3l0.4,1C29.5,79.4,28.6,78.4,28.3,78.1z"/>
										<path fill="#B45824" d="M30.3,76.5l-0.1,0.5l0.2-0.1c0.2,0.4,0.2,0.6,0.3,1C30.7,77.6,30.7,77.1,30.3,76.5z"/>
										<path fill="#B45824" d="M30.4,78.3c0,0,0.1-0.1,0.1-0.1C30.4,78.1,30.3,78,30.4,78.3z"/>
										<path fill="#B45824" d="M30.6,78c0,0,0-0.1,0-0.1c0,0.1-0.1,0.2-0.1,0.2C30.6,78.2,30.7,78.2,30.6,78z"/>
										<path fill="#B45824" d="M30.8,76.8l0.5-0.5l-0.3,0C31.3,76.8,30.5,76.1,30.8,76.8z"/>
										<path fill="#B45824" d="M34.1,75.2l0.4,0.5c0.4-0.1,0.2-1.5,0.9-0.8c-0.4-0.2-0.1-0.8-0.6-0.7
											C34.9,74.8,34.4,75.2,34.1,75.2z"/>
										<path fill="#B45824" d="M35.9,75.1c0,0.2,0.2,0.2,0.3,0.4c0.2,0,0.2-0.3,0-0.5C36.5,75.8,35.8,74.6,35.9,75.1z"/>
										<path fill="#B45824" d="M37.6,74.1c-0.1,0.1-0.2,0.2,0,0.3c0.3-0.2-0.1-0.8-0.2-1.2C37,72.9,37.2,73.9,37.6,74.1z"/>
										<path fill="#B45824" d="M42.3,76.7c-0.3-0.5-0.5-0.2-0.5,0C41.9,76.5,42.1,76.5,42.3,76.7z"/>
										<polygon fill="#B45824" points="40.3,72.7 40.1,72.7 40.4,73.4 										"/>
										<polygon fill="#B45824" points="42.1,71.3 42.1,70.7 41.8,71 										"/>
										<path fill="#B45824" d="M42.5,71.2l0.3-0.2l-0.2-0.1C42.4,70.8,42.6,71.2,42.5,71.2z"/>
										<path fill="#B45824" d="M43.5,70.6c0,0.1-0.1,0-0.1-0.1L43.2,71L43.5,70.6z"/>
										<path fill="#B45824" d="M50.2,71.5c0.1,0.5,0.3,0.1,0.4,0.2C50.6,71.5,50.2,70.9,50.2,71.5z"/>
									</g>
								</g>
							</g>
						</g>
					</g>
					<g>
						<g>
							<g>
								<g>
									<g>
										<path fill="#B45824" d="M36.5,95.5c0-0.1-0.1-0.2-0.1-0.2C36.4,95.3,36.4,95.4,36.5,95.5z"/>
										<path fill="#B45824" d="M30.5,101.2C30.5,101.2,30.5,101.2,30.5,101.2L30.5,101.2L30.5,101.2z"/>
										<path fill="#B45824" d="M30.5,101.2l0.2,0.3C30.7,101.3,30.6,101.3,30.5,101.2z"/>
										<path fill="#B45824" d="M35.6,93.6c0-0.1,0-0.2-0.1-0.4L35.6,93.6z"/>
										<path fill="#B45824" d="M34.1,93.3c0,0-0.1-0.1-0.1-0.1C34,93.2,34.1,93.2,34.1,93.3z"/>
										<path fill="#B45824" d="M42.5,91.1c0,0,0,0.1,0.1,0.1C42.5,91.2,42.5,91.2,42.5,91.1z"/>
										<path fill="#B45824" d="M42.6,90.4c0,0,0.1,0,0.1-0.1l0-0.1C42.6,90.2,42.6,90.3,42.6,90.4z"/>
										<path fill="#B45824" d="M42.2,90.2l0.1-0.1C42.2,90.1,42.2,90.2,42.2,90.2z"/>
										<path fill="#B45824" d="M42.9,85l-0.2-0.3C42.8,84.8,42.9,84.9,42.9,85z"/>
										<path fill="#B45824" d="M42.6,91.5c0-0.1-0.1-0.2-0.1-0.3C42.5,91.3,42.5,91.4,42.6,91.5z"/>
										<path fill="#B45824" d="M36.6,95.7c0,0-0.1-0.1-0.1-0.1C36.6,95.6,36.6,95.6,36.6,95.7z"/>
										<path fill="#B45824" d="M36,93.2L36,93.2C36,93.3,36,93.3,36,93.2z"/>
										<path fill="#B45824" d="M28.5,103.7c0,0.1-0.1,0.2-0.1,0.3C28.7,103.8,28.6,103.7,28.5,103.7z"/>
										<path fill="#B45824" d="M40.5,92c-0.7-0.6,0.2-0.2-0.4-0.9c0,0.3,0,0.4-0.3,0.1c-0.2-0.5,0.3-0.2-0.2-0.8l0,0.4
											c-0.4-0.2-0.6-0.8-0.7-0.6c0.6,0.9-0.8,0.2-0.8,0.4l0-0.1l-0.6-0.1c0,0,0,0,0,0c0,0,0.1,0.1,0.1,0.2
											c-0.5-0.3-0.9-0.4-1-0.1c0.3,0.5-0.5,0.8-0.3,1.2c0-0.2,0-0.3,0.3-0.3l0.5,0.5c-0.2,0.2-0.5-0.5-0.4,0
											c0.7,0.7,0.3-0.3,0.5-0.3c0.1,0.2,0.2,0.4,0.2,0.6c0.3-0.2,0.8-0.2,0.3-1.1c0.2,0.1,0.5,0.4,0.5,0.5
											c-0.2-0.6,0.5,0.3,0.3-0.3c0.6,0.7-0.1,0.7,0.1,1.3c-0.7-0.3-0.6,0.5-0.8,0.9c-0.5-0.5-0.7-1.1-1.1-1.2
											c-0.6-0.1,0,0.5,0.1,0.9c-0.4,0-0.8-0.8-1.1-0.5l-0.1-0.5c-0.8-0.5,0.1,0.4-0.2,0.4c0.2,0.1,0.4,0.3,0.5,0.1
											c0.3,0.2,0.2,0.4,0.2,0.5l0.1,0c0.3,0.4,0.6,0.8,0.2,0.8c-0.3-0.5-0.4-0.1-0.7-0.3l0-0.1c0,0.3-0.2,0.4-0.2,0.5L35.3,94
											c0.1,0.3,0.5,0.8,0.3,0.8c-0.2-0.2-0.5-0.9-0.6-0.7c-0.3-0.3-0.1-0.5,0.1-0.6c-0.3,0-0.8-0.4-0.7-0.6
											c-0.4-0.3,0,0.3-0.3,0.3c0.1,0.1,0.2,0.3,0.4,0.4c-0.5-0.5-0.4,0.3-0.1,0.7l-0.1-0.5c0.4,0.4,0.5,0.9,0.8,1
											c-0.7-0.5-0.2,0.8-0.8,0.4l0.4,0.3c-0.6,0.2-0.1,1.2-0.3,1.8c-0.1-0.3-0.8-1-0.3-1c-0.5,0.2-0.8-0.6-1.3-0.8
											c-0.5,0,0.5,0.8,0.7,1.1l0.1-0.3c0.6,1-0.9,0.6-0.7,1.5c-0.2-0.2-0.1-0.2-0.1-0.3c-0.6-0.2-0.1,0.3,0,0.5
											c-0.2,0.1-0.6,0.2-1.1-0.4C31.3,97.5,32,97.7,32,98l-0.2-0.1l0.4,0.8c-0.3,0-0.8,0-1.4-0.4c-0.3,0.5,1.1,1.2,1,1.7
											c-0.4-0.1-0.4-0.4-0.6-0.6l-0.2,0.3c-0.5-0.6,0-0.6-0.7-1.2c0.5,0.9-0.1,0.5,0.1,1.2l0.1,0c0.4,0.6-0.2,0.6-0.3,0.8
											c-0.2-0.3-0.1-0.6-0.1-0.8c-0.4,0-0.6,0.7-0.1,1.4c-0.2,0-0.7,0.1-0.8-0.3c-0.5,0.3,0.8,1,0.3,1.1l-0.5-0.4
											c-1-0.2,0,1.3-1,1.1l0.6,0.5c-0.3-0.1-0.6-0.1-0.8-0.2l0-0.4c-0.6-0.3,0.3,0.6-0.2,0.5c0.2,0.2,0.7,0.3,0.9,0.5
											c0.3-1.1,1.8-1.1,1.9-2.4c-0.1,0-0.2-0.1-0.3-0.2c0.2,0,0.2-0.3,0.5,0l0,0.1c0-0.3,0.9,0.1,1,0c-0.3-0.4,0.5-0.3-0.2-0.8
											l0.5,0.2c-0.2-0.3-0.6-0.5-0.6-0.7c0.2-0.1,0.5,0.1,0.5,0.4c0.7-0.3,1.2-1,1.5-1.7l0.2,0.4c0.3,0-0.1-1,0.6-0.1
											c-0.1-0.6,0.9-0.5,0.1-1.3c1,0.6,0.9-0.3,1.2-0.8c-0.8-0.6,0.1-0.5-0.1-0.9c0.6,0.5,0.3,0.8,0.6,1.2
											c-0.5-1.2,1.6-0.4,0.4-1.9c0.1,0,0.2,0.1,0.2,0.1c0.1-0.1,0.4,0.1,0.5,0.1c-0.2-0.3-0.5-0.2-0.4-0.5
											c0.2-0.1,0.5,0.4,0.7,0.5c-0.1-0.6,0.2-1.1-0.3-1.7c0.2,0.1,0.6,0.3,0.6,0.5c0-0.8,0.5-0.3,0.6-1
											c-0.1,0.2,0.5,0.7,0.1,0.6c0.9,0.6,0.5-0.7,1.2-0.6l-0.3-0.6c0.1-0.3,0.6,0.2,0.6,0.5c0.6,0,0.5-0.5,0.8-0.7
											c0.1,0,0.2,0.2,0.1,0.2l0.4-0.3c-0.1-0.2-0.2-0.6-0.5-0.9C40.8,91.7,40.9,92,40.5,92z"/>
										<path fill="#B45824" d="M40.6,91.4L40.6,91.4L40.6,91.4C40.5,91.3,40.6,91.4,40.6,91.4z"/>
										<path fill="#B45824" d="M35,92.4c0.2,0.1,0.2,0.1,0.3,0.1C35.2,92.5,35.1,92.4,35,92.4z"/>
										<path fill="#B45824" d="M43.5,87.3c-0.7-0.8-0.2,0.3-0.5,0.2c0.1-0.3-0.3-0.7-0.6-0.9c0.6,1.3-0.4,0-0.7,0.5
											c-0.3-0.3-0.1-0.6-0.4-1c0,0.4-0.2,0.9,0.2,1.5c-0.4,0.3-0.8,0.3-0.9,0.6c0.1-0.5-0.4-0.6-0.7-1.3
											c0.3,0.9,0.4,2.2,0.7,3.4c-0.6-0.6-0.7-0.6-1.1-1.3c-0.8,0,0.4,0.7-0.2,0.9l0.3-0.1c0,0.4,0.5,1,0.8,1.4l0.4-0.5
											c0.4,0.4,0,0.6,0.1,0.8c0.3,0.6,0.6,0.2,0.9,0.6c-0.2-0.4,0-0.5,0-0.7l0.2,0.2c0.4,0.1,0-0.6,0.2-0.8
											c0.1,0.1,0.1,0.1,0.1,0.1c-0.2-0.3-0.4-0.7-0.3-0.9l-0.1,0.1c-0.3-0.7-0.2-1.4-1-1.8l0.6-0.2c0.5,0.7,1.1,1.7,0.9,2
											l0.2,0.3c0.5,0.2,0.2-1-0.4-1.4c-1-1.7,0.7-0.7,0.6-1.6c0.4,0.4,0.3,0.7,0.4,1.1c-0.1,0.1-0.1,0.2-0.4-0.1
											c-0.3,0.6,1.1,1.2,0.5,1.5c-0.4,0-0.2-0.9-0.6-0.7l0.7,1.4c0.2-0.2,0.2-0.6,0.3-0.9c0.2-0.8,0.6-1.1,1-1.3
											c0.4-0.2,0.7-0.1,0.7-0.1c0,0,1.1-0.9,2.2-1.8c0.6-0.4,1.1-0.8,1.6-1.1c0.4-0.3,0.7-0.4,0.7-0.4c0.4-0.4,0.6-0.5,0.3-1.9
											c-0.2-0.2-0.5,0.1-0.6-0.4c0.2,0.5,0.1,0.9-0.2,1c-0.3-0.5,0.2-0.4,0-0.4l-0.1,0c-0.1-0.3-0.1-0.5,0-0.5
											c-0.7-0.6-1.3-0.1-1,0.9c-0.5-0.3-0.2-0.8-0.3-1.3c-1.2,0.1-1.7,0.6-2.7,1.1c0.5,0.8,0.2,0.6,0.5,1.2l-0.3-0.2
											c0.1,0.1,0.4,0.7,0.6,0.8c-0.9-0.3,0.1,1.4,0,2L46,86.9c-0.2,0.3-0.3,0.3-0.4,0.7c-1-0.5,0.3-0.4-0.5-1.3l0,0.2
											c-0.2-0.4-0.6-1.2-0.6-1.5c0,0.9-0.8,0.2-0.9,1c-0.3-0.5-0.1-1.1,0-1.3c-0.2,0.1-0.3,0.6-0.6,0.2l0.4,0.6
											c-0.2,0.3-0.3-0.5-0.7-0.8C42,85.3,43.9,86.6,43.5,87.3z"/>
										<path fill="#B45824" d="M37.1,92.3c0.1,0,0.2-0.1,0.2-0.2C37.2,92.2,37.1,92.2,37.1,92.3z"/>
										<path fill="#B45824" d="M37.4,90.3c-0.1-0.1-0.1-0.1-0.1-0.2C37.3,90.1,37.3,90.2,37.4,90.3z"/>
										<path fill="#B45824" d="M36.9,89.5c0.2,0.2,0.2,0.3,0.4,0.6C37.2,89.8,37.4,89.7,36.9,89.5z"/>
										<path fill="#B45824" d="M19.5,109.2c0.1,0.2,0.1,0.5,0.3,0.5l0-0.4L19.5,109.2z"/>
										<path fill="#B45824" d="M20.5,109.2l0.4-0.1l-0.6-0.7C20.1,108.7,20.7,108.9,20.5,109.2z"/>
										<path fill="#B45824" d="M21.4,108.9l0.1,0.2C21.5,109,21.5,108.9,21.4,108.9z"/>
										<path fill="#B45824" d="M21.1,108.6l-0.4-0.5l0.1,0.6l0.2,0c0.2,0.1,0.3,0.1,0.4,0.2l-0.3-0.4
											C21.2,108.5,21.2,108.6,21.1,108.6z"/>
										<path fill="#B45824" d="M21.3,108.3c-0.1,0-0.1-0.1-0.2-0.1C21.2,108.3,21.3,108.3,21.3,108.3z"/>
										<path fill="#B45824" d="M22.8,108.5c-0.2-0.1-0.4-0.5-0.6-0.6c-0.4,0.1,0.4,0.7,0,0.7c-0.1-0.7-0.4-0.1-0.8-0.3
											c0.5,0.3,1,0.5,1.3,0.4l-0.3-0.3C22.4,108.3,22.5,108.5,22.8,108.5z"/>
										<path fill="#B45824" d="M23,106.6l0.3,0.6c-0.3-0.2-0.5,0.1-1-0.3c0,0.2,0.2,0.4,0.2,0.6c-0.3-0.1-0.6-0.2-0.3,0.2
											c0.7-0.2,0.7,0.1,1.2-0.2c0.1,0.1,0,0.1,0,0.2l0.5,0C23.3,107.1,23.6,106.7,23,106.6z"/>
										<path fill="#B45824" d="M23.7,106.6c-0.1,0.2,0.2,0.7,0.6,0.9l0-0.8C24.2,106.8,24.1,107,23.7,106.6z"/>
										<path fill="#B45824" d="M23.9,106.3c0.3,0.1,1,0.4,0.6-0.1C24.4,106.5,23.8,105.7,23.9,106.3z"/>
										<path fill="#B45824" d="M25.6,105.2l-0.7,0.1c-0.7-0.5,0-0.4-0.2-0.7c-0.4,0.2-0.1,0.3,0.1,0.9c-0.1,0.1,0.1,0.5,0.2,0.8
											C24.9,105.3,26.4,106.5,25.6,105.2z"/>
										<polygon fill="#B45824" points="24.3,105.4 24.5,105.7 24.5,105.3 										"/>
										<path fill="#B45824" d="M27.1,104.8c1,0.4,0-0.8,0.5-0.8c0,0.1,0.1,0.1,0.1,0.2l0.1-0.3l0.2,0.1c-0.5-0.4-0.4-0.8-0.7-1.1
											c-0.7-0.2,0.5,0.6-0.2,0.4c-0.2-0.2-0.4-0.5-0.6-0.7c0.1,0.3,0.3,0.6,0.5,0.9c-0.1,0.2-0.3-0.1-0.5-0.2
											c0.1,0.4,0.8,0.9,0.4,1.1c-0.5-0.2-0.5-0.6-0.6-0.2c0.8,0.5-0.4,0.2,0,0.7c-0.3,0.1-0.9-0.1-1.1-0.4
											c0.6,0.5,0.9,1,0.9,1.3L26,105l0.8,0.4C26.6,105,26.8,104.9,27.1,104.8L27.1,104.8z"/>
										<path fill="#B45824" d="M26.5,102.6c0-0.1,0-0.1,0-0.2C26.4,102.4,26.5,102.5,26.5,102.6z"/>
										<polygon fill="#B45824" points="25.1,104.3 25,104.1 24.8,104 										"/>
										<path fill="#B45824" d="M26.2,102c-0.1,0,0.1,0.2,0.2,0.2l-0.2-0.3L26.2,102z"/>
										<polygon fill="#B45824" points="26.8,102.1 27.3,102.3 27.1,102 										"/>
										<path fill="#B45824" d="M31.4,97.6c-0.4,0,0.1,0.3,0.4,0.6C32.1,98.1,31.4,97.9,31.4,97.6z"/>
										<path fill="#B45824" d="M33.6,94.2c-0.4-0.1-0.2,0.4-0.3,0.6C33.7,94.8,33.7,94.5,33.6,94.2z"/>
										<path fill="#B45824" d="M33.5,91.5c0.1,0.2,0.1,0.3,0.2,0.3l0.6,0.9C34.8,92.7,33.8,91.8,33.5,91.5z"/>
										<path fill="#B45824" d="M34.8,90l0,0.5l0.1-0.1c0.2,0.4,0.3,0.5,0.5,0.9C35.5,91,35.3,90.5,34.8,90z"/>
										<path fill="#B45824" d="M35.4,91.6c0,0,0-0.1,0-0.1C35.3,91.4,35.2,91.3,35.4,91.6z"/>
										<path fill="#B45824" d="M35.5,91.4c0,0,0-0.1-0.1-0.1C35.4,91.4,35.4,91.4,35.5,91.4C35.5,91.6,35.6,91.6,35.5,91.4z"/>
										<path fill="#B45824" d="M35.3,90.2l0.3-0.5l-0.3,0C35.8,90.2,34.9,89.7,35.3,90.2z"/>
										<path fill="#B45824" d="M37.9,88.6l0.5,0.4c0.4-0.1-0.2-1.5,0.6-0.8c-0.4-0.2-0.2-0.7-0.7-0.6
											C38.5,88.2,38.1,88.6,37.9,88.6z"/>
										<path fill="#B45824" d="M39.4,88.4c0.1,0.2,0.2,0.2,0.4,0.3c0.1,0,0.1-0.3-0.2-0.5C40.1,89,39.2,88,39.4,88.4z"/>
										<path fill="#B45824" d="M40.7,87.4c-0.1,0.1-0.1,0.2,0.1,0.2c0.2-0.2-0.3-0.7-0.4-1.2C39.9,86.3,40.3,87.2,40.7,87.4z"/>
										<path fill="#B45824" d="M45.3,89.5c-0.3-0.4-0.5-0.2-0.4,0C44.9,89.4,45.1,89.4,45.3,89.5z"/>
										<polygon fill="#B45824" points="42.7,85.9 42.6,85.9 43,86.6 										"/>
										<polygon fill="#B45824" points="44,84.5 43.9,83.9 43.6,84.2 										"/>
										<path fill="#B45824" d="M44.4,84.4l0.2-0.2l-0.2-0.1C44.2,84,44.4,84.3,44.4,84.4z"/>
										<path fill="#B45824" d="M45.1,83.8c0,0.1-0.1,0-0.1-0.1l0,0.5L45.1,83.8z"/>
										<path fill="#B45824" d="M50.9,84.4c0.2,0.5,0.3,0.1,0.4,0.2C51.2,84.5,50.8,83.9,50.9,84.4z"/>
									</g>
								</g>
							</g>
						</g>
					</g>
				</g>
			</g>
			<g display="inline">
				<defs>
					<path id="SVGID_15_" d="M116.8,51.1c-18.9,0.7-33.4,28.3-29,41.4c4.6,13.5,23.2,28.7,36.5,24c17.7-6.2,30.5-16.4,28.3-33.9
						C150.5,65.7,135.7,50.3,116.8,51.1z"/>
				</defs>
				<clipPath id="SVGID_4_">
					<use xlink:href="#SVGID_15_"  overflow="visible"/>
				</clipPath>
				<g opacity="0.7" clip-path="url(#SVGID_4_)">
					<g>
						<g>
							<g>
								<g>
									<g>
										<path fill="#B45824" d="M115.7,105.3c0.1,0,0.2-0.1,0.2-0.1C115.9,105.2,115.9,105.2,115.7,105.3z"/>
										<path fill="#B45824" d="M110.3,99.5C110.3,99.5,110.3,99.5,110.3,99.5L110.3,99.5L110.3,99.5z"/>
										<path fill="#B45824" d="M110.2,99.5l-0.3,0.2C110.1,99.7,110.2,99.6,110.2,99.5z"/>
										<path fill="#B45824" d="M117.6,104.2c0.1,0,0.2-0.1,0.4-0.2L117.6,104.2z"/>
										<path fill="#B45824" d="M117.8,102.7c0,0,0.1-0.1,0.1-0.1C117.9,102.6,117.8,102.7,117.8,102.7z"/>
										<path fill="#B45824" d="M121.3,110.3C121.3,110.3,121.3,110.3,121.3,110.3C121.3,110.3,121.3,110.3,121.3,110.3z"/>
										<path fill="#B45824" d="M122.1,110.1c0,0,0.1,0.1,0.1,0.1l0-0.1C122.2,110.1,122.1,110.1,122.1,110.1z"/>
										<path fill="#B45824" d="M122.1,109.7l0.1,0C122.2,109.7,122.2,109.7,122.1,109.7z"/>
										<path fill="#B45824" d="M127.1,108.6l0.2-0.2C127.2,108.5,127.2,108.6,127.1,108.6z"/>
										<path fill="#B45824" d="M121,110.5c0.1,0,0.1-0.1,0.2-0.2C121.2,110.4,121.1,110.4,121,110.5z"/>
										<path fill="#B45824" d="M115.6,105.4c0,0,0.1-0.1,0.1-0.1C115.7,105.3,115.6,105.4,115.6,105.4z"/>
										<path fill="#B45824" d="M118,104.6L118,104.6C117.9,104.5,117.9,104.6,118,104.6z"/>
										<path fill="#B45824" d="M108,97.5c-0.1,0-0.2-0.1-0.2-0.1C107.8,97.7,107.9,97.6,108,97.5z"/>
										<path fill="#B45824" d="M120,108.6c0.4-0.8,0.3,0.1,0.7-0.6c-0.2,0.1-0.4,0.1-0.2-0.3c0.4-0.4,0.2,0.2,0.7-0.4l-0.4,0.1
											c0.1-0.4,0.6-0.8,0.4-0.8c-0.7,0.8-0.3-0.7-0.6-0.7l0.1,0l0-0.6c0,0,0,0,0,0c0,0-0.1,0.1-0.1,0.2c0.2-0.5,0.2-0.9-0.1-1
											c-0.4,0.4-0.8-0.3-1.2,0c0.2-0.1,0.3,0,0.3,0.2l-0.4,0.6c-0.2-0.2,0.4-0.6-0.1-0.3c-0.5,0.8,0.3,0.2,0.4,0.4
											c-0.2,0.1-0.4,0.3-0.5,0.3c0.3,0.2,0.3,0.7,1.1,0c0,0.2-0.3,0.5-0.4,0.6c0.5-0.3-0.2,0.6,0.3,0.3
											c-0.6,0.7-0.7,0.1-1.2,0.4c0.1-0.8-0.6-0.5-1-0.6c0.4-0.5,0.9-0.9,1-1.3c0-0.6-0.5,0.1-0.9,0.3c-0.1-0.3,0.6-0.9,0.4-1.2
											l0.4-0.2c0.4-0.9-0.4,0.2-0.4-0.1c-0.1,0.2-0.3,0.4-0.1,0.5c-0.2,0.3-0.4,0.3-0.5,0.3l0,0.1c-0.3,0.3-0.7,0.7-0.7,0.3
											c0.5-0.3,0.1-0.5,0.2-0.7l0.1,0c-0.3,0-0.4-0.2-0.5-0.2l0.1-0.1c-0.3,0.1-0.7,0.6-0.8,0.3c0.2-0.2,0.9-0.6,0.6-0.7
											c0.3-0.3,0.5-0.2,0.6,0.1c-0.1-0.2,0.3-0.8,0.5-0.7c0.3-0.5-0.3,0-0.3-0.2c-0.1,0.1-0.2,0.3-0.3,0.4
											c0.5-0.6-0.3-0.3-0.7,0l0.4-0.1c-0.4,0.5-0.8,0.5-1,0.8c0.5-0.8-0.8-0.1-0.4-0.8l-0.3,0.4c-0.2-0.6-1.2-0.1-1.7-0.3
											c0.3-0.1,1-0.8,1-0.3c-0.2-0.5,0.6-0.8,0.8-1.3c0-0.5-0.8,0.5-1.1,0.7l0.3,0.1c-1,0.6-0.5-0.8-1.4-0.7
											c0.2-0.2,0.2-0.1,0.3-0.1c0.2-0.6-0.2-0.1-0.5,0c-0.1-0.2-0.1-0.6,0.5-1.1c-0.1-0.3-0.3,0.3-0.5,0.4l0.1-0.2l-0.8,0.4
											c0-0.3,0-0.8,0.4-1.4c-0.5-0.2-1.2,1.1-1.7,1.1c0.1-0.4,0.4-0.4,0.6-0.6l-0.3-0.2c0.6-0.5,0.6,0,1.2-0.8
											c-0.8,0.5-0.5-0.1-1.2,0.2l0,0.1c-0.6,0.4-0.6-0.2-0.8-0.3c0.3-0.2,0.5-0.1,0.8-0.1c0-0.4-0.7-0.6-1.4-0.1
											c0-0.2,0-0.7,0.4-0.8c-0.3-0.4-1,0.8-1.1,0.3l0.4-0.5c0.3-1-1.3,0-1-1l-0.6,0.5c0.2-0.3,0.1-0.6,0.3-0.8l0.4,0
											c0.3-0.6-0.6,0.3-0.5-0.2c-0.2,0.2-0.4,0.7-0.6,0.9c1,0.4,1,1.8,2.3,1.9c0-0.1,0.1-0.2,0.2-0.3c0,0.2,0.2,0.2-0.1,0.5
											l-0.1,0c0.3,0-0.1,0.9,0,1c0.4-0.3,0.3,0.5,0.8-0.2l-0.3,0.5c0.3-0.2,0.5-0.6,0.7-0.6c0.1,0.2-0.2,0.4-0.4,0.5
											c0.3,0.7,0.9,1.2,1.6,1.4l-0.4,0.2c0,0.3,1-0.2,0.1,0.6c0.5-0.1,0.4,0.8,1.2,0c-0.6,0.9,0.2,0.9,0.7,1.1
											c0.6-0.7,0.5,0.1,0.9-0.1c-0.5,0.6-0.9,0.3-1.2,0.6c1.2-0.5,0.6,1.7,2,0.4c0,0.1,0,0.2-0.1,0.2c0.1,0.1,0,0.4,0,0.5
											c0.3-0.2,0.2-0.5,0.5-0.4c0.1,0.2-0.3,0.5-0.4,0.8c0.6-0.1,1.1,0.1,1.6-0.5c0,0.2-0.2,0.6-0.4,0.7
											c0.8-0.1,0.4,0.4,1.1,0.4c-0.2-0.1-0.6,0.6-0.6,0.2c-0.5,1,0.8,0.4,0.9,1.1l0.5-0.5c0.3,0-0.1,0.6-0.4,0.7
											c0.1,0.6,0.6,0.4,0.9,0.6c0,0.1-0.1,0.2-0.1,0.1l0.4,0.3c0.1-0.1,0.5-0.3,0.7-0.7C120.3,108.8,120.1,109,120,108.6z"/>
										<path fill="#B45824" d="M120.6,108.5L120.6,108.5L120.6,108.5C120.6,108.5,120.6,108.5,120.6,108.5z"/>
										<path fill="#B45824" d="M118.6,103.4c-0.1,0.2-0.1,0.3-0.1,0.3C118.6,103.6,118.6,103.5,118.6,103.4z"/>
										<path fill="#B45824" d="M125.2,110c0.5-0.9-0.3,0-0.4-0.4c0.3,0,0.6-0.6,0.7-0.8c-1,1-0.1-0.4-0.7-0.4
											c0.2-0.4,0.5-0.3,0.8-0.7c-0.4,0.1-0.8,0.1-1.3,0.7c-0.4-0.2-0.5-0.6-0.8-0.7c0.4-0.1,0.5-0.6,1-1
											c-0.8,0.6-1.9,1.1-2.9,1.8c0.4-0.7,0.4-0.8,0.9-1.4c-0.1-0.8-0.6,0.6-0.8,0.1l0.1,0.3c-0.3,0.1-0.8,0.7-1.2,1.2l0.6,0.2
											c-0.3,0.5-0.6,0.2-0.8,0.3c-0.5,0.5,0,0.6-0.4,1c0.3-0.3,0.4-0.1,0.7-0.2l-0.1,0.3c0.1,0.4,0.6-0.1,0.8,0
											c0,0.1-0.1,0.1-0.1,0.2c0.3-0.2,0.6-0.6,0.8-0.6l-0.1,0c0.6-0.5,1.3-0.6,1.4-1.5l0.4,0.5c-0.5,0.6-1.3,1.6-1.6,1.5
											l-0.2,0.3c0,0.5,1-0.1,1.2-0.8c1.3-1.5,0.8,0.4,1.6,0c-0.3,0.5-0.6,0.5-0.9,0.8c-0.1,0-0.2-0.1,0-0.4
											c-0.6-0.1-0.8,1.5-1.2,1c-0.1-0.4,0.8-0.5,0.4-0.8l-1.1,1.1c0.3,0.1,0.6,0.1,0.9,0c1.6-0.1,1.9,1,1.9,1
											c0,0,1.2,0.7,2.3,1.3c0.5,0.3,1.1,0.7,1.4,1c0.4,0.3,0.6,0.5,0.6,0.5c0.5,0.2,0.5,0.3,1.8-0.3c0.2-0.3-0.2-0.5,0.3-0.7
											c-0.5,0.3-0.8,0.3-1,0.1c0.4-0.4,0.4,0,0.4-0.1l0-0.1c0.2-0.2,0.4-0.2,0.5-0.2c0.4-0.8-0.3-1.2-1.2-0.6
											c0.2-0.6,0.7-0.5,1.1-0.7c-0.5-1-1.1-1.4-1.9-2.1c-0.6,0.7-0.4,0.4-0.9,0.8l0.1-0.3c-0.1,0.2-0.6,0.6-0.5,0.9
											c0-0.9-1.3,0.6-1.8,0.7l0.3-0.4c-0.3-0.1-0.4-0.2-0.8-0.1c0.1-1,0.4,0.1,1-0.9l-0.2,0.1c0.3-0.3,0.9-1,1.2-1.1
											c-0.9,0.4-0.4-0.7-1.2-0.5c0.4-0.4,1-0.5,1.2-0.5c-0.1-0.2-0.6,0-0.4-0.4l-0.4,0.5c-0.3-0.1,0.4-0.5,0.5-0.9
											C126.6,107.9,126,110,125.2,110z"/>
										<path fill="#B45824" d="M119,105.4c0,0.1,0.1,0.1,0.2,0.1C119.1,105.5,119.1,105.4,119,105.4z"/>
										<path fill="#B45824" d="M120.9,105.2c0.1-0.1,0.1-0.1,0.2-0.2C121,105.1,121,105.1,120.9,105.2z"/>
										<path fill="#B45824" d="M121.6,104.5c-0.1,0.3-0.2,0.2-0.5,0.5C121.3,104.9,121.5,105,121.6,104.5z"/>
										<path fill="#B45824" d="M105.1,88.3c-0.2,0-0.5,0-0.6,0l0.3,0.1L105.1,88.3z"/>
										<path fill="#B45824" d="M104.6,89.1l-0.1,0.4l0.9-0.3C105.2,88.9,104.7,89.3,104.6,89.1z"/>
										<path fill="#B45824" d="M104.5,89.9l-0.2,0C104.4,90,104.4,90,104.5,89.9z"/>
										<path fill="#B45824" d="M104.8,89.8l0.6-0.2l-0.6-0.1l-0.1,0.2c-0.2,0.1-0.2,0.2-0.3,0.3l0.5-0.1
											C104.9,89.8,104.8,89.8,104.8,89.8z"/>
										<path fill="#B45824" d="M105,90c0.1,0,0.1-0.1,0.2-0.1C105.1,89.9,105,90,105,90z"/>
										<path fill="#B45824" d="M104.3,91.3c0.2-0.2,0.6-0.3,0.8-0.4c0.1-0.4-0.8,0.1-0.6-0.2c0.7,0,0.3-0.3,0.6-0.6
											c-0.5,0.4-0.8,0.7-0.8,1l0.4-0.2C104.6,91,104.4,91.1,104.3,91.3z"/>
										<path fill="#B45824" d="M106,91.9l-0.6,0.2c0.2-0.2,0-0.5,0.6-0.9c-0.1,0-0.4,0.1-0.6,0.1c0.2-0.3,0.4-0.5,0-0.3
											c-0.1,0.7-0.3,0.6-0.2,1.1c-0.1,0.1-0.1,0-0.1-0.1l-0.1,0.5C105.5,92.1,105.8,92.4,106,91.9z"/>
										<path fill="#B45824" d="M105.9,92.5c-0.2-0.2-0.7,0.1-1,0.4c0,0,0.2,0,0.4,0.1c0.2,0,0.4,0.1,0.4,0.1
											C105.5,93,105.3,92.9,105.9,92.5z"/>
										<path fill="#B45824" d="M106.1,92.8c-0.2,0.3-0.6,0.9,0,0.6C105.8,93.2,106.6,92.7,106.1,92.8z"/>
										<path fill="#B45824" d="M106.8,94.6l0-0.6c0.6-0.6,0.3,0,0.7-0.1c-0.1-0.4-0.3-0.1-0.8,0c0-0.1-0.5,0-0.8,0.1
											C106.8,93.8,105.3,95.2,106.8,94.6z"/>
										<polygon fill="#B45824" points="106.8,93.3 106.5,93.5 106.8,93.5 										"/>
										<path fill="#B45824" d="M107,96c-0.5,0.9,0.8,0,0.7,0.6c-0.1,0-0.1,0.1-0.2,0.1l0.3,0.1l-0.1,0.2c0.4-0.4,0.8-0.4,1.2-0.6
											c0.2-0.6-0.6,0.4-0.3-0.2c0.2-0.1,0.5-0.4,0.7-0.5c-0.3,0.1-0.6,0.3-0.9,0.5c-0.2-0.1,0.1-0.3,0.2-0.5
											c-0.4,0.1-1,0.7-1.1,0.3c0.2-0.5,0.7-0.5,0.3-0.6c-0.5,0.8-0.1-0.4-0.7,0c-0.1-0.3,0.2-0.8,0.5-1
											c-0.5,0.5-1.1,0.8-1.4,0.7l0.8-0.1l-0.5,0.7C106.8,95.6,106.9,95.8,107,96L107,96z"/>
										<path fill="#B45824" d="M109.2,95.6c0.1,0,0.1,0,0.2,0C109.3,95.5,109.3,95.6,109.2,95.6z"/>
										<polygon fill="#B45824" points="107.7,94.1 107.9,94.1 108,93.9 										"/>
										<path fill="#B45824" d="M109.8,95.3c0-0.1-0.2,0.1-0.2,0.2l0.3-0.2L109.8,95.3z"/>
										<polygon fill="#B45824" points="109.6,95.9 109.3,96.4 109.7,96.1 										"/>
										<path fill="#B45824" d="M113.7,100.3c0.1-0.4-0.3,0.1-0.6,0.4C113.3,101,113.5,100.3,113.7,100.3z"/>
										<path fill="#B45824" d="M117,102.4c0.1-0.4-0.4-0.1-0.5-0.3C116.4,102.4,116.7,102.5,117,102.4z"/>
										<path fill="#B45824" d="M119.4,101.8c-0.2,0.1-0.3,0.1-0.2,0.3l-0.8,0.7C118.4,103.2,119.1,102.2,119.4,101.8z"/>
										<path fill="#B45824" d="M120.8,102.7l-0.5,0.2l0.1,0.1c-0.3,0.3-0.5,0.4-0.7,0.6C120,103.6,120.4,103.4,120.8,102.7z"/>
										<path fill="#B45824" d="M119.4,103.6c0,0,0.1,0,0.1,0C119.6,103.5,119.6,103.4,119.4,103.6z"/>
										<path fill="#B45824" d="M119.6,103.7c0,0,0.1,0,0.1-0.1C119.6,103.6,119.6,103.6,119.6,103.7
											C119.5,103.7,119.5,103.8,119.6,103.7z"/>
										<path fill="#B45824" d="M120.7,103.3l0.5,0.2l0-0.3C120.7,103.7,121.2,102.7,120.7,103.3z"/>
										<path fill="#B45824" d="M122.5,105.2l-0.3,0.5c0.2,0.3,1.3-0.6,0.9,0.3c0.1-0.4,0.6-0.4,0.4-0.8
											C123.1,105.6,122.6,105.4,122.5,105.2z"/>
										<path fill="#B45824" d="M123,106.6c-0.1,0.1-0.1,0.3-0.2,0.4c0.1,0.1,0.3,0,0.4-0.3C122.7,107.4,123.4,106.2,123,106.6z"
											/>
										<path fill="#B45824" d="M124.3,107.4c-0.1,0-0.2-0.1-0.2,0.2c0.3,0.1,0.6-0.5,0.9-0.8C125.1,106.3,124.4,107,124.3,107.4z
											"/>
										<path fill="#B45824" d="M123.7,112.4c0.3-0.5,0-0.5-0.1-0.4C123.7,112,123.8,112.2,123.7,112.4z"/>
										<polygon fill="#B45824" points="126.2,108.8 126.2,108.6 125.7,109.2 										"/>
										<polygon fill="#B45824" points="127.9,109.4 128.4,109.1 128.1,108.9 										"/>
										<path fill="#B45824" d="M128.1,109.7l0.3,0.1l0-0.2C128.4,109.4,128.2,109.7,128.1,109.7z"/>
										<path fill="#B45824" d="M128.9,110.1c-0.1,0,0-0.1,0-0.1l-0.4,0.1L128.9,110.1z"/>
										<path fill="#B45824" d="M129.8,115.5c-0.5,0.3-0.1,0.2-0.1,0.3C129.8,115.8,130.3,115.3,129.8,115.5z"/>
									</g>
								</g>
							</g>
						</g>
					</g>
					<g>
						<g>
							<g>
								<g>
									<g>
										<path fill="#B45824" d="M128,93.5c-0.1,0-0.2,0.1-0.2,0.1C127.8,93.6,127.9,93.6,128,93.5z"/>
										<path fill="#B45824" d="M136.2,99.2C136.2,99.2,136.2,99.2,136.2,99.2L136.2,99.2L136.2,99.2z"/>
										<path fill="#B45824" d="M136.3,99.2l0.2-0.2C136.3,99,136.3,99.1,136.3,99.2z"/>
										<path fill="#B45824" d="M126.1,94.6c-0.1,0-0.3,0-0.4,0.1L126.1,94.6z"/>
										<path fill="#B45824" d="M126.1,96.3c0,0.1,0,0.1,0,0.2C126.1,96.4,126.1,96.3,126.1,96.3z"/>
										<path fill="#B45824" d="M121.5,87.3c0,0,0.1,0,0.1-0.1C121.6,87.2,121.5,87.2,121.5,87.3z"/>
										<path fill="#B45824" d="M120.6,87.2c0-0.1-0.1-0.1-0.1-0.1l-0.1,0C120.4,87.2,120.6,87.2,120.6,87.2z"/>
										<path fill="#B45824" d="M120.6,87.7l-0.1-0.1C120.5,87.6,120.5,87.7,120.6,87.7z"/>
										<path fill="#B45824" d="M114.7,87l-0.2,0.2C114.6,87.2,114.6,87.1,114.7,87z"/>
										<path fill="#B45824" d="M121.9,87.1c-0.1,0-0.2,0.1-0.3,0.1C121.7,87.2,121.8,87.2,121.9,87.1z"/>
										<path fill="#B45824" d="M128.1,93.4c0,0-0.1,0.1-0.1,0.1C128,93.5,128.1,93.4,128.1,93.4z"/>
										<path fill="#B45824" d="M125.5,94.2L125.5,94.2C125.6,94.2,125.6,94.2,125.5,94.2z"/>
										<path fill="#B45824" d="M139.6,101.1c0.1,0,0.2,0.1,0.3,0.1C139.8,100.9,139.7,101,139.6,101.1z"/>
										<path fill="#B45824" d="M123,89.4c-0.5,0.8-0.3-0.2-0.9,0.5c0.3,0,0.5,0,0.2,0.4c-0.4,0.3-0.3-0.3-0.8,0.2l0.4,0
											c-0.1,0.4-0.7,0.7-0.5,0.8c0.9-0.6,0.4,0.9,0.7,0.9l-0.1,0l0,0.6c0,0,0,0,0,0c0,0,0.1-0.1,0.1-0.1c-0.2,0.5-0.2,1,0.2,1.1
											c0.5-0.4,1,0.5,1.4,0.2c-0.2,0-0.3,0-0.4-0.3l0.5-0.5c0.2,0.2-0.4,0.5,0.1,0.4c0.6-0.8-0.4-0.3-0.5-0.5
											c0.2-0.1,0.4-0.2,0.6-0.2c-0.3-0.3-0.5-0.8-1.3-0.3c0-0.2,0.3-0.5,0.5-0.5c-0.6,0.2,0.2-0.6-0.4-0.4
											c0.6-0.6,0.8,0.1,1.4-0.2c-0.1,0.8,0.7,0.6,1.2,0.8c-0.4,0.5-1,0.8-1.1,1.2c0.1,0.6,0.6,0,1-0.2c0.1,0.4-0.6,0.9-0.2,1.3
											l-0.5,0.2c-0.3,0.9,0.5-0.1,0.5,0.2c0.1-0.2,0.2-0.4,0-0.6c0.2-0.3,0.4-0.3,0.5-0.3l0-0.1c0.4-0.3,0.7-0.7,0.8-0.3
											c-0.5,0.3,0,0.5-0.1,0.8l-0.1,0c0.3,0,0.5,0.2,0.6,0.2l-0.1,0.1c0.3-0.1,0.7-0.6,0.9-0.3c-0.2,0.2-0.9,0.7-0.6,0.7
											c-0.3,0.3-0.6,0.2-0.7-0.1c0.1,0.3-0.2,0.9-0.5,0.8c-0.2,0.5,0.4,0,0.4,0.3c0.1-0.2,0.2-0.3,0.3-0.4
											c-0.4,0.6,0.5,0.4,0.8,0l-0.5,0.1c0.3-0.5,0.8-0.6,0.9-0.9c-0.4,0.8,0.9,0.1,0.7,0.8l0.2-0.5c0.4,0.6,1.4,0,2.1,0.1
											c-0.3,0.1-0.9,1-1,0.5c0.4,0.5-0.4,0.9-0.5,1.5c0.2,0.6,0.7-0.7,1-0.8l-0.4,0c1-0.7,0.9,0.9,1.9,0.6
											c-0.1,0.3-0.2,0.1-0.3,0.1c0,0.7,0.3,0,0.6-0.1c0.2,0.2,0.4,0.7-0.1,1.2c0.2,0.3,0.2-0.4,0.5-0.5l0,0.2l0.7-0.5
											c0.1,0.4,0.2,0.9,0,1.5c0.7,0.2,1-1.3,1.6-1.3c0.1,0.5-0.3,0.5-0.5,0.7l0.4,0.2c-0.5,0.6-0.7,0.1-1.1,0.9
											c0.8-0.7,0.6,0,1.3-0.3l0-0.1c0.5-0.5,0.7,0.2,1,0.2c-0.3,0.3-0.6,0.2-0.9,0.2c0.1,0.4,1,0.6,1.7,0
											c0.1,0.2,0.3,0.7-0.1,0.9c0.5,0.4,0.8-0.9,1.2-0.4l-0.3,0.5c0.1,1.1,1.5-0.1,1.6,0.9l0.4-0.6c-0.1,0.3,0.1,0.6,0,0.9
											l-0.4,0.1c-0.1,0.7,0.6-0.4,0.6,0.2c0.1-0.2,0.2-0.8,0.3-1c-1.3-0.3-1.9-1.9-3.4-1.8c0,0.1,0,0.2-0.1,0.3
											c0-0.2-0.4-0.2-0.1-0.5l0.1,0c-0.4,0-0.2-1-0.4-1.1c-0.4,0.4-0.5-0.5-0.8,0.3l0.1-0.6c-0.2,0.3-0.4,0.7-0.6,0.7
											c-0.2-0.2,0-0.5,0.3-0.6c-0.6-0.7-1.5-1.2-2.4-1.4l0.4-0.2c-0.1-0.3-1.1,0.3-0.3-0.6c-0.6,0.2-0.8-0.9-1.5,0.1
											c0.3-1.1-0.6-1-1.2-1.1c-0.4,0.9-0.6,0-0.9,0.3c0.3-0.7,0.8-0.4,1.1-0.8c-1.2,0.7-0.9-1.6-2.2-0.2c0-0.1,0-0.2,0.1-0.2
											c-0.1-0.1,0-0.4-0.1-0.6c-0.3,0.2-0.1,0.5-0.4,0.4c-0.1-0.2,0.3-0.5,0.3-0.8c-0.6,0.1-1.3-0.1-1.8,0.4
											c0-0.2,0.2-0.7,0.4-0.7c-0.9,0.1-0.5-0.5-1.2-0.6c0.2,0.1,0.6-0.6,0.7-0.1c0.5-1-0.9-0.5-1-1.3l-0.6,0.4
											c-0.3-0.1,0.1-0.6,0.4-0.7c-0.2-0.7-0.7-0.5-1-0.8c0-0.1,0.1-0.2,0.2-0.1l-0.5-0.4c-0.2,0.1-0.6,0.2-0.8,0.6
											C122.6,89.1,122.9,89,123,89.4z"/>
										<path fill="#B45824" d="M122.3,89.3L122.3,89.3L122.3,89.3C122.3,89.4,122.3,89.4,122.3,89.3z"/>
										<path fill="#B45824" d="M125,95.4c0-0.2,0.1-0.3,0-0.3C125,95.1,124.9,95.2,125,95.4z"/>
										<path fill="#B45824" d="M117,86.3c-0.7,0.8,0.4,0.1,0.4,0.5c-0.3-0.1-0.7,0.4-0.9,0.7c1.2-0.8,0.1,0.5,0.8,0.7
											c-0.3,0.3-0.6,0.2-0.9,0.5c0.5,0,1,0.2,1.6-0.3c0.4,0.4,0.5,0.9,0.9,1c-0.5-0.1-0.6,0.5-1.2,0.8c0.9-0.4,2.3-0.5,3.5-1
											c-0.5,0.7-0.5,0.8-1.1,1.3c0.2,0.9,0.7-0.5,1,0.2l-0.1-0.3c0.4,0,0.9-0.6,1.4-0.9l-0.6-0.4c0.4-0.4,0.7-0.1,0.9-0.1
											c0.6-0.4,0-0.6,0.4-1c-0.4,0.3-0.5,0-0.8,0l0.2-0.3c0-0.5-0.7,0-0.9-0.2c0-0.1,0.1-0.1,0.1-0.2c-0.3,0.2-0.7,0.4-0.9,0.4
											l0.1,0.1c-0.7,0.4-1.5,0.3-1.7,1.2l-0.4-0.7c0.6-0.5,1.6-1.3,1.9-1.1l0.3-0.2c0.1-0.6-1.1-0.2-1.4,0.5
											c-1.6,1.2-0.9-0.8-1.9-0.5c0.3-0.4,0.7-0.3,1.1-0.5c0.2,0.1,0.3,0.1,0,0.5c0.7,0.3,1.1-1.3,1.5-0.6
											c0.1,0.5-0.9,0.3-0.6,0.7l1.3-0.8c-0.3-0.2-0.7-0.3-1-0.3c-1.9-0.4-2.1-1.8-2.1-1.8c0,0-0.3-0.3-0.8-0.7
											c-0.5-0.4-1.2-1-1.8-1.7c-0.6-0.6-1.3-1.2-1.7-1.7c-0.4-0.5-0.7-0.8-0.7-0.8c-0.6-0.4-0.7-0.7-2.1,0
											c-0.1,0.3,0.3,0.6-0.3,0.8c0.5-0.3,0.9-0.2,1.1,0.1c-0.4,0.4-0.4-0.1-0.5,0l0,0.1c-0.2,0.1-0.4,0.2-0.5,0.1
											c-0.4,0.8,0.3,1.4,1.3,1c-0.2,0.6-0.8,0.3-1.2,0.4c0.5,1.3,1.2,1.9,2,2.9c0.7-0.6,0.5-0.3,1.1-0.6l-0.2,0.3
											c0.1-0.2,0.7-0.5,0.7-0.8c-0.1,1.1,1.5-0.2,2.1-0.1l-0.4,0.3c0.3,0.2,0.4,0.3,0.9,0.4c-0.2,1.1-0.5-0.3-1.2,0.6l0.3,0
											c-0.4,0.2-1.1,0.7-1.5,0.8c1-0.1,0.4,0.9,1.4,1c-0.4,0.3-1.2,0.2-1.4,0.1c0.1,0.2,0.7,0.2,0.4,0.6l0.5-0.4
											c0.4,0.2-0.5,0.4-0.7,0.8C115.3,88.1,116.2,86,117,86.3z"/>
										<path fill="#B45824" d="M124.3,93.1c-0.1-0.1-0.2-0.2-0.3-0.2C124.1,93,124.2,93.1,124.3,93.1z"/>
										<path fill="#B45824" d="M121.9,92.9c-0.1,0.1-0.1,0.1-0.2,0.2C121.8,93,121.9,93,121.9,92.9z"/>
										<path fill="#B45824" d="M121.2,93.5c0.2-0.3,0.3-0.2,0.6-0.4C121.5,93.1,121.2,92.9,121.2,93.5z"/>
										<path fill="#B45824" d="M146.2,108c-0.1,0.1-0.4,0.4-0.6,0.7c-0.1,0.1-0.1,0.3-0.1,0.3c0,0.1,0.1,0.1,0.1,0.1
											c0,0,0.2-0.3,0.5-0.6c0.2-0.1,0.4-0.2,0.5-0.3c0.1-0.1,0.2-0.1,0.2-0.1C146.8,108.1,146.2,107.9,146.2,108z"/>
										<path fill="#B45824" d="M147.1,109.6c-0.1,0-0.2,0-0.4,0c-0.1,0-0.2,0-0.3,0l-0.1,0c0,0,0,0,0,0h0c0,0,0.1-0.1,0-0.1
											c0.1,0.1,0.2,0.2,0.2,0.3l0-0.1l-0.9,0.4c0.1,0.1,0.2,0.1,0.4,0l-0.3-0.5c0.1,0,0.2,0,0.3-0.1l0.1,0c0,0,0,0,0.2,0
											C146.6,109.7,146.9,109.6,147.1,109.6z"/>
										<path fill="#B45824" d="M146.4,109.3l0.2-0.1C146.5,109.2,146.5,109.2,146.4,109.3z"/>
										<path fill="#B45824" d="M146.1,109.5l-0.6,0.3l0.7,0l0-0.2c0.2-0.2,0.2-0.3,0.2-0.4l-0.5,0.2
											C146,109.5,146.2,109.5,146.1,109.5z"/>
										<path fill="#B45824" d="M145.8,109.3c0,0.1-0.1,0.1-0.1,0.2C145.8,109.4,145.8,109.3,145.8,109.3z"/>
										<path fill="#B45824" d="M146.1,107.7c-0.1,0.2-0.5,0.4-0.7,0.5c0.1,0.4,0.8-0.2,0.8,0.2c-0.7,0-0.2,0.4-0.3,0.8
											c0.4-0.5,0.6-0.9,0.5-1.3l-0.3,0.3C145.8,108.1,146.1,108,146.1,107.7z"/>
										<path fill="#B45824" d="M144,107.1l0.6-0.3c-0.2,0.3,0.2,0.6-0.3,1c0.2,0,0.4-0.1,0.6-0.2c-0.1,0.3-0.2,0.5,0.2,0.3
											c-0.2-0.8,0-0.8-0.3-1.3c0.1-0.1,0.1,0,0.2,0l-0.1-0.5C144.5,106.8,144.1,106.5,144,107.1z"/>
										<path fill="#B45824" d="M143.9,106.4c0.3,0.2,0.8-0.1,0.9-0.6l-0.8-0.1C144.2,105.9,144.4,106,143.9,106.4z"/>
										<path fill="#B45824" d="M143.6,106.1c0.1-0.3,0.4-1-0.2-0.6C143.7,105.6,143,106.2,143.6,106.1z"/>
										<path fill="#B45824" d="M142.1,104.2l0.3,0.7c-0.4,0.7-0.4,0-0.8,0.2c0.3,0.5,0.3,0.1,1,0c0.1,0.1,0.5-0.1,0.8-0.1
											C142.3,105,143.5,103.4,142.1,104.2z"/>
										<polygon fill="#B45824" points="142.6,105.6 142.9,105.4 142.5,105.5 										"/>
										<path fill="#B45824" d="M141.4,102.6c0.2-1-0.9,0.1-1.1-0.5c0.1,0,0.1-0.1,0.2-0.2l-0.4-0.1l0.1-0.2
											c-0.3,0.5-0.7,0.5-1.1,0.8c0,0.7,0.6-0.5,0.5,0.2c-0.2,0.2-0.5,0.5-0.6,0.6c0.3-0.1,0.6-0.4,0.8-0.6
											c0.2,0.1,0,0.3-0.1,0.5c0.4-0.1,0.9-0.9,1.1-0.5c-0.1,0.6-0.6,0.6-0.1,0.7c0.3-0.9,0.3,0.4,0.8,0c0.2,0.3,0,0.9-0.2,1.2
											c0.4-0.6,1-0.9,1.3-0.9l-0.8,0.1l0.3-0.8C141.7,103.1,141.5,102.9,141.4,102.6L141.4,102.6z"/>
										<path fill="#B45824" d="M139,103.3c-0.1,0-0.1,0.1-0.2,0.1C138.8,103.4,138.9,103.3,139,103.3z"/>
										<polygon fill="#B45824" points="141.2,104.8 141,104.8 141,105.1 										"/>
										<path fill="#B45824" d="M138.4,103.6c0.1,0.1,0.2-0.2,0.2-0.2l-0.3,0.3L138.4,103.6z"/>
										<polygon fill="#B45824" points="138.4,103 138.5,102.5 138.2,102.8 										"/>
										<path fill="#B45824" d="M131.9,98.7c0.1,0.4,0.3-0.1,0.6-0.5C132.2,97.9,132.2,98.7,131.9,98.7z"/>
										<path fill="#B45824" d="M127.3,96.7c0,0.5,0.6,0.1,0.8,0.3C128,96.6,127.6,96.6,127.3,96.7z"/>
										<path fill="#B45824" d="M124.4,97.1c0.2-0.1,0.3-0.1,0.2-0.3l0.8-0.7C125.3,95.6,124.7,96.7,124.4,97.1z"/>
										<path fill="#B45824" d="M122.3,95.7l0.6-0.1l-0.1-0.1c0.3-0.3,0.5-0.4,0.8-0.6C123.2,95,122.7,95.1,122.3,95.7z"/>
										<path fill="#B45824" d="M124,95c0,0-0.1,0-0.2,0C123.8,95.1,123.7,95.2,124,95z"/>
										<path fill="#B45824" d="M123.7,94.9c0,0-0.1,0-0.1,0.1c0.1,0,0.2,0,0.2,0C123.8,94.9,123.9,94.8,123.7,94.9z"/>
										<path fill="#B45824" d="M122.4,95.1l-0.6-0.3l0.1,0.3C122.3,94.7,121.9,95.6,122.4,95.1z"/>
										<path fill="#B45824" d="M120,92.5l0.3-0.5c-0.2-0.4-1.5,0.3-1.1-0.6c-0.1,0.4-0.7,0.3-0.5,0.8
											C119.3,91.8,119.8,92.1,120,92.5z"/>
										<path fill="#B45824" d="M119.4,90.7c0.2-0.1,0.2-0.3,0.3-0.4c-0.1-0.2-0.4,0-0.5,0.2C119.8,90,118.9,91,119.4,90.7z"/>
										<path fill="#B45824" d="M117.9,89.4c0.1,0.1,0.3,0.2,0.2-0.1c-0.3-0.2-0.7,0.4-1.1,0.5C117,90.4,117.8,89.8,117.9,89.4z"
											/>
										<path fill="#B45824" d="M118.9,84.1c-0.3,0.4-0.1,0.5,0.1,0.5C118.9,84.6,118.9,84.4,118.9,84.1z"/>
										<polygon fill="#B45824" points="115.8,87.2 115.8,87.4 116.4,86.9 										"/>
										<polygon fill="#B45824" points="113.9,85.9 113.3,86.1 113.7,86.3 										"/>
										<path fill="#B45824" d="M113.7,85.5l-0.3-0.2l-0.1,0.2C113.3,85.8,113.6,85.5,113.7,85.5z"/>
										<path fill="#B45824" d="M112.8,84.8c0.1,0,0,0.1,0,0.2l0.5,0L112.8,84.8z"/>
										<path fill="#B45824" d="M111.7,78.1c0.5-0.3,0-0.3,0-0.5C111.6,77.7,111.2,78.3,111.7,78.1z"/>
									</g>
								</g>
							</g>
						</g>
					</g>
					<g>
						<g>
							<g>
								<g>
									<g>
										<path fill="#B45824" d="M138.7,84.1c-0.1,0.1-0.1,0.1-0.2,0.2C138.5,84.3,138.6,84.3,138.7,84.1z"/>
										<path fill="#B45824" d="M145.8,88.3C145.9,88.3,145.9,88.3,145.8,88.3L145.8,88.3L145.8,88.3z"/>
										<path fill="#B45824" d="M145.9,88.2l0.2-0.2C145.9,88,145.9,88.1,145.9,88.2z"/>
										<path fill="#B45824" d="M137.1,85.6c-0.1,0-0.2,0.1-0.4,0.2L137.1,85.6z"/>
										<path fill="#B45824" d="M137.2,87.1c0,0.1,0,0.1,0,0.2C137.2,87.2,137.2,87.2,137.2,87.1z"/>
										<path fill="#B45824" d="M132.7,79.8C132.7,79.7,132.8,79.7,132.7,79.8C132.8,79.7,132.7,79.7,132.7,79.8z"/>
										<path fill="#B45824" d="M132,79.9c0,0-0.1-0.1-0.1-0.1l0,0.1C131.8,79.9,131.9,79.9,132,79.9z"/>
										<path fill="#B45824" d="M131.9,80.3l-0.1,0C131.9,80.3,131.9,80.3,131.9,80.3z"/>
										<path fill="#B45824" d="M126.7,81.1l-0.2,0.2C126.6,81.3,126.7,81.2,126.7,81.1z"/>
										<path fill="#B45824" d="M133,79.5c-0.1,0-0.1,0.1-0.2,0.2C132.9,79.6,133,79.7,133,79.5z"/>
										<path fill="#B45824" d="M138.8,84c0,0-0.1,0.1-0.1,0.1C138.7,84.1,138.8,84.1,138.8,84z"/>
										<path fill="#B45824" d="M136.6,85.3L136.6,85.3C136.7,85.3,136.7,85.3,136.6,85.3z"/>
										<path fill="#B45824" d="M148.8,89.4c0.1,0,0.2,0,0.3,0C148.9,89.3,148.8,89.3,148.8,89.4z"/>
										<path fill="#B45824" d="M134.1,81.4c-0.4,0.8-0.3-0.1-0.7,0.7c0.2-0.1,0.4-0.2,0.2,0.3c-0.4,0.4-0.3-0.2-0.7,0.4l0.4-0.1
											c-0.1,0.4-0.6,0.8-0.4,0.8c0.7-0.8,0.4,0.7,0.6,0.7l-0.1,0l0,0.6c0,0,0,0,0,0c0,0,0.1-0.1,0.1-0.2c-0.1,0.5-0.1,1,0.2,1
											c0.4-0.5,0.9,0.3,1.3-0.1c-0.2,0.1-0.3,0-0.3-0.2l0.4-0.6c0.2,0.1-0.3,0.6,0.1,0.3c0.4-0.9-0.3-0.2-0.4-0.4
											c0.2-0.2,0.3-0.3,0.5-0.3c-0.3-0.2-0.5-0.7-1.2,0c0-0.2,0.3-0.6,0.4-0.6c-0.5,0.4,0.1-0.6-0.3-0.2
											c0.5-0.7,0.7-0.1,1.2-0.5c-0.1,0.8,0.7,0.4,1.1,0.5c-0.3,0.6-0.8,1-0.9,1.4c0.1,0.6,0.5-0.1,0.9-0.4
											c0.1,0.3-0.5,1-0.2,1.2l-0.4,0.3c-0.2,1,0.4-0.2,0.5,0c0.1-0.2,0.2-0.5,0-0.5c0.1-0.3,0.4-0.4,0.4-0.4l0,0
											c0.3-0.4,0.6-0.8,0.7-0.5c-0.4,0.4,0,0.5-0.1,0.7l-0.1,0.1c0.3-0.1,0.4,0.1,0.6,0.1l-0.1,0.1c0.2-0.1,0.6-0.7,0.7-0.5
											c-0.1,0.2-0.7,0.8-0.5,0.8c-0.2,0.4-0.5,0.3-0.6,0c0.1,0.2-0.1,0.9-0.4,0.8c-0.2,0.5,0.3-0.1,0.3,0.2
											c0.1-0.2,0.2-0.3,0.2-0.4c-0.3,0.6,0.4,0.3,0.7-0.2l-0.4,0.2c0.2-0.5,0.7-0.7,0.8-1c-0.3,0.9,0.8-0.1,0.6,0.7l0.1-0.5
											c0.3,0.5,1.2-0.3,1.8-0.2c-0.3,0.2-0.7,1.1-0.9,0.6c0.4,0.4-0.3,1-0.4,1.5c0.2,0.5,0.6-0.7,0.8-1l-0.3,0
											c0.8-0.9,0.8,0.7,1.6,0.3c-0.1,0.3-0.2,0.1-0.3,0.2c0,0.6,0.3,0,0.5-0.1c0.2,0.2,0.4,0.6-0.1,1.2c0.2,0.3,0.2-0.4,0.4-0.6
											l0,0.2l0.6-0.6c0.1,0.3,0.2,0.8,0,1.5c0.6,0.1,0.9-1.4,1.4-1.5c0,0.4-0.3,0.5-0.4,0.7l0.4,0.1c-0.5,0.7-0.6,0.2-0.9,1.1
											c0.7-0.7,0.5-0.1,1.1-0.5l0-0.1c0.4-0.5,0.6,0.1,0.9,0c-0.2,0.3-0.5,0.3-0.7,0.3c0.1,0.4,0.9,0.4,1.4-0.3
											c0.1,0.2,0.2,0.6-0.1,0.9c0.4,0.3,0.7-1,1-0.6l-0.3,0.6c0.1,1,1.3-0.4,1.4,0.6l0.3-0.7c0,0.3,0.1,0.6,0,0.9l-0.3,0.1
											c-0.1,0.7,0.5-0.5,0.5,0c0.1-0.2,0.1-0.8,0.2-1c-1.1,0-1.6-1.4-2.9-1.1c0,0.1,0,0.2-0.1,0.3c0-0.2-0.3-0.1-0.1-0.5l0.1,0
											c-0.3,0.1-0.2-0.9-0.3-1c-0.3,0.4-0.4-0.4-0.7,0.4l0.1-0.6c-0.2,0.3-0.3,0.7-0.5,0.8c-0.1-0.1,0-0.5,0.2-0.6
											c-0.5-0.6-1.3-0.9-2.1-0.9l0.4-0.3c-0.1-0.3-0.9,0.4-0.3-0.5c-0.5,0.2-0.7-0.7-1.3,0.3c0.3-1.1-0.6-0.8-1.1-0.9
											c-0.4,0.9-0.5,0.1-0.8,0.4c0.3-0.7,0.7-0.5,0.9-0.9c-1,0.8-0.9-1.4-1.9,0.2c0-0.1,0-0.2,0.1-0.2c-0.1,0,0-0.4-0.1-0.5
											c-0.2,0.3-0.1,0.5-0.4,0.5c-0.1-0.2,0.2-0.6,0.3-0.8c-0.5,0.2-1.1,0.1-1.5,0.8c0-0.2,0.1-0.7,0.3-0.7
											c-0.8,0.3-0.4-0.4-1.1-0.3c0.2,0.1,0.5-0.7,0.6-0.2c0.3-1.1-0.9-0.2-1-1l-0.5,0.5c-0.3,0,0-0.6,0.3-0.7
											c-0.2-0.6-0.6-0.4-0.9-0.5c0-0.1,0.1-0.2,0.1-0.1l-0.4-0.3c-0.1,0.1-0.5,0.3-0.7,0.7C133.8,81.2,134,81,134.1,81.4z"/>
										<path fill="#B45824" d="M133.5,81.5L133.5,81.5L133.5,81.5C133.5,81.5,133.5,81.5,133.5,81.5z"/>
										<path fill="#B45824" d="M136.2,86.5c0-0.2,0-0.3,0-0.3C136.2,86.3,136.1,86.4,136.2,86.5z"/>
										<path fill="#B45824" d="M128.8,79.9c-0.6,0.9,0.4,0,0.4,0.4c-0.3,0-0.6,0.5-0.7,0.8c1-1,0.1,0.4,0.7,0.5
											c-0.2,0.4-0.5,0.3-0.8,0.7c0.4-0.1,0.9,0,1.4-0.6c0.4,0.2,0.5,0.7,0.8,0.7c-0.5,0.1-0.5,0.6-1,1c0.8-0.6,2-1,3-1.7
											c-0.4,0.7-0.4,0.8-0.9,1.5c0.2,0.8,0.6-0.6,0.9-0.1l-0.1-0.3c0.3-0.1,0.8-0.8,1.1-1.2l-0.6-0.2c0.3-0.5,0.6-0.2,0.8-0.3
											c0.5-0.5,0-0.6,0.3-1c-0.3,0.3-0.4,0.1-0.7,0.2l0.1-0.3c-0.1-0.4-0.6,0.1-0.8,0c0-0.1,0.1-0.1,0.1-0.2
											c-0.3,0.2-0.6,0.6-0.8,0.6l0.1,0c-0.6,0.5-1.3,0.6-1.4,1.5l-0.4-0.5c0.5-0.6,1.3-1.6,1.7-1.5l0.2-0.3c0-0.5-1,0.1-1.2,0.8
											c-1.3,1.5-0.8-0.5-1.7-0.1c0.3-0.5,0.6-0.5,0.9-0.7c0.1,0,0.2,0.1,0,0.5c0.6,0.1,0.9-1.5,1.3-0.9c0.1,0.4-0.8,0.5-0.5,0.8
											l1.1-1c-0.3-0.1-0.6-0.1-0.9-0.1c-0.8,0-1.3-0.3-1.5-0.6c-0.3-0.3-0.3-0.6-0.3-0.6s-1.2-0.8-2.3-1.6
											c-0.6-0.4-1.1-0.9-1.5-1.2c-0.4-0.3-0.6-0.6-0.6-0.6c-0.5-0.3-0.6-0.5-1.9,0.3c-0.1,0.3,0.2,0.5-0.2,0.7
											c0.5-0.3,0.8-0.3,1-0.1c-0.4,0.4-0.4,0-0.4,0.1l0,0.1c-0.2,0.2-0.4,0.2-0.5,0.2c-0.3,0.8,0.3,1.2,1.2,0.7
											c-0.2,0.6-0.7,0.4-1.1,0.6c0.5,1.1,1.1,1.5,1.9,2.3c0.6-0.7,0.5-0.4,1-0.8l-0.2,0.3c0.1-0.2,0.6-0.6,0.6-0.8
											c0,0.9,1.4-0.5,1.9-0.6l-0.3,0.4c0.3,0.1,0.4,0.2,0.8,0.2c-0.2,1.1-0.5-0.2-1.1,0.9l0.2-0.1c-0.4,0.3-0.9,0.9-1.3,1
											c0.9-0.3,0.4,0.7,1.2,0.6c-0.4,0.4-1.1,0.4-1.2,0.4c0.1,0.2,0.6,0.1,0.4,0.5l0.4-0.5c0.3,0.1-0.4,0.5-0.6,0.9
											C127.3,81.9,128,79.8,128.8,79.9z"/>
										<path fill="#B45824" d="M135.4,84.5c-0.1-0.1-0.1-0.1-0.2-0.1C135.3,84.5,135.4,84.5,135.4,84.5z"/>
										<path fill="#B45824" d="M133.4,84.9c-0.1,0.1-0.1,0.1-0.2,0.2C133.3,85,133.4,85,133.4,84.9z"/>
										<path fill="#B45824" d="M132.8,85.6c0.1-0.3,0.2-0.2,0.5-0.5C133.1,85.2,132.8,85.1,132.8,85.6z"/>
										<path fill="#B45824" d="M156.8,96.4c0.1-0.2,0.4-0.3,0.4-0.4l-0.4,0.1L156.8,96.4z"/>
										<path fill="#B45824" d="M156.5,95.5l-0.2-0.4l-0.5,0.8C156,96,156.2,95.4,156.5,95.5z"/>
										<path fill="#B45824" d="M155.9,94.7l0.1-0.2C155.9,94.6,155.9,94.6,155.9,94.7z"/>
										<path fill="#B45824" d="M155.7,95l-0.4,0.6l0.6-0.3L155.7,95c0.2-0.1,0.1-0.2,0.2-0.4l-0.3,0.4
											C155.6,95,155.7,95,155.7,95z"/>
										<path fill="#B45824" d="M155.4,95c0,0.1,0,0.1-0.1,0.2C155.4,95.1,155.4,95,155.4,95z"/>
										<path fill="#B45824" d="M155.1,93.5c0,0.3-0.3,0.5-0.4,0.8c0.2,0.4,0.6-0.6,0.7-0.2c-0.6,0.3,0,0.4,0,0.8
											c0.2-0.6,0.2-1.1,0-1.4l-0.2,0.4C155,93.9,155.2,93.7,155.1,93.5z"/>
										<path fill="#B45824" d="M153.3,93.8l0.5-0.5c-0.1,0.3,0.3,0.5,0,1c0.2,0,0.3-0.3,0.5-0.4c0,0.3,0,0.6,0.2,0.2
											c-0.4-0.6-0.2-0.7-0.5-1.1c0.1-0.1,0.1-0.1,0.2,0l-0.2-0.4C153.6,93.4,153.2,93.3,153.3,93.8z"/>
										<path fill="#B45824" d="M153,93.2c0.3,0.1,0.6-0.4,0.7-0.9l-0.7,0.2C153.1,92.7,153.3,92.7,153,93.2z"/>
										<path fill="#B45824" d="M152.6,93.1c0-0.3,0.1-1.1-0.3-0.5C152.7,92.5,152.2,93.4,152.6,93.1z"/>
										<path fill="#B45824" d="M151.1,91.8l0.3,0.6c-0.2,0.8-0.3,0.1-0.6,0.4c0.3,0.3,0.3,0,0.8-0.3c0.1,0.1,0.4-0.2,0.7-0.4
											C151.4,92.5,152.2,90.6,151.1,91.8z"/>
										<polygon fill="#B45824" points="151.7,93 151.9,92.7 151.6,92.8 										"/>
										<path fill="#B45824" d="M150.3,90.5c0.1-1-0.8,0.3-0.9-0.2c0.1,0,0.1-0.1,0.2-0.2l-0.3,0l0.1-0.2c-0.2,0.5-0.6,0.6-0.9,1
											c0,0.7,0.4-0.6,0.4,0.1c-0.2,0.2-0.4,0.6-0.5,0.7c0.3-0.2,0.5-0.5,0.7-0.8c0.2,0,0,0.3,0,0.5c0.3-0.2,0.7-1,0.9-0.7
											c0,0.6-0.4,0.7,0,0.6c0.2-0.9,0.3,0.3,0.7-0.2c0.2,0.3,0.1,0.9,0,1.2c0.3-0.7,0.7-1.1,1-1.3l-0.7,0.4l0.2-0.8
											C150.6,90.8,150.5,90.7,150.3,90.5L150.3,90.5z"/>
										<path fill="#B45824" d="M148.3,91.7c-0.1,0-0.1,0.1-0.2,0.1C148.2,91.8,148.3,91.7,148.3,91.7z"/>
										<polygon fill="#B45824" points="150.5,92.5 150.3,92.7 150.3,92.9 										"/>
										<path fill="#B45824" d="M147.9,92.1c0,0,0.2-0.2,0.1-0.2l-0.2,0.3L147.9,92.1z"/>
										<polygon fill="#B45824" points="147.8,91.5 147.9,91 147.6,91.3 										"/>
										<path fill="#B45824" d="M142.2,88.4c0.1,0.4,0.3-0.2,0.5-0.5C142.4,87.7,142.5,88.3,142.2,88.4z"/>
										<path fill="#B45824" d="M138.2,87.3c0,0.4,0.5,0,0.7,0.2C138.8,87.1,138.5,87.1,138.2,87.3z"/>
										<path fill="#B45824" d="M135.8,88.3c0.1-0.1,0.3-0.2,0.2-0.3l0.7-0.8C136.5,86.7,136,87.9,135.8,88.3z"/>
										<path fill="#B45824" d="M133.9,87.4l0.5-0.2l-0.1-0.1c0.3-0.3,0.4-0.5,0.7-0.7C134.6,86.5,134.2,86.8,133.9,87.4z"/>
										<path fill="#B45824" d="M135.3,86.4c0,0-0.1,0-0.1,0C135.1,86.5,135.1,86.7,135.3,86.4z"/>
										<path fill="#B45824" d="M135,86.4C135,86.4,135,86.4,135,86.4c0,0.1,0.1,0.1,0.1,0C135.2,86.3,135.2,86.2,135,86.4z"/>
										<path fill="#B45824" d="M134,86.9l-0.5-0.2l0.1,0.3C133.8,86.4,133.5,87.4,134,86.9z"/>
										<path fill="#B45824" d="M131.7,84.9l0.3-0.6c-0.2-0.3-1.3,0.6-1-0.3c-0.1,0.4-0.6,0.4-0.4,0.8
											C131.1,84.4,131.5,84.7,131.7,84.9z"/>
										<path fill="#B45824" d="M131.1,83.4c0.1-0.1,0.1-0.3,0.2-0.5c-0.1-0.1-0.3,0-0.4,0.3C131.4,82.6,130.7,83.8,131.1,83.4z"
											/>
										<path fill="#B45824" d="M129.7,82.6c0.1,0,0.2,0.1,0.2-0.1c-0.3-0.1-0.6,0.5-1,0.8C128.9,83.7,129.6,83,129.7,82.6z"/>
										<path fill="#B45824" d="M130.4,77.5c-0.3,0.4-0.1,0.5,0.1,0.4C130.3,77.9,130.3,77.7,130.4,77.5z"/>
										<polygon fill="#B45824" points="127.7,81 127.7,81.2 128.3,80.6 										"/>
										<polygon fill="#B45824" points="125.9,80.3 125.4,80.5 125.8,80.7 										"/>
										<path fill="#B45824" d="M125.7,79.9l-0.3-0.2l0,0.2C125.4,80.2,125.7,79.9,125.7,79.9z"/>
										<path fill="#B45824" d="M124.9,79.4c0.1,0,0,0.1,0,0.1l0.4-0.1L124.9,79.4z"/>
										<path fill="#B45824" d="M123.8,73.7c0.5-0.3,0-0.3,0.1-0.4C123.8,73.3,123.4,73.9,123.8,73.7z"/>
									</g>
								</g>
							</g>
						</g>
					</g>
				</g>
			</g>
			<g display="inline">
				<defs>
					<path id="SVGID_17_" d="M33.4,183.1c17.1,8,42.7-9.9,44.7-23.6c2.1-14.1-7.6-36.1-21.5-38C38,118.9,22,122.1,16,138.7
						C10.1,154.7,16.3,175.1,33.4,183.1z"/>
				</defs>
				<clipPath id="SVGID_6_">
					<use xlink:href="#SVGID_17_"  overflow="visible"/>
				</clipPath>
				<g opacity="0.8" clip-path="url(#SVGID_6_)">
					<g>
						<g>
							<g opacity="0.9">
								<g opacity="0.9">
									<path fill="#FFFCED" d="M77.9,159.5l0.5,0.5c0.3-0.9,0.7-1.8,1.3-2.7c0.7-0.5,0.4-1-0.5-1.7c-0.4-0.3-1-0.6-1.7-0.9
										c-0.7-0.3-1.4-0.5-2.1-0.8c-0.2,0.9-0.1,1.8,0.3,2.7c0.2,0.5,0.5,0.9,0.9,1.3C76.9,158.6,77.3,159,77.9,159.5z"/>
									<path fill="#FFFAE2" d="M74.6,171.4c0,0.3-0.1,0.5-0.1,0.8c0,0,0-0.1,0-0.1C74.5,171.9,74.6,171.7,74.6,171.4z"/>
									<path fill="#FFFCED" d="M80,167.5c-0.1-0.3-0.2-0.5-0.3-0.7c-0.1-0.2-0.4-0.2-0.5-0.3c-0.4-0.2-0.8-0.1-1.2-0.2
										c-0.1,1-0.5,1.9-1.3,2.9c-0.4,0.5-0.7,1-1.1,1.5c-0.2,0.2-0.4,0.4-0.6,0.6l-0.1,0.1l0,0l0,0l0,0l0.1-0.1c0,0,0.1,0,0-0.1
										c-0.1-0.1-0.2-0.2-0.3-0.3c0,0,0,0.1,0.1,0.1c0.1,0,0.1,0,0.1,0c0,0-0.1,0.1,0.1,0.2c0,0,0,0-0.1-0.1c0,0,0-0.1,0.1-0.1
										c0.1-0.1,0.1-0.2,0.2-0.3c0,0,0.1-0.1,0.1-0.1l0.1-0.1c0,0,0.1,0,0.1,0c0.1,0,0.1,0.1,0.1,0.1c0.5-0.5,0.9-0.5,1.2-0.6
										c0.2,0,0.2-0.2,0.2-0.3c0-0.1,0-0.2-0.2-0.2c0.3-0.1,0.6-0.2,1-0.3l0.3-0.1l0.2-0.1c0.2,0,0.3-0.1,0.5-0.1
										c0.3-0.2,0.6-0.5,0.9-0.8c0.1-0.2,0-0.4-0.1-0.6L80,167.5z"/>
									<path fill="#FFFCED" d="M68.1,141.4c0.2,0.1,0.4,0.3,0.6,0.4c0.7-0.6,1.5-1.1,2.4-1.5c-0.7-0.5-1.3-1-2.1-1.5
										c-0.4,0.3-0.9,0.5-1.4,0.8c-0.1-0.2-0.1-0.4-0.2-0.6c0.1-0.3,0.2-0.6,0.5-0.9l-0.1,0c-0.4-0.3-0.8-0.5-1.3-0.8
										c0.1,0.3,0.3,0.6,0.4,0.8c-1.2-0.1-2.5-0.6-2.6,0.6C64.9,139.7,66.7,140.4,68.1,141.4z"/>
									<path fill="#FFFBEB" d="M50,142.5c0.6,1,1,2.1,1.2,3.3c0.5-0.5,1.3-0.6,2.1-0.6c0.8,0,1.6,0,2.1-0.5
										c0.4,3.1,2.9,4.6,5.3,5.9c2.5,1.3,5,2.6,5.9,4.3c1.2,1.8,2.6,3,4,4.2c1.3,1.2,2.6,2.4,3.3,4c0.5-0.5,0.5-1.5,1.4-1.5
										c-0.3-0.8-0.9-1.2-1.6-0.9c-0.1,0.1-0.3,0.1-0.4,0.2c0.1-0.1,0.3-0.2,0.4-0.2c0.5-0.2,1-0.2,1.6-0.1
										c-0.2-0.1-0.3-0.4-0.2-0.7c0.2-0.2,0.3-0.3,0.5-0.3c-0.8-1.6-1.7-3.1-2.4-4.7c-0.7-1.6-1.3-3.4-1.3-5.5l-0.8-0.3
										c-0.8-0.3-1.5-0.6-2.1-1c-0.6-0.3-1-0.7-1.4-1c-0.7-0.7-1-1.6-1.1-2.6c-1.1-0.1-2.1-0.1-3.1-0.2c-1-0.1-2-0.2-2.8-0.4
										c-2.7-1-5.4-2.4-8.3-3.5c-0.6,0.7-1.2,1.4-1.7,2.2C50.5,142.6,50.2,142.5,50,142.5z"/>
									<path fill="#FFEFA6" d="M67.1,164c-2.8,1.6-5.3,4.1-7.2,6.4c-1.8,2.3-3,4.4-2.9,5.1c0,0.1-0.1,0.2-0.1,0.3l-0.1,0.1
										c0,0,0,0.1-0.1,0.1l0,0l0,0l0.1,0l0.5-0.1c0.7-0.1,1.5-0.1,2.2-0.2c0.6-0.1,1.1-0.1,1.7-0.1c0.3,0,0.6,0,0.9,0
										c0.2,0,0.4,0,0.6,0c0.4,0,0.9,0.1,1.3,0.2c0.3,0,0.5,0.1,0.8,0.2l0.6,0.2c0.1,0,0.1,0,0.2,0.1l0.1,0.1c0,0,0,0,0,0
										c0,0,0,0,0,0c0,0,0,0,0,0c0-0.1,0-0.1,0-0.2c0-0.1,0-0.2,0-0.3c0-0.1,0-0.2,0-0.3l0-0.1l0,0c0,0,0,0-0.1,0l-0.3,0l-1.3,0
										l-0.3,0h0c1.2,0.6-2.6-1.2,2.6,1.2l0,0l0,0l0,0l0-0.1l-0.1-0.1c-0.1-0.2-0.2-0.3-0.3-0.5c-0.3-0.4-0.4-0.8-0.7-1.2
										c0.3,0.5,0.3,0.5,0.1,0.1c-0.1-0.2-0.3-0.6-0.5-1.1c-0.1-0.3-0.2-0.6-0.3-0.9l0.1,0.3c0,0.1,0.1,0.2,0.1,0.4
										c0.1,0.5-0.2,0.2-0.5-0.1c-0.2-0.3-0.5-0.6-0.5,0c-0.4,1.2-0.9,2.4-1.5,3.4c-0.6,1.1-1.4,2-2.6,2.4c0.1,1-0.3,2.9,0.2,3.1
										c0.5,1.1,1.4,1.9,2.4,2.1c1,0.2,2.3-0.2,3.2-1.5c0.3-0.4,0.8,0.2,1.3,1c0.4,0.8,0.7,1.9-0.2,2.5c1.3,0.2,2.3-0.2,3.1-0.8
										c0.8-0.6,1.4-1.3,2.1-1.8l0.1-0.1l0,0l0,0l0.1-0.1l0.1-0.2c0.1-0.1,0.2-0.2,0.3-0.3c0.2-0.2,0.4-0.3,0.5-0.4
										c0.3-0.2,0.7-0.4,1-0.4c0.7,0,1.5,0.3,2.2,0.8c1.6,1,3,3.2,5.4,2.7c1.1,0,2-0.4,2.9-1.1c0.1-1,0-2,0-2.9
										c-0.1-0.9-0.3-1.8-0.5-2.6c-0.5-1.6-1.2-3-2.1-4.2c-1.7-2.3-3.6-3.8-5.4-5.1c-0.8-0.6,0.5-2.3-0.4-2.8
										C73.6,164.6,69.1,162.7,67.1,164z"/>
									<path fill="#FFF1B3" d="M58.1,175c0.6-0.5,1.3-1.3,2-2.4c-0.3,0.4-0.5,0.8-0.8,1.1c-0.1,0.2-0.3,0.3-0.4,0.5l-0.4,0.4
										c-0.6,0.5-1,0.8-1.3,1c-0.1,0-0.1,0.1-0.2,0.1l-0.1,0C57.1,175.8,57.6,175.4,58.1,175z"/>
									<path fill="#FFF1B3" d="M80,192.5c-0.5-0.6-0.9-1.1-1.3-1.4l-0.1-0.1l0,0l0,0l0,0l-1.1,0.9l0,0l0,0l0,0l-0.2-0.1
										c-0.1-0.1-0.2-0.1-0.4-0.1c-0.3-0.1-0.5-0.1-0.8-0.2c-0.6-0.1-1.2-0.1-1.8-0.3c-0.6-0.1-1.3-0.4-1.9-0.8
										c-1.3,1.7-2.8,2.4-4.1,2.4c-1.3,0-2.5-0.8-3.4-2.2c-0.1,0.8-1.3,0.3-1.8,0.6c0.1-0.8-0.9-2.1,0-2.8
										c-0.9,0.7-1.8-0.7-2.4,0.3c-0.6-0.6-0.3-1.1,0.1-1.6c0.4-0.6,0.7-1.2,0.4-1.9c-1.1,1-2.3,1.2-3.2,0.9
										c-0.9-0.3-1.6-1.1-1.8-2c-0.6-2,0.5-4.4,1.7-6.1c1.1-1.6,1.9-2.3,2.9-4.7c0.5-1.2,0.7-1.4,0.9-1.2c0.2,0.2,0.5,0.8,0.8,1.2
										c0-0.8-0.2-1.5-0.3-2.1c-0.1-0.6,0-1.3,0.2-2.1c0.2-0.5,0.3-1.1,0.4-1.7c0-0.3,0.1-0.7,0.1-1l0-0.1l0,0.1l0,0.1l0,0.3
										c0-0.1,0-0.3,0-0.5l0-0.4l0-0.2c0-0.1,0,0.1,0,0.1c0,0.2-0.1,0.5-0.1,0.7c-0.1,0.5-0.3,1.3-0.6,2c-0.3,0.7-0.6,1.4-0.8,2
										c-0.4,0.8-0.8,1.6-1.3,2.3c-0.7,1.1-1.5,1.9-2,2.4c-0.4,0.4-1,0.8-1.2,0.8c-0.1,0,0,0.1,0,0.2c0,0.1,0,0.2,0,0.2
										c0-0.3,0-0.2,0,0c0-0.1,0-0.1-0.1-0.2c0,0-0.1-0.1-0.1-0.1l0.1,0c0.1,0,0.1-0.1,0.2-0.1l0.1-0.1c0.1,0,0.1-0.1,0.2-0.1
										l0.4-0.3c0.1-0.1,0.2-0.2,0.3-0.3c-0.7,0.6-1.1,0.8-1.2,0.9c-0.2,0,0,0.3,0,0.4c0,0,0,0,0,0l0-0.1l0-0.1l0,0l-0.4,0.1
										c-0.3,0.1-0.5,0.1-0.8,0.2c-0.5,0.1-1.1,0.3-1.6,0.5c-0.5,0.1-1,0.3-1.5,0.5c-0.6,0.3-1.1,0.6-1.5,1.1
										c-0.4,0.4-0.8,0.9-1.1,1.4c-0.6,1-0.8,2.3-0.7,3.8c0.4,1.3,1.8,2.6,3.5,2.4c-0.5,0.1-2.3,0.1-2.3,0.6
										c0.8,1.5,1.2,3.1,1.9,4.4c0.8,1.3,2,2.4,4.1,2.3c-0.3,0.7,0,1.3-1.3,1.6c1.3-0.3,1.3,0.4,1.4,1.2c0.1,0.8,0.2,1.5,1.5,1.1
										c0.4,1.1,0.4,2.7,0.8,4.1c0.4,1.3,1.1,2.4,3.1,2.3c1.1-0.2,1.9-0.2,2.7-0.1c2.8-1.5,5.6-2.8,9.4-4.7c1.4-0.7,2.8-1.6,4-2.7
										c0.3-0.3,0.6-0.6,1-0.9l0.2-0.2l0.1-0.1l0,0c-0.3,0.3,2.6-2.2,1.4-1.2l0,0l0,0l0,0l0,0l0-0.1l0.1-0.2
										c0.1-0.3,0.2-0.7,0.3-1C80.9,192.6,80.5,192.9,80,192.5z"/>
									<path fill="#FFF0AB" d="M81.2,185.9c-2.3,0.5-3.8-1.7-5.4-2.7c-0.8-0.5-1.5-0.8-2.2-0.8c-0.4,0-0.7,0.1-1,0.4
										c-0.2,0.1-0.3,0.2-0.5,0.4c-0.1,0.1-0.2,0.2-0.3,0.3l-0.1,0.2l-0.1,0.1l0,0l0,0l-0.1,0.1c-0.7,0.6-1.3,1.3-2.1,1.8
										c-0.8,0.6-1.8,1-3.1,0.8c0.9-0.6,0.6-1.7,0.2-2.5c-0.4-0.8-1-1.4-1.3-1c-1,1.3-2.2,1.7-3.2,1.5c-1-0.2-1.9-1-2.4-2.1
										c-0.5-0.2-0.1-2.2-0.2-3.1c1.2-0.4,2-1.3,2.6-2.4c0.6-1.1,1.1-2.3,1.5-3.4c0-0.5,0.3-0.2,0.5,0c0.2,0.3,0.5,0.6,0.5,0.1
										c0-0.1,0-0.2-0.1-0.4l-0.1-0.3c0.1,0.3,0.2,0.6,0.3,0.9c0.2,0.5,0.4,0.8,0.5,1.1c0.2,0.4,0.2,0.4-0.1-0.1
										c-0.6-1.2-1.1-2.7-1.4-4c-0.3-1.4-0.5-2.6-0.6-3.6c0-0.2,0-0.3,0-0.5l0-0.3l0-0.1l0-0.1l0,0.1c0,0.4,0,0.7-0.1,1
										c-0.1,0.7-0.2,1.2-0.4,1.7c-0.2,0.9-0.3,1.5-0.2,2.1c0,0.6,0.2,1.3,0.3,2.1c-0.3-0.4-0.6-1-0.8-1.2c-0.2-0.2-0.5,0-0.9,1.2
										c-1,2.5-1.8,3.2-2.9,4.7c-1.3,1.6-2.3,4.1-1.7,6.1c0.3,1,0.9,1.7,1.8,2c0.9,0.3,2.1,0.1,3.2-0.9c0.4,0.7,0,1.3-0.4,1.9
										c-0.4,0.6-0.7,1.1-0.1,1.6c0.6-1,1.5,0.4,2.4-0.3c-0.9,0.7,0.1,2,0,2.8c0.5-0.3,1.7,0.2,1.8-0.6c0.9,1.4,2.1,2.2,3.4,2.2
										c1.3,0,2.8-0.7,4.1-2.4c0.6,0.4,1.3,0.6,1.9,0.8c0.6,0.1,1.2,0.2,1.8,0.3c0.3,0,0.6,0.1,0.8,0.2c0.1,0,0.2,0.1,0.4,0.1
										l0.2,0.1l0,0l0,0l0,0l1.1-0.9l0,0l0,0l0,0l0.1,0.1c0.4,0.3,0.8,0.7,1.3,1.4c0.5,0.4,0.9,0.1,1.4-0.4l0.1-0.2l0.3-0.5
										c0.2-0.3,0.4-0.7,0.6-1c0.4-0.7,0.7-1.4,1-2.1c0.2-0.4,0.2-0.6,0.3-0.9l0.2-0.9c0.1-0.6,0.2-1.2,0.3-1.7
										C83.3,185.5,82.3,185.9,81.2,185.9z"/>
									<path fill="#FFF2B8" d="M62.1,203.4c-2,0.2-2.8-0.9-3.1-2.3c-0.4-1.3-0.4-2.9-0.8-4.1c-1.3,0.4-1.4-0.3-1.5-1.1
										c-0.1-0.8-0.1-1.5-1.4-1.2c1.3-0.3,1-0.9,1.3-1.6c-2.1,0-3.3-1-4.1-2.3c-0.8-1.3-1.2-2.9-1.9-4.4c0-0.6,1.7-0.5,2.3-0.6
										c-1.7,0.2-3-1.1-3.5-2.4c-0.1-1.5,0.2-2.7,0.7-3.8c0.3-0.5,0.6-1,1.1-1.4c0.4-0.4,0.9-0.8,1.5-1.1c0.5-0.2,1-0.3,1.5-0.5
										c0.5-0.2,1.1-0.4,1.6-0.5c0.3-0.1,0.5-0.1,0.8-0.2l0.4-0.1l0,0l0,0.1l0,0.1c0,0,0,0.1,0,0c0-0.1-0.2-0.4,0-0.4
										c0.2-0.1,0.5-0.2,1.2-0.9c-0.1,0.1-0.2,0.2-0.3,0.3l-0.4,0.3c-0.1,0-0.1,0.1-0.2,0.1l-0.1,0.1c-0.1,0-0.1,0.1-0.2,0.1
										l-0.1,0c0,0,0,0.1,0.1,0.1c0,0.1,0.1,0.2,0.1,0.2c0-0.2,0-0.3,0,0c0,0,0-0.1,0-0.2c0-0.1-0.1-0.2,0-0.2c0,0,0,0,0,0
										c0,0,0,0.1,0.1,0.1c0,0,0,0.1,0,0.1l0,0.1c0,0,0,0.1,0,0l0.1-0.6l0-0.1l0,0l-0.9,0.4l0,0l0,0c0,0-0.1,0-0.1,0l0,0l0,0
										l0.1,0c0,0,0.1,0,0.1,0c0.1,0,0.3,0,0.4,0.1c0.1,0,0.2,0.1,0.4,0.1c0.2,0.1,0.4,0.1,0.6,0.2c0.1,0,0.2,0.1,0.3,0.1l0.1,0.1
										l0.2,0.1c0.3,0.1,0.5,0.2,0.7,0.4c0.4,0.3,1,0.6,1.5,1c0.4,0.4,1,0.8,1.5,1.3c0.1,0.1,0,0-0.6-0.6
										c-0.3-0.3-0.6-0.5-0.8-0.6c-0.2-0.2-0.4-0.3-0.6-0.5s-0.4-0.2-0.5-0.3l-0.3-0.2c-0.4-0.2-0.6-0.3-0.7-0.4l-0.3-0.1
										l-0.3-0.1c-0.9-0.4-2.2-0.9-3.3-0.9c-0.2,0-0.4,0-0.7,0.1c-0.2,0-0.4,0.1-0.6,0.2c-0.4,0.2-0.6,0.4-0.8,0.5
										c-1.5,0.5-3,0.9-4.5,1.2c-1.5,0.3-3.1,0.5-4.4,1.4c-0.1,0-0.2,0-0.2,0.1c0,0,0,0.1,0,0.1c0,0.1,0,0.2,0,0.3
										c0.1,0.4,0.3,1,0.5,1.5c0.4,0.9,0.9,1.8,0.4,2.3c-0.6,1.1-1.6,1.9-2.3,2.9c-0.7,1-1.1,2.1-0.1,3.8c1.3,2.3,2.5,4,3.4,5.6
										c0.9,1.6,1.7,3.1,2.3,4.5c1.3,2.8,2.2,5.6,3.6,8.3c2.7-0.3,5.1-1,7.3-1.9c2.2-0.9,4.3-1.9,6.4-3
										C64.1,203.2,63.2,203.2,62.1,203.4z"/>
									<path fill="#FFF6CC" d="M70.9,185.8c0-0.8,0-1.6,0.1-2.4c0-0.8,0.1-1.5,0.2-2.3c-0.1,0.9-0.2,1.7-0.2,2.4
										c-0.1,0.8-0.1,1.5-0.1,2.1c0,1.3,0,2.3,0.1,3.2l0,0.6l0,0.2l0-0.4c-0.1-0.5-0.1-1-0.2-1.6c-0.2-1-0.4-2.2-0.7-3.3
										c-0.2-0.8-0.7-0.7-1.3-0.9c-0.6-0.1-1.4-0.5-2.3-2.3c-0.5-1.5-0.3-2.6,0.3-3.3c-2.1-1.9-4.2-4.6-6.5-7.1
										c-2.3-2.5-4.7-5-7.9-5.5c-3.3-0.5-7.3-0.9-11.7-0.2c-4.4,0.6-9,2.6-12.6,2.3c-0.8-0.1-1.7,0.4-2.6,1.6
										c-0.5,0.6-0.9,1.3-1.3,2.2c-0.4,0.9-0.8,2-1.1,3.2c-0.4,1.2-0.6,2.5-0.8,3.8c-0.1,0.7-0.1,1.4-0.2,2.1l-0.1,1.1l0,0.3l0,0
										v0c0-0.2,0.3,1.4,0.1,0.7l0,0l0,0l0,0l-0.1,0.1l-0.3,0.5l-0.1,0.1l0,0.1l0,0c0,0,0,0,0,0l0,0.1c0,0.5,0.1,1,0.1,1.4
										c0.1,1,0.2,1.9,0.4,2.9l0.1,0.7l0.1,0.5l0.2,1c2.4,3.7,5.3,6.7,8.2,8.8c-1-2.5-1.5-5-1.6-7.1c-0.1-2.1,0.3-3.7,1-4.6
										c0.7-0.7,1.3-1.3,1.8-2c0.6-0.8,1.1-1.7,1.6-2.6c0.5-0.8,1-2,1.6-2.1c0.3-0.2,0.6-0.3,0.9-0.5l0.4-0.3l0.1,0l0,0l0,0l0,0
										c-0.1-0.7,0-0.2-0.1-0.3l0,0l0.1-0.2l0.2-0.3c0.5-0.9,1-1.7,1.6-2.6c0.6-0.9,1.2-1.8,1.8-2.6c0.7-0.8,1.4-1.7,2.2-2.4
										c0.8-0.7,1.6-1.4,2.4-2c1.2-0.7,2.8,0.3,4.3,1.2c1.5,1,2.9,2,3.7,2.1c3.2,0.8,5.6,2.6,7.8,4.6c1.1,1,2.1,2.1,3,3.2
										c0.9,1.2,1.9,2.4,2.8,3.7c0.4,0.6,0.9,1.4,1.4,2.2c0.5,0.8,1,1.6,1.4,2.5c0.3,0.1,0.6-0.3,1.2,0.5c0.2-0.2,0.4,0.2,0.6,0.9
										c0.1,0.4,0.2,0.8,0.2,1.3l0,0.2c0,0.1,0,0,0-0.1l0-0.2l0-0.4c-0.1-0.5-0.1-1-0.2-1.7c0-0.2,0-0.4,0-0.5c0-0.3,0-0.5,0-0.7
										C70.9,187.2,70.9,186.6,70.9,185.8z"/>
									<path fill="#FFF4C4" d="M41.8,189.7c-1-1.7-0.6-2.8,0.1-3.8c0.7-1,1.7-1.8,2.3-2.9c0.4-0.4,0-1.4-0.4-2.3
										c-0.2-0.5-0.4-1.1-0.5-1.5c0-0.1,0-0.2,0-0.3c0,0,0-0.1,0-0.1c0-0.1,0.1-0.1,0.2-0.1c1.3-0.9,2.9-1.2,4.4-1.4
										c1.6-0.2,3.1-0.6,4.5-1.2c0.2-0.1,0.4-0.4,0.8-0.5c0.2-0.1,0.4-0.2,0.6-0.2c0.2-0.1,0.4-0.1,0.7-0.1
										c1.1,0.1,2.3,0.5,3.3,0.9l0.3,0.1l0.3,0.1c0.2,0.1,0.4,0.2,0.7,0.4l0.3,0.2c0.2,0.1,0.3,0.2,0.5,0.3s0.4,0.3,0.6,0.5
										c0.2,0.2,0.4,0.4,0.8,0.6c0.7,0.5,0.8,0.7,0.6,0.6l0,0c-0.3-0.3,0.2,0.1,0.8,0.7c0.7,0.6,1.4,1.5,1.7,1.8
										c0.8,0.9,1.4,1.7,1.9,2.4c0.5,0.7,1,1.4,1.4,2c0.2,0.3,0.4,0.6,0.6,0.9c0.1,0.1,0.2,0.3,0.3,0.4l0.1,0.2
										c0.1,0.2,0.3,0.5,0.4,0.7c0,0.1,0.1,0.1,0.2,0.1c-0.5-0.9-0.9-1.7-1.4-2.5c-0.5-0.8-1-1.5-1.4-2.2
										c-0.9-1.3-1.8-2.5-2.8-3.7c-1-1.1-2-2.2-3-3.2c-2.2-2-4.6-3.8-7.8-4.6c-0.7-0.1-2.2-1.1-3.7-2.1c-1.5-1-3-2-4.3-1.2
										c-0.9,0.6-1.7,1.3-2.4,2c-0.8,0.7-1.5,1.6-2.2,2.4c-0.6,0.9-1.3,1.7-1.8,2.6c-0.5,0.9-1,1.7-1.6,2.6l-0.2,0.3l-0.1,0.2l0,0
										c0,0.2-0.1-0.3,0.1,0.3l0,0l0,0l0,0l-0.1,0l-0.4,0.3c-0.3,0.2-0.6,0.4-0.9,0.5c-0.7,0.1-1.1,1.3-1.6,2.1
										c-0.5,0.9-1,1.8-1.6,2.6c-0.6,0.7-1.2,1.4-1.8,2c-0.7,0.9-1.1,2.5-1,4.6c0.1,2.1,0.7,4.6,1.6,7.1c2.4,1.8,4.8,3.2,6.9,4.1
										c0.6,0.3,1.1,0.6,1.6,1c0.5,0.4,1,0.9,1.3,1.3c0.7,0.9,1.2,1.6,1.2,1.6c3.6,1.4,6.7,1.6,9.4,1.3c-1.4-2.7-2.3-5.4-3.6-8.3
										c-0.7-1.4-1.4-2.9-2.3-4.5C44.3,193.8,43.1,192,41.8,189.7z"/>
									<path fill="#FFF7D4" d="M72.3,176.3c0.1-0.4,0.2-0.7,0.4-1.1c0.1-0.2,0.1-0.4,0.2-0.6c0.1-0.2,0.2-0.4,0.2-0.5
										c0.3-0.8,0.6-1.1,0.7-1.3c0.1-0.2,0.1-0.2,0.3-0.5l-0.1,0.2c0.1-0.1,0.2-0.2,0.2-0.3c-0.4,0.5-0.5,0.8-0.5,0.8
										c-0.3,0.5-0.5,0.9-0.6,1.3c-0.2,0.4-0.4,0.8-0.4,1c-0.2,0.7-0.5,1.5-0.7,2.3c0,0.2-0.1,0.4-0.1,0.6l-0.2,0.7
										c-0.1,0.2-0.1,0.5-0.1,0.8l0,0.2l0,0.1l0,0l0-0.1l0.1-0.6c0.4-3-0.3-5.9-2.6-7.4c-0.9-0.5-1.2-2.6-1.6-5
										c-0.4-2.3-0.9-4.9-3.1-6c-1.5-0.7-3.9,0-5.1-2.1c-0.7-1.5-0.8-3.2-1.1-4.7c-0.3-1.5-1-2.8-3-3.2c-2.5-0.2-5-0.4-7.6-0.5
										c-2.7,0-5.4-0.1-8.2,0.1l-2.1,0.1l-2.1,0.2l-2.1,0.2c-0.7,0.1-1.4,0.2-2.1,0.2c-1.3,0.1-2.6,0.2-3.8,0.2
										c-1.2,0-2.4-0.1-3.4-0.4c-0.4,0.5-0.8,0.9-1.2,1.4c-0.2,0.2-0.4,0.5-0.6,0.8l-0.6,0.9c-0.8,1.2-1.4,2.5-2,3.9
										c-0.6,1.6-1.2,3.2-1.6,4.8c-0.4,1.8-0.7,3.7-0.9,5.6c-0.2,1.9-0.1,4,0.1,6c0.2,2,0.6,4,1.1,6c0.1,0.5,0.3,1,0.4,1.5l0,0
										l0,0c0.1,0.4-0.1-0.8,0.2,0.8l0,0l0,0l0,0l0.1,0.1l0.1,0.1c0.2,0.2,0.4,0.2,0.6,0.5c0.4,1.2,0.9,2.4,1.4,3.5l0.4,0.8
										c0.1,0.3,0.3,0.6,0.4,0.8l0.7,1.1l-0.2-1l-0.1-0.5l-0.1-0.7c-0.2-1-0.3-1.9-0.4-2.9c-0.1-0.5-0.1-1-0.1-1.4l0-0.1
										c0,0,0,0,0,0l0,0l0-0.1l0.1-0.1l0.3-0.5l0.1-0.1l0,0l0,0l0,0c0.1,0.7-0.2-0.9-0.1-0.7v0l0,0l0-0.3l0.1-1.1
										c0-0.7,0.1-1.4,0.2-2.1c0.2-1.4,0.4-2.7,0.8-3.8c0.3-1.2,0.7-2.2,1.1-3.2c0.4-0.9,0.9-1.6,1.3-2.2c0.9-1.2,1.8-1.7,2.6-1.6
										c3.6,0.3,8.2-1.7,12.6-2.3c4.4-0.7,8.5-0.3,11.7,0.2c3.3,0.5,5.7,3,7.9,5.5c2.3,2.6,4.4,5.2,6.5,7.1
										c-0.6,0.7-0.8,1.8-0.3,3.3c0.9,1.8,1.7,2.2,2.3,2.3c0.6,0.2,1.1,0.1,1.3,0.9c0.3,1.2,0.5,2.3,0.7,3.3
										c0.1,0.5,0.1,1.1,0.2,1.6l0,0.4l0-0.2l0-0.6c-0.1-0.8-0.1-1.9-0.1-3.2c0-0.6,0-1.3,0.1-2.1c0-0.8,0.1-1.6,0.2-2.4
										c0.1-0.9,0.2-1.7,0.4-2.6C71.9,177.7,72,177,72.3,176.3z"/>
									<path fill="#FFF9E0" d="M55.1,151c2,0.3,2.6,1.6,3,3.2c0.3,1.5,0.4,3.3,1.1,4.7c1.2,2.1,3.6,1.4,5.1,2.1
										c2.2,1.1,2.7,3.7,3.1,6c0.4,2.3,0.7,4.5,1.6,5c2.3,1.5,2.9,4.4,2.6,7.4l-0.1,0.6l0,0.1l0,0l0-0.1l0-0.2
										c0-0.3,0.1-0.5,0.1-0.8l0.2-0.7c0-0.2,0.1-0.4,0.1-0.6c0.2-0.8,0.5-1.6,0.7-2.3c0.1-0.2,0.2-0.6,0.4-1
										c0.1-0.4,0.3-0.8,0.6-1.3c0,0,0.1-0.1,0.1-0.2c0,0,0,0-0.1,0.2c-0.2,0.2-0.4,0.6-0.5,1l-0.1,0.3l-0.2,0.4
										c-0.1,0.3-0.2,0.5-0.3,0.8c-0.2,0.5-0.3,1.1-0.5,1.5c-0.1,0.5-0.1,0.2,0.2-0.5c0.2-0.4,0.2-0.8,0.4-1.2
										c0.2-0.4,0.4-1,0.6-1.3c0.1-0.2,0.2-0.5,0.4-0.7c0,0,0-0.1,0.1-0.1c0.2-0.2,0.2-0.3,0.3-0.5l-0.2,0.3l-0.1,0.1l0.1-0.1
										l0.1-0.2c0.2-0.3,0.3-0.7,0.4-1c0,0,0-0.1,0-0.3c0-0.1,0.1-0.1,0.2-0.2c0.2-1,0.4-2.3,0.6-3.5c0.2-1.2,0.2-2.3-0.1-3.3
										c-0.2,0-0.4,0-0.6-0.1c0.2,0,0.4-0.1,0.5-0.2c-0.5-1.6-1.7-2.9-3-4.1c-1.3-1.3-2.6-2.5-3.7-4.3c-0.9-1.8-3.3-3.1-5.7-4.6
										c-2.4-1.4-4.8-3-5-6.1c-1,0.9-3.2-0.2-4.2,0.9c-0.2-1.2-0.6-2.3-1.1-3.4c-1.7-0.5-3.7-0.7-4.4-1.5
										c-0.2-1.2,1.2-1.1,2.4-1.3l-0.6-0.7l-0.5-0.1c-0.6,0.3-1.2,0.9-1.7,1.5c-0.3,1.1-0.7,2.2-0.9,3.2c-0.2-1.1,0.2-2.2,0.9-3.2
										c0.2-0.6,0.3-1.2,0.4-1.7c-0.9-0.1-1.9-0.2-2.9-0.2s-2.1,0.1-3.2,0.2c-0.3,0.3-0.6,0.6-0.9,1c0.2-0.3,0.5-0.6,0.7-0.9
										c-0.3,0-0.6,0.1-0.9,0.2c-1.2,1.5-3.4,4.3-5.6,7.9c-0.5-0.1-0.9-0.2-1.4-0.2c-0.5,0-1,0-1.4,0.1c-1,0.1-1.9,0.3-2.8,0.7
										c-0.9,0.4-1.9,1-2.8,1.6c-0.5,0.3-0.9,0.6-1.3,1.1c-0.5,0.4-0.9,0.9-1.3,1.4c1,0.3,2.1,0.4,3.4,0.4c1.2,0,2.5,0,3.8-0.2
										c0.7-0.1,1.4-0.2,2.1-0.2l2.1-0.2l2.1-0.2l2.1-0.1c2.8-0.2,5.5-0.2,8.2-0.1C50.1,150.6,52.6,150.7,55.1,151z"/>
								</g>
							</g>
						</g>
					</g>
				</g>
			</g>
		</g>
	</g>
</g>
</svg>
