<?xml version="1.0" encoding="utf-8"?>
<!-- Generator: Adobe Illustrator 16.0.4, SVG Export Plug-In . SVG Version: 6.00 Build 0)  -->
<!DOCTYPE svg PUBLIC "-//W3C//DTD SVG 1.1//EN" "http://www.w3.org/Graphics/SVG/1.1/DTD/svg11.dtd">
<svg version="1.1" xmlns="http://www.w3.org/2000/svg" xmlns:xlink="http://www.w3.org/1999/xlink" x="0px" y="0px" width="142.5px"
	 height="130.9px" viewBox="0 0 142.5 130.9" enable-background="new 0 0 142.5 130.9" xml:space="preserve">
<g id="Layer_1">
</g>
<g id="ricotta">
</g>
<g id="pussit">
</g>
<g id="vesi">
</g>
<g id="Layer_5">
</g>
<g id="mozzarellat">
	<g>
		<path opacity="0.15" d="M22.7,114c9.3,2.8,22.5,8.5,58.8,10.3c15.4,0.8,31-1.5,42.4-7.1c0-12.4,0-34-10.1-53.6
			c-8.5-16.5-24.9-23.1-42.9-26.8c-2-11.3,18-17.3,14.3-25.6c-3.7-8.3-15.2,6.2-20.5,3.6C60.1,12.4,51-1.4,50,9.5
			C49.2,18,62.9,24.2,61.7,36.2C47.9,44.5,28.9,62.8,22.7,114z"/>
		<path opacity="0.3" fill="#D28941" d="M113.8,63.6c-5.3-10.2-13.5-16.6-23.3-20.9c-5.9,0.9-11.9,1.1-16.9,1.1
			c-6.6,0-12.1-1.8-17.4-3.9C43.2,49.7,28.1,69.3,22.7,114c9.3,2.8,22.5,8.5,58.8,10.3c15.4,0.8,31-1.5,42.4-7.1
			C123.9,104.8,123.9,83.2,113.8,63.6z"/>
		<polygon fill="#808080" points="71.6,36.8 60.5,36.8 61.5,32.2 71.8,30.9 		"/>
		<path fill="#FFFFFF" d="M93.3,58.3c-14.8-11.8-43.8-0.4-49,12.4c-5.4,13.3-1.2,36.9,11.9,42c17.4,6.9,33.7,7.5,43.6-7.1
			C109.3,91.5,108.1,70.1,93.3,58.3z"/>
	</g>
</g>
</svg>
