<?xml version="1.0" encoding="utf-8"?>
<!-- Generator: Adobe Illustrator 16.0.4, SVG Export Plug-In . SVG Version: 6.00 Build 0)  -->
<!DOCTYPE svg PUBLIC "-//W3C//DTD SVG 1.1//EN" "http://www.w3.org/Graphics/SVG/1.1/DTD/svg11.dtd">
<svg version="1.1" xmlns="http://www.w3.org/2000/svg" xmlns:xlink="http://www.w3.org/1999/xlink" x="0px" y="0px" width="160px"
	 height="137.1px" viewBox="0 0 160 137.1" enable-background="new 0 0 160 137.1" xml:space="preserve">
<g id="Layer_1">
</g>
<g id="ricotta">
</g>
<g id="pussit">
	<path opacity="0.15" d="M1.2,128.5c9.3,2.8,30.8,8.6,67.2,8.7c40.4,0,80.3-30.5,91.7-36.1c0-12.4-7.8-51.1-27.3-61.3
		c-29.3-15.3-51.4-9.4-69.3-10.4c0.1-16.5,17-13.3,13.3-21.6c-3.7-8.3-13.2,5.2-18.5,2.6C53.6,7.9,46.7-7,41.5,4
		c-3.6,7.7,13.9,12.7,12.7,24.7C18,44-3,63.8,1.2,128.5z"/>
</g>
<g id="vesi">
	<path opacity="0.3" fill="#D28941" d="M132.7,39.7C119,32.5,106.8,30,96,29.2c-8,8.1-24.1,10.6-35.3,11.6
		c-8.9,0.9-15.9-1.7-23.2-4.1C11.8,51.7-2.3,74.5,1.2,128.5c9.3,2.8,30.8,8.6,67.2,8.7c40.4,0,80.3-30.5,91.7-36.1
		C160,88.6,152.2,49.9,132.7,39.7z"/>
	<polygon fill="#808080" points="63.9,29.3 54,28.9 53.5,23.7 63.9,24.7 	"/>
</g>
<g id="Layer_5">
</g>
<g id="mozzarellat">
	<g>
		<path fill="#FFFFFF" d="M61.8,68.8C47,57,17.9,68.4,12.7,81.2c-5.4,13.3-1.2,36.9,11.9,42c17.4,6.9,33.7,7.5,43.6-7.1
			C77.7,102,76.5,80.6,61.8,68.8z"/>
		<path fill="#FFFFFF" d="M85.1,56.9c-11.6,14.9,0.1,43.8,13,48.9c13.3,5.2,36.9,0.7,41.9-12.5c6.7-17.5,7.1-33.8-7.7-43.5
			C118,40.5,96.7,41.9,85.1,56.9z"/>
	</g>
</g>
</svg>
