<?xml version="1.0" encoding="utf-8"?>
<!-- Generator: Adobe Illustrator 16.0.4, SVG Export Plug-In . SVG Version: 6.00 Build 0)  -->
<!DOCTYPE svg PUBLIC "-//W3C//DTD SVG 1.1//EN" "http://www.w3.org/Graphics/SVG/1.1/DTD/svg11.dtd">
<svg version="1.1" xmlns="http://www.w3.org/2000/svg" xmlns:xlink="http://www.w3.org/1999/xlink" x="0px" y="0px" width="174.6px"
	 height="196.9px" viewBox="0 0 174.6 196.9" enable-background="new 0 0 174.6 196.9" xml:space="preserve">
<g id="Layer_1">
</g>
<g id="ricotta">
</g>
<g id="pussit">
</g>
<g id="vesi">
</g>
<g id="Layer_5">
</g>
<g id="mozzarellat">
	<path opacity="0.2" d="M2.6,188.3c40.2,8.8,77.5,8.8,104.2,8.7c31-0.2,53.2-5.4,64.7-11.1c0-12.4,14-90-17.3-129.3
		c-20.6-25.9-54.4-26.5-72.3-27.4c-2-11.3,17-18.3,13.3-26.6c-3.7-8.3-14.2,7.2-19.5,4.6C71,4.8,55.9-4,54.9,6.8
		c-0.8,8.5,19.2,5.7,17.7,21.7C-13.6,26.2-0.6,95.7,2.6,188.3z"/>
	<path opacity="0.3" fill="#29ABE2" d="M154.1,56.6c-11.7-14.7-27.7-21.2-42.6-24.3C96.7,37.3,81.1,43,69.4,38.3
		c-6.2-2.5-12.9-5-18.5-8.6c-62,9.7-51.1,74.7-48.2,158.6c40.2,8.8,77.5,8.8,104.2,8.7c31-0.2,53.2-5.4,64.7-11.1
		C171.4,173.5,185.4,95.8,154.1,56.6z"/>
	<polygon fill="#808080" points="82.4,29.2 71.9,28.5 72.4,24 82.4,23.5 	"/>
	<polygon fill="#808080" points="82.4,29.2 71.6,28.5 72.2,23.1 82.8,22.7 	"/>
	<g>
		<path fill="#FFFFFF" d="M33.4,182.6c17.1,8,42.7-9.9,44.7-23.6c2.1-14.1-7.6-36.1-21.5-38C38,118.4,22,121.6,16,138.2
			C10.1,154.2,16.3,174.6,33.4,182.6z"/>
		<path fill="#FFFFFF" d="M144.2,124.6c-16.6-9-43.2,7.3-46.1,20.8c-3,14,5.3,36.5,19.1,39.3c18.4,3.7,34.5,1.5,41.6-14.6
			C165.7,154.5,160.8,133.7,144.2,124.6z"/>
		<path fill="#FFFFFF" d="M116.8,50.5c-18.9,0.7-33.4,28.3-29,41.4c4.6,13.5,23.2,28.7,36.5,24c17.7-6.2,30.5-16.4,28.3-33.9
			C150.5,65.2,135.7,49.8,116.8,50.5z"/>
		<path fill="#FFFFFF" d="M19.9,94.9c9.5,16.4,40.7,16.4,50.2,6.3c9.8-10.4,14.5-33.9,4.2-43.5C60.6,45,45.6,38.4,31.1,48.5
			C17.1,58.2,10.5,78.5,19.9,94.9z"/>
	</g>
</g>
</svg>
