<?xml version="1.0" encoding="utf-8"?>
<!-- Generator: Adobe Illustrator 16.0.4, SVG Export Plug-In . SVG Version: 6.00 Build 0)  -->
<!DOCTYPE svg PUBLIC "-//W3C//DTD SVG 1.1//EN" "http://www.w3.org/Graphics/SVG/1.1/DTD/svg11.dtd">
<svg version="1.1" xmlns="http://www.w3.org/2000/svg" xmlns:xlink="http://www.w3.org/1999/xlink" x="0px" y="0px" width="142.5px"
	 height="130.9px" viewBox="0 0 142.5 130.9" enable-background="new 0 0 142.5 130.9" xml:space="preserve">
<g id="Layer_1">
</g>
<g id="ricotta">
</g>
<g id="pussit">
	<path opacity="0.2" d="M23.7,115.2c9.3,2.8,22.5,8.5,58.8,10.3c15.4,0.8,31-1.5,42.4-7.1c0-12.4,0-34-10.1-53.6
		C106.2,48.4,89.9,41.8,71.9,38c-2-11.3,18-17.3,14.3-25.6C82.5,4,71,18.6,65.7,15.9C61.1,13.6,52-0.1,51,10.7
		c-0.8,8.5,12.9,14.7,11.7,26.7C48.9,45.7,29.9,64,23.7,115.2z"/>
</g>
<g id="vesi">
	<path opacity="0.3" fill="#29ABE2" d="M114.8,64.8c-5.3-10.2-13.5-16.6-23.3-20.9C85.5,44.8,79.5,45,74.5,45
		c-6.6,0-12.1-1.8-17.4-3.9c-12.9,9.8-28.1,29.5-33.5,74.1c9.3,2.8,22.5,8.5,58.8,10.3c15.4,0.8,31-1.5,42.4-7.1
		C124.9,106,124.9,84.4,114.8,64.8z"/>
	<polygon fill="#808080" points="72.6,37.9 61.5,37.9 62.5,33.3 72.8,32 	"/>
</g>
<g id="Layer_5">
</g>
<g id="mozzarellat">
	<g>
		<path fill="#FFFFFF" d="M94.3,59.5c-14.8-11.8-43.8-0.4-49,12.4c-5.4,13.3-1.2,36.9,11.9,42c17.4,6.9,33.7,7.5,43.6-7.1
			C110.3,92.7,109.1,71.3,94.3,59.5z"/>
	</g>
</g>
</svg>
