<?xml version="1.0" encoding="utf-8"?>
<!-- Generator: Adobe Illustrator 16.0.4, SVG Export Plug-In . SVG Version: 6.00 Build 0)  -->
<!DOCTYPE svg PUBLIC "-//W3C//DTD SVG 1.1//EN" "http://www.w3.org/Graphics/SVG/1.1/DTD/svg11.dtd">
<svg version="1.1" xmlns="http://www.w3.org/2000/svg" xmlns:xlink="http://www.w3.org/1999/xlink" x="0px" y="0px" width="159.4px"
	 height="137.1px" viewBox="0 0 159.4 137.1" enable-background="new 0 0 159.4 137.1" xml:space="preserve">
<g id="Layer_1">
</g>
<g id="ricotta">
</g>
<g id="pussit">
	<path opacity="0.2" d="M0.5,128.5c9.3,2.8,30.8,8.6,67.2,8.7c40.4,0,80.3-30.5,91.7-36.1c0-12.4-7.8-51.1-27.3-61.3
		c-29.3-15.3-51.4-9.4-69.3-10.4C62.8,12.8,79.7,16,76,7.7c-3.7-8.3-13.2,5.2-18.5,2.6C52.9,7.9,46-7,40.8,4
		c-3.6,7.7,13.9,12.7,12.7,24.7C17.4,44-3.6,63.8,0.5,128.5z"/>
</g>
<g id="vesi">
	<path opacity="0.3" fill="#29ABE2" d="M132,39.7c-13.7-7.2-25.8-9.7-36.7-10.4c-8,8.1-24.1,10.6-35.3,11.6
		c-8.9,0.9-15.9-1.7-23.2-4.1C11.1,51.7-2.9,74.5,0.5,128.5c9.3,2.8,30.8,8.6,67.2,8.7c40.4,0,80.3-30.5,91.7-36.1
		C159.4,88.6,151.5,49.9,132,39.7z"/>
	<polygon fill="#808080" points="63.2,29.3 53.4,28.9 52.9,23.7 63.2,24.7 	"/>
</g>
<g id="Layer_5">
</g>
<g id="mozzarellat">
	<g>
		<path fill="#FFFFFF" d="M61.1,68.8c-14.8-11.8-43.8-0.4-49,12.4c-5.4,13.3-1.2,36.9,11.9,42c17.4,6.9,33.7,7.5,43.6-7.1
			C77.1,102,75.9,80.6,61.1,68.8z"/>
		<path fill="#FFFFFF" d="M84.4,56.9c-11.6,14.9,0.1,43.8,13,48.9c13.3,5.2,36.9,0.7,41.9-12.5c6.7-17.5,7.1-33.8-7.7-43.5
			C117.4,40.5,96,41.9,84.4,56.9z"/>
	</g>
</g>
</svg>
