<?xml version="1.0" encoding="utf-8"?>
<!-- Generator: Adobe Illustrator 16.0.4, SVG Export Plug-In . SVG Version: 6.00 Build 0)  -->
<!DOCTYPE svg PUBLIC "-//W3C//DTD SVG 1.1//EN" "http://www.w3.org/Graphics/SVG/1.1/DTD/svg11.dtd">
<svg version="1.1" xmlns="http://www.w3.org/2000/svg" xmlns:xlink="http://www.w3.org/1999/xlink" x="0px" y="0px" width="175.5px"
	 height="151.1px" viewBox="0 0 175.5 151.1" enable-background="new 0 0 175.5 151.1" xml:space="preserve">
<g id="Layer_1">
</g>
<g id="ricotta">
</g>
<g id="pussit">
</g>
<g id="vesi">
</g>
<g id="Layer_5">
</g>
<g id="mozzarellat">
	<g>
		<path opacity="0.6" fill="#2B5C00" d="M109.8,142.5c0-9,1.8-18,1.8-27c0-24.2,7.2-47.6,0.6-71.7l-5.5-1.9c-5.7,0.1-8.4-3.6-15.2-8
			c-7.8-5-20.6-8.4-29.2-11.1c-3.1-1-9.3,1.3-13-2.6c1,9.5,1.4,28.3,2.5,41.6c0.7,8.5,2.1,45.5,4.4,52.4c1.3,3.9,3.9,6.3,7.6,8.6
			c25.8,16.1,34.6,25.6,43.4,23.5C107.1,145.6,109.8,143.4,109.8,142.5z"/>
	</g>
	<g>
		<path fill="#6A8D4C" d="M133.6,31.6c-0.3,0.2-0.5,0.4-0.8,0.6c-0.1,0.1-1,0.8-1.1,0.9c-0.2,0.1-0.7,0.6-0.8,0.6
			c-0.2,0.2-0.7,0.6-0.8,0.6c-0.3,0.2-0.9,0.7-0.9,0.7c-0.2,0.2-0.8,0.6-0.9,0.6c-0.2,0.1-0.7,0.5-0.8,0.6c-0.2,0.1-0.7,0.5-0.8,0.5
			c-0.5,0.4-1.7,1.1-1.7,1.2c-0.2,0.1-0.7,0.5-0.8,0.5c-0.2,0.1-0.7,0.4-0.8,0.5c-0.5,0.3-1.6,0.9-1.6,0.9c-0.2,0.1-0.8,0.5-0.9,0.5
			c-0.2,0.1-0.7,0.4-0.8,0.4c-0.2,0.1-0.7,0.4-0.8,0.4c-0.5,0.3-1.6,0.8-1.7,0.8c-0.2,0.1-0.8,0.3-0.8,0.3c-0.2,0.1-0.7,0.3-0.8,0.3
			c-0.8,0.3-1.6,0.6-2.4,0.8l-0.9,0.2c-0.3,0.1-0.8,0.2-0.8,0.2c-0.5,0.1-1.7,0.3-1.7,0.3c-0.2,0-0.8,0.1-0.8,0.1
			c-0.2,0-0.8,0.1-0.8,0.1c-0.5,0-1.1,0.1-1.6,0.1h0c-0.1,24.2-0.5,48.5-0.5,72.7c0,9,0.6,17.8,0.5,26.7c0,0.9,0,1.7-0.1,2.4
			c4.9-1.2,9.9-6,17.9-15.2c3.6-4.1,4-5.6,4.7-40.9c0.3-15.6,2.1-38.4,3.6-53.9C133.5,34.5,133.7,33,133.6,31.6"/>
	</g>
	<g>
		<path fill="#BBBBBB" d="M76,5.1c-6.5,0-27.7,6.4-26.8,14.4c0,0.2,0,0.4,0.1,0.6c3.6,4,11.2,6.1,14.1,7.6c7.6,4,16.2,7,25.3,11.3
			c7,3.4,14.5,6.7,18.5,6.7c2.4,0,6.8-1.2,11.3-3.6c5-2.6,10.2-6.5,15.2-10.6c0-2.9-0.7-5.1-3.1-6.7c-4.5-3.1-9.9-4.9-14.6-6.6
			C104.1,13.8,89.3,6.8,76.8,5.2C76.6,5.2,76.3,5.1,76,5.1"/>
	</g>
	<path fill="#FFFFFF" d="M79.9,11.1c-3.3-0.8-6-1.2-11.4-0.4c-7.7,1.3-8.7,8.3-1,11.3c4.1,1.6,12.6,0.8,16.2-2
		C89.2,15.7,83.3,11.9,79.9,11.1z"/>
</g>
</svg>
