<?xml version="1.0" encoding="utf-8"?>
<!-- Generator: Adobe Illustrator 16.0.4, SVG Export Plug-In . SVG Version: 6.00 Build 0)  -->
<!DOCTYPE svg PUBLIC "-//W3C//DTD SVG 1.1//EN" "http://www.w3.org/Graphics/SVG/1.1/DTD/svg11.dtd">
<svg version="1.1" xmlns="http://www.w3.org/2000/svg" xmlns:xlink="http://www.w3.org/1999/xlink" x="0px" y="0px" width="129px"
	 height="129px" viewBox="0 0 129 129" enable-background="new 0 0 129 129" xml:space="preserve">
<g id="Layer_1">
</g>
<g id="paperialusta">
	<path fill="#E3C8D7" d="M103.5,28.7c-10.3,0.1-34.6,0.2-47.1-1.1c-9.2-0.9-18.4-2.2-27.7-1.7c-0.1,24.5-2.9,50.6-2.9,75.2
		c8.9-1.3,24.6,0.2,34.6-0.1c13.1-0.3,30-0.6,42.5,2C104,82.7,103.8,49.1,103.5,28.7z"/>
</g>
<g id="ricotta">
	<g>
		<path fill="#F2F2F2" d="M35.6,69.1c0,12.6,12.1,19.7,24.7,21.6c11,1.6,26.5-2.6,31.6-14.4c1.9-4.4,0.2-18.7-0.9-23.6
			c-1.2-5.4-1.4-4.5-4.8-9.2c-2.9-3.9-32.9-10.3-42.4,0.9C39.8,49,35.6,65.8,35.6,69.1z"/>
		<path fill="#FFFFFF" d="M71.4,33.5c-11.7-2.2-26.1,2.7-28.9,14c-3.9,16,7.3,25.1,17.7,26c12.9,1.1,28.7-2.2,30.1-17.3
			C91.4,45.2,83.2,35.7,71.4,33.5z"/>
	</g>
</g>
<g id="pussit">
</g>
<g id="vesi">
</g>
<g id="Layer_5">
</g>
<g id="mozzarellat">
</g>
</svg>
