<?xml version="1.0" encoding="utf-8"?>
<!-- Generator: Adobe Illustrator 16.0.4, SVG Export Plug-In . SVG Version: 6.00 Build 0)  -->
<!DOCTYPE svg PUBLIC "-//W3C//DTD SVG 1.1//EN" "http://www.w3.org/Graphics/SVG/1.1/DTD/svg11.dtd">
<svg version="1.1" xmlns="http://www.w3.org/2000/svg" xmlns:xlink="http://www.w3.org/1999/xlink" x="0px" y="0px" width="129px"
	 height="129px" viewBox="0 0 129 129" enable-background="new 0 0 129 129" xml:space="preserve">
<g id="Layer_1">
</g>
<g id="paperialusta">
	<path fill="#E3C8D7" d="M60.9,45.7c0,9.1-2.3,29.6-3.5,40.6c-0.9,8.1-2.2,16.2-1.9,24.4c23,0.3,47.5,3.1,70.5,3.3
		c-1.1-7.9,0.4-21.8,0.3-30.6c-0.2-11.6-0.3-26.5,2.3-37.6C109.6,44.8,80.1,45.7,60.9,45.7z"/>
	<path fill="#E3C8D7" d="M71.2,20.5c-9.4,0-30.6-2.2-42-3.4c-8.4-0.9-16.8-2.2-25.2-1.8C3.7,37.6,0.8,61.4,0.6,83.9
		c8.2-1.1,22.5,0.4,31.7,0.3c12-0.2,27.4-0.2,38.9,2.3C72.1,67.8,71.2,39.1,71.2,20.5z"/>
</g>
<g id="ricotta">
	<g>
		<path fill="#F2F2F2" d="M65.9,84c0,11.5,11.1,18,22.5,19.7c10,1.5,24.2-2.4,28.9-13.2c1.7-4,0.2-17.1-0.9-21.5
			c-1.1-4.9-1.3-4.1-4.4-8.4c-2.6-3.6-30-9.4-38.7,0.8C69.7,65.7,65.8,81,65.9,84z"/>
		<path fill="#FFFFFF" d="M98.6,51.5c-10.7-2-23.9,2.5-26.4,12.7C68.6,78.9,78.9,87.1,88.4,88c11.8,1,26.2-2,27.5-15.8
			C116.8,62.2,109.3,53.6,98.6,51.5z"/>
	</g>
	<g>
		<path fill="#F2F2F2" d="M9.9,54c0,11.5,11.1,18,22.5,19.7c10,1.5,24.2-2.4,28.9-13.2c1.7-4,0.2-17.1-0.9-21.5
			c-1.1-4.9-1.3-4.1-4.4-8.4c-2.6-3.6-30-9.4-38.7,0.8C13.7,35.7,9.8,51,9.9,54z"/>
		<path fill="#FFFFFF" d="M32,58.4c10.6,2.5,24-1.4,26.9-11.5c4.2-14.4-5.6-23.2-15.1-24.4c-11.7-1.6-26.3,0.8-28.2,14.6
			C14.3,46.9,21.4,55.9,32,58.4z"/>
	</g>
</g>
<g id="pussit">
</g>
<g id="vesi">
</g>
<g id="Layer_5">
</g>
<g id="mozzarellat">
</g>
</svg>
