<?xml version="1.0" encoding="utf-8"?>
<!-- Generator: Adobe Illustrator 16.0.4, SVG Export Plug-In . SVG Version: 6.00 Build 0)  -->
<!DOCTYPE svg PUBLIC "-//W3C//DTD SVG 1.1//EN" "http://www.w3.org/Graphics/SVG/1.1/DTD/svg11.dtd">
<svg version="1.1" xmlns="http://www.w3.org/2000/svg" xmlns:xlink="http://www.w3.org/1999/xlink" x="0px" y="0px" width="175.5px"
	 height="151.1px" viewBox="0 0 175.5 151.1" enable-background="new 0 0 175.5 151.1" xml:space="preserve">
<g id="Layer_1">
</g>
<g id="ricotta">
</g>
<g id="pussit">
</g>
<g id="vesi">
</g>
<g id="Layer_5">
</g>
<g id="mozzarellat">
	<g>
		<path opacity="0.2" d="M174.5,83.2c-9.9,29.2-18.4,51.1-39.2,66.8c-19.8-1.4-29.2-3-47.5-9.7c-16.8-6.1-44.1-25.1-58-36.2
			C17.1,94.1,9.6,77.1,9.7,61c0-12.2,2.2-21.6,5.5-34.1C10.9,18.4,0,22.1,0.5,14.8c0.7-9.6,8.8-1.4,12.4-2.8
			c3.2-3.7,2.2-10,10.4-9.8c8.5,0.2-5.8,13.8-0.2,19.1c29.1-7.4,52.4-7.8,79.2,5c13.5,6.4,35.4,18.1,47,28
			C159,62.6,166.3,70.1,174.5,83.2z"/>
		<polygon fill="#808080" points="24.7,21.2 15.1,28 11.9,23.2 21.9,17 		"/>
		<path opacity="0.3" fill="#29ABE2" d="M174.5,83.2c-8.1-13.1-15.5-20.6-25.2-28.9c-11.6-9.9-33.5-21.5-47-28
			c-23.4-11.2-44-12.3-68.2-7.5C28.4,24,21.2,30.6,13.8,32.2c-2.5,10-4.1,18.4-4.1,28.8c0,16.1,7.4,33.1,20.1,43.2
			c13.9,11.1,41.3,30.1,58,36.2c18.3,6.7,27.7,8.3,47.5,9.7C156.1,134.3,164.5,112.4,174.5,83.2z"/>
	</g>
	<g>
		<g>
			<path fill="#FFFFFF" d="M146.2,108.1c-8.5,6.6-19.2,13.7-34.8,17.7c0,0,0,0,0,0c0,0,9,13.3,22.3,10.9
				C158.7,132.1,146.2,108.1,146.2,108.1L146.2,108.1z"/>
		</g>
		<g>
			<path fill="#E6E6E6" d="M147.1,110.3c-0.5-1.4-0.6-1.6-0.6-1.6l-0.3-0.6c-8.5,6.6-19.2,13.7-34.8,17.7c0,0,0,0,0,0
				c0,0,2.4,3.6,6.6,6.7c1.7-3.7,4.2-5.9,15.4-9.7C142.2,119.9,146.4,113,147.1,110.3z"/>
		</g>
		<g>
			<path fill="#FFFFFF" d="M96.5,87.8L96.5,87.8c12.7-8.7,27.7-14.8,35.7-17.7c0,0-0.5-2.4-1.8-5.7l0,0l0-0.1
				c-3.4-8.3-12.1-22.3-32.3-19.6c2.2,10.6-5.1,16.8-5.1,16.8S96.4,81.1,96.5,87.8z"/>
		</g>
		<g>
			<g>
				<path fill="#FFFFFF" d="M146.5,108.7c3.7-2.8,6.2-6.7,8.3-10.6c8-15.4,5.3-30.6-12.4-33.6c-7.7-1.3-11.3-0.4-11.9-0.2
					c0,0,0,0.1,0,0.1c1.3,3.3,1.8,5.7,1.8,5.7c3.5-1.3,5.6-1.9,5.6-1.9l-5.6,1.9c-10.3,3.7-32.3,12.7-46,25.9
					c-8.4,7.8-11.4,9.5-14.3,10.5c-0.5,4.9,10.1,26.5,34.8,20.4c1.6-0.4,3.1-0.8,4.7-1.2C127,121.8,138,115.3,146.5,108.7"/>
			</g>
		</g>
		<g>
			<g>
				<path fill="#FFFFFF" d="M93,61.7c0,0-14.8-6.2-27.2,0.9c-12.5,7.1-24.8,17-20.2,26.2c2.7,5.4,13.7,17.5,26.3,17.8
					c2.9-1.1,5.9-2.7,14.3-10.5c3.1-3,6.6-5.7,10.2-8.2C96.4,81.1,93,61.7,93,61.7z"/>
			</g>
		</g>
		<g>
			<path fill="#FFFFFF" d="M65.8,62.6c0,0-4.1-9.9-4.1-16.9c0-4.7-1.6-7.9-5.1-9.3c-15.1-5.9-39.7,4.4-39.6,17.8
				c0.1,10.3,5.7,24.4,28.2,26.9l0.2-0.2C48,74.2,56.8,67.7,65.8,62.6z"/>
		</g>
		<g>
			<path fill="#FFFFFF" d="M28.3,39.3c8.4-4.5,19.8-6.2,28.2-3c0,0-5.9-14.8-16.6-11.5C30.1,27.9,27,35.8,28.3,39.3L28.3,39.3z"/>
		</g>
		<g>
			<g>
				<path fill="#FFFFFF" d="M98.1,44.8c0,0-11.1-29.1-44.9-14.2c2.2,2.9,3.3,5.7,3.3,5.7c3.5,1.4,5.1,4.6,5.1,9.3
					c0,7.1,4.1,16.9,4.1,16.9C78.3,55.5,93,61.7,93,61.7S100.4,55.4,98.1,44.8z"/>
			</g>
		</g>
		<g>
			<path fill="#E6E6E6" d="M65.8,62.6c0,0-0.8-2-1.7-4.8c-25,20.8-41.3,9.8-46.4-7.6c-0.5,1.3-0.7,2.6-0.7,4
				c0.1,10.3,5.7,24.4,28.2,26.9l0.2-0.2C48,74.2,56.8,67.7,65.8,62.6z"/>
		</g>
		<g>
			<path fill="#E6E6E6" d="M28.1,36.7c-0.1,1,0,1.9,0.2,2.7c8.4-4.5,19.8-6.2,28.2-3c0,0-0.5-1.1-1.3-2.7
				C44.4,29.5,32.4,34.6,28.1,36.7z"/>
		</g>
		<g>
			<path fill="#E6E6E6" d="M94.2,56.6C82.6,59.3,69.4,55,61.7,46.2c0,1.3,0.2,2.6,0.4,3.9l1.3,5.4l2.4,7.1
				C78.3,55.5,93,61.7,93,61.7s2.3-2,3.9-5.6C96.1,56.2,95.2,56.4,94.2,56.6z"/>
		</g>
		<g>
			<path fill="#E6E6E6" d="M96.4,85.4c-7.8,3.2-15.6,9.9-27.6,12.1c-13.2,2.4-20.5-7.4-24-14.3c-0.3,1.9-0.1,3.8,0.8,5.7
				c2.7,5.4,13.7,17.5,26.3,17.8c2.9-1.1,5.9-2.7,14.3-10.5c3.1-3,6.6-5.7,10.2-8.2C96.5,87.1,96.4,86.3,96.4,85.4z"/>
		</g>
		<g>
			<path fill="#E6E6E6" d="M130.4,64.5c1.3,3.3,1.8,5.7,1.8,5.7c0.1-0.1,0.3-0.1,0.5-0.2c3.2-1.2,5.2-1.8,5.2-1.8
				C134.3,65.2,130.4,64.4,130.4,64.5L130.4,64.5C130.4,64.5,130.4,64.5,130.4,64.5z"/>
		</g>
		<g>
			<path fill="#E6E6E6" d="M101.9,75.3c-2.4-0.9-5.4-4.3-7.5-5.5c1,6.1,2.1,14.1,2.2,18l0,0c9-6.2,19.1-11,27.1-14.3
				C115.3,73.5,109.7,78.1,101.9,75.3z"/>
		</g>
		<g>
			<path fill="#E6E6E6" d="M139.7,113.6c-0.7,0.3-1.5,0.5-2.3,0.9c-32.7,12.8-55.5,4.6-64.8-4.6c2.5,7.6,13.3,22.4,34.2,17.2
				c1.6-0.4,3.1-0.8,4.7-1.2C123.1,122.8,132.2,118.4,139.7,113.6z"/>
		</g>
		<g>
			<g>
				<path fill="#CCCCCC" d="M126,137.1L126,137.1c-9.2-2.2-14.9-10.6-15.1-10.9l0-0.1l-0.4-0.7l0.8-0.2c13.2-3.4,24.3-8.8,34.9-17
					l0.6-0.5l0.3,0.7c0.2,0.4,5.6,11,1.5,19.5c-2.4,4.8-7.3,8-14.7,9.4C131.2,137.8,128.6,137.7,126,137.1z M112.4,126.2
					c1.6,2,6.7,8,13.9,9.7c0,0,0,0,0,0c2.4,0.6,4.9,0.6,7.3,0.2c7-1.3,11.7-4.2,13.9-8.7c2-4.1,1.5-8.9,0.7-12.2
					c-0.6-2.5-1.4-4.6-1.9-5.6C136,117.5,125.1,122.8,112.4,126.2z"/>
			</g>
			<g>
				<path fill="#CCCCCC" d="M95.9,89l0-1.1c-0.1-6.6-3.5-25.9-3.5-26.1l-0.1-0.3l0.3-0.2c0.1-0.1,7-6.2,4.9-16.2l-0.1-0.6l0.7-0.1
					c4.3-0.6,8.4-0.4,12.2,0.5c12.3,3,18.3,13.5,20.7,19.5l0,0.1c1.3,3.2,1.8,5.5,1.9,5.8l0.1,0.5l-0.5,0.2
					c-7.8,2.8-22.9,8.9-35.6,17.6L95.9,89z M93.7,61.9c0.4,2.5,3,17.8,3.4,24.8c12.3-8.3,26.6-14.1,34.4-16.9
					c-0.2-0.9-0.7-2.7-1.7-5l0-0.1c-2.4-5.8-8.1-15.9-19.9-18.8c-3.4-0.8-7.1-1-11.1-0.5C100.5,54.6,95,60.6,93.7,61.9z"/>
			</g>
			<g>
				<path fill="#CCCCCC" d="M91.6,127.9C91.6,127.9,91.6,127.9,91.6,127.9c-14.3-3.4-20.6-17.3-20.2-21.4l0-0.4l0.4-0.1
					c2.7-1,5.5-2.4,14.1-10.4c5.8-5.5,19.3-16.2,45.7-25.8c-0.2-0.9-0.7-2.7-1.7-5l0-0.1l0-0.1c0-0.4,0.2-0.6,0.5-0.7
					c0.7-0.2,4.4-1.1,12.2,0.2c7.6,1.3,13,4.9,15.5,10.5c2.9,6.4,2,15-2.7,24c-7,13.4-22.3,22.7-48.5,29.2
					C101.4,129,96.3,129.1,91.6,127.9z M72.5,107c0.1,4.2,6.4,16.6,19.3,19.7c4.5,1.1,9.5,1,14.7-0.3c25.7-6.4,40.9-15.4,47.7-28.5
					c4.4-8.6,5.4-16.9,2.7-22.9c-2.4-5.2-7.4-8.6-14.6-9.8c-6.1-1-9.7-0.6-11-0.3c0.8,2,1.2,3.6,1.4,4.5c3.1-1.1,5-1.7,5-1.7
					l0.4,1.2l-5.8,2c-11.4,4.1-32.2,12.9-45.5,25.7C78.3,104.3,75.3,106,72.5,107z"/>
			</g>
			<g>
				<g>
					<path fill="#CCCCCC" d="M67.2,106.6C67.2,106.6,67.2,106.6,67.2,106.6C56.4,104,47.4,93.9,45,89.1c-2.7-5.4-1.4-14.6,20.5-27
						c8.5-4.9,18.2-3.6,23.2-2.4c2.8,0.7,4.5,1.4,4.6,1.4l0.3,0.1l0.1,0.3c0.1,0.8,3.4,19.6,3.5,26.2l0,0.3l-0.3,0.2
						c-3.9,2.7-7.3,5.4-10.2,8.2c-8.8,8.2-11.7,9.7-14.6,10.7l-0.1,0l-0.1,0C70.4,107.2,68.8,106.9,67.2,106.6z M88.4,60.9
						c-4.8-1.2-14.1-2.4-22.3,2.3c-11.6,6.6-24.5,16.4-20,25.4c2.3,4.6,11,14.3,21.3,16.9h0c1.5,0.4,2.9,0.6,4.3,0.6
						c2.7-1,5.5-2.4,14-10.4c2.8-2.7,6.2-5.5,10-8.1c-0.2-6.4-3-22.8-3.4-25.4C91.9,61.9,90.4,61.4,88.4,60.9z"/>
				</g>
			</g>
			<g>
				<path fill="#CCCCCC" d="M38.9,80.6C38.9,80.6,38.9,80.6,38.9,80.6c-20.2-4.9-22.5-20.1-22.5-26.4c0-4.4,2.4-8.6,7-12.3
					c8.1-6.4,20.9-9.4,30.5-7c1,0.2,2,0.6,3,0.9c3.7,1.4,5.5,4.7,5.5,9.8c0,6.9,4,16.6,4.1,16.7l0.2,0.5l-0.5,0.3
					c-11.1,6.3-18,12.5-20.2,18l-0.1,0.1l-0.5,0.5l-0.3,0C42.9,81.4,40.8,81.1,38.9,80.6z M53.5,36.1c-9.3-2.2-21.6,0.6-29.4,6.8
					c-3,2.4-6.5,6.3-6.5,11.3c0,6,2.2,20.6,21.6,25.2c0,0,0,0,0,0c1.8,0.4,3.7,0.8,5.7,1C47.2,74.8,54,68.7,65,62.3
					c-0.8-2.1-4-10.4-4-16.7c0-4.6-1.5-7.5-4.7-8.7C55.4,36.6,54.5,36.3,53.5,36.1z"/>
			</g>
			<g>
				<path fill="#CCCCCC" d="M28,40.2l-0.2-0.7c-0.6-1.8-0.3-4.2,0.9-6.6c1.2-2.3,4.1-6.6,11.1-8.7c1.9-0.6,3.8-0.6,5.6-0.2
					c3.1,0.8,6.2,3.1,8.8,6.8c1.9,2.7,2.9,5.2,3,5.3l0.5,1.3l-1.3-0.5c-0.9-0.3-1.9-0.6-2.8-0.9c-7.5-1.8-17-0.3-24.8,3.8L28,40.2z
					 M45.1,25.3c-1.6-0.4-3.3-0.3-5,0.2c-6.5,2-9.3,5.9-10.4,8c-0.9,1.7-1.2,3.6-1,4.9c8.5-4.3,18.8-5.6,26.6-3.1
					C54,32.6,50.5,26.6,45.1,25.3z"/>
			</g>
			<g>
				<g>
					<path fill="#CCCCCC" d="M65.5,63.5l-0.3-0.6C65,62.4,61,52.8,61,45.6c0-4.6-1.5-7.5-4.7-8.7l-0.2-0.1L56,36.6
						c0,0-1.1-2.8-3.2-5.6l-0.5-0.6l0.7-0.3c9.3-4.1,17.8-5.3,25.2-3.5c14.8,3.6,20.4,17.9,20.5,18l0,0.1
						c2.3,10.8-5.2,17.4-5.3,17.4l-0.3,0.2l-0.4-0.1c0,0-1.7-0.7-4.4-1.4c-4.8-1.2-14.1-2.4-22.3,2.3L65.5,63.5z M57,35.9
						c3.5,1.5,5.3,4.7,5.3,9.7c0,5.9,2.9,13.8,3.8,16.1c8.4-4.5,17.7-3.2,22.6-2c2.1,0.5,3.6,1,4.2,1.3c1.3-1.2,6.5-7.1,4.7-15.9
						c-0.3-0.8-5.8-13.9-19.6-17.2c-7-1.7-15-0.6-23.8,3.1C55.8,33.2,56.7,35.2,57,35.9z"/>
				</g>
			</g>
		</g>
	</g>
</g>
</svg>
