<?xml version="1.0" encoding="utf-8"?>
<!-- Generator: Adobe Illustrator 16.0.4, SVG Export Plug-In . SVG Version: 6.00 Build 0)  -->
<!DOCTYPE svg PUBLIC "-//W3C//DTD SVG 1.1//EN" "http://www.w3.org/Graphics/SVG/1.1/DTD/svg11.dtd">
<svg version="1.1" xmlns="http://www.w3.org/2000/svg" xmlns:xlink="http://www.w3.org/1999/xlink" x="0px" y="0px" width="175.5px"
	 height="151.1px" viewBox="0 0 175.5 151.1" enable-background="new 0 0 175.5 151.1" xml:space="preserve">
<g id="Layer_1">
</g>
<g id="ricotta">
</g>
<g id="pussit">
</g>
<g id="vesi">
</g>
<g id="Layer_5">
</g>
<g id="mozzarellat">
	<g>
		<path opacity="0.2" d="M166.9,70.2c-4,26.9-13.6,49.2-28.7,63.9c-17.3-1.5-42.8-7.4-52.2-11.3c-31.1-12.9-55.1-30.6-59.6-48.2
			c-5.1-20.1,2.8-21.5,2-31.3c-5.2-8.3-11.6-1-16.5-6c-3.4-3.5,5.8-6.2,8.5-7.6c2.2-3.3,2-9.9,8.5-10.5c6.9-0.7,0.3,15.3,5.4,18.9
			c22.4-8.3,36.5-12.5,66.3-6.1C135.6,39.5,155.3,62.1,166.9,70.2z"/>
		<polygon fill="#808080" points="35.4,37.7 28.4,44.1 26.4,40.8 32.3,34.1 		"/>
		<path opacity="0.3" fill="#29ABE2" d="M138.2,134.1c15.1-14.6,24.7-37,28.7-63.9c-11.6-8.1-31.3-30.7-66.4-38.3
			c-23.4-5-37.1-3.5-52.6,1.3c-5.8,5.6-13.5,12-19.8,14.7c-1.3,6.3-5.9,10.2-1.7,26.6c4.5,17.6,28.5,35.3,59.6,48.2
			C95.4,126.7,120.9,132.6,138.2,134.1z"/>
	</g>
	<g>
		<g>
			<path fill="#FFFFFF" d="M139.8,92.2c-5.6,6-12.7,12.7-23.9,17.6c0,0,0,0,0,0s8.4,8.9,18.1,5.4C152.2,108.6,139.8,92.2,139.8,92.2
				L139.8,92.2z"/>
		</g>
		<g>
			<path fill="#E6E6E6" d="M140.8,93.8c-0.5-1-0.6-1.1-0.6-1.1l-0.3-0.4c-5.6,6-12.7,12.7-23.9,17.6c0,0,0,0,0,0s2.3,2.4,5.8,4.2
				c0.8-3,2.4-4.9,10.4-9.2C138.3,101.5,140.6,95.8,140.8,93.8z"/>
		</g>
		<g>
			<path fill="#FFFFFF" d="M100,83.1L100,83.1c8.5-8.1,19-14.6,24.6-17.7c0,0-0.7-1.7-2.1-4l0,0l0,0c-3.6-5.8-11.9-15.2-26.7-10.7
				c3,7.6-1.7,13.3-1.7,13.3S99.1,78.1,100,83.1z"/>
		</g>
		<g>
			<g>
				<path fill="#FFFFFF" d="M140.1,92.6c2.4-2.6,3.9-5.8,4.9-9c4.1-12.6,0.2-23.6-13.5-23.7c-5.9,0-8.6,1.1-9,1.3c0,0,0,0.1,0,0.1
					c1.4,2.3,2.1,4,2.1,4c2.5-1.4,4-2.1,4-2.1l-4,2.1C117.4,69.5,102,79,93.3,90.6c-5.3,6.9-7.4,8.5-9.4,9.7
					c0.3,3.8,10.9,18.7,28.6,11c1.1-0.5,2.3-1,3.4-1.5C127.1,104.9,134.5,98.6,140.1,92.6"/>
			</g>
		</g>
		<g>
			<g>
				<path fill="#FFFFFF" d="M94.1,63.9c0,0-11.9-2.8-20.3,4.1c-8.5,6.9-16.5,15.8-11.9,22.2c2.7,3.7,12.5,11.4,22,10.1
					c2.1-1.2,4.1-2.8,9.4-9.7c1.9-2.6,4.2-5.1,6.7-7.5C99.1,78.1,94.1,63.9,94.1,63.9z"/>
			</g>
		</g>
		<g>
			<path fill="#FFFFFF" d="M73.8,68c0,0-4.3-6.9-5.2-12.2c-0.6-3.5-2.2-5.7-5-6.3C51.5,47,34.3,57.7,36.1,67.8
				c1.3,7.7,7.3,17.6,24.5,16.7l0.1-0.2C61.9,79,67.7,73,73.8,68z"/>
		</g>
		<g>
			<path fill="#FFFFFF" d="M42.8,55.2c5.7-4.4,14.1-7.1,20.8-5.7c0,0-6.3-10.3-13.9-6.6C42.7,46.4,41.4,52.7,42.8,55.2L42.8,55.2z"
				/>
		</g>
		<g>
			<g>
				<path fill="#FFFFFF" d="M95.9,50.7c0,0-11.9-20.5-35.5-5c2,1.9,3.2,3.9,3.2,3.9c2.8,0.6,4.4,2.8,5,6.3
					c0.9,5.3,5.2,12.2,5.2,12.2c8.5-6.9,20.3-4.1,20.3-4.1S98.9,58.3,95.9,50.7z"/>
			</g>
		</g>
		<g>
			<path fill="#E6E6E6" d="M73.8,68c0,0-0.9-1.4-1.9-3.4c-16.2,18.7-29.8,12.5-35.8,0.1c-0.2,1-0.2,2,0,3.1
				c1.3,7.7,7.3,17.6,24.5,16.7l0.1-0.2C61.9,79,67.7,73,73.8,68z"/>
		</g>
		<g>
			<path fill="#E6E6E6" d="M42.3,53.3c0,0.8,0.2,1.4,0.5,2c5.7-4.4,14.1-7.1,20.8-5.7c0,0-0.5-0.8-1.3-1.9
				C53.6,45.8,45.2,51.1,42.3,53.3z"/>
		</g>
		<g>
			<path fill="#E6E6E6" d="M94.4,60c-8.4,3.4-18.9,1.8-25.7-3.8c0.2,0.9,0.5,1.9,0.8,2.9l1.6,3.9l2.7,5c8.5-6.9,20.3-4.1,20.3-4.1
				s1.5-1.8,2.3-4.7C95.8,59.5,95.1,59.7,94.4,60z"/>
		</g>
		<g>
			<path fill="#E6E6E6" d="M99.6,81.3c-5.5,3.4-10.5,9.4-19.3,12.5c-9.6,3.4-16.3-3-19.8-7.8c0,1.5,0.4,2.9,1.3,4.2
				c2.7,3.7,12.5,11.4,22,10.1c2.1-1.2,4.1-2.8,9.4-9.7c1.9-2.6,4.2-5.1,6.7-7.5C99.9,82.6,99.8,82,99.6,81.3z"/>
		</g>
		<g>
			<path fill="#E6E6E6" d="M122.5,61.4c1.4,2.3,2.1,4,2.1,4c0.1-0.1,0.2-0.1,0.3-0.2c2.3-1.3,3.7-2,3.7-2
				C125.5,61.5,122.5,61.3,122.5,61.4L122.5,61.4C122.5,61.4,122.5,61.4,122.5,61.4z"/>
		</g>
		<g>
			<path fill="#E6E6E6" d="M102.5,73.1c-1.9-0.3-4.6-2.5-6.4-3.2c1.5,4.5,3.3,10.4,3.9,13.2l0,0c6-5.8,13-10.7,18.6-14.1
				C112.3,70,108.7,74.2,102.5,73.1z"/>
		</g>
		<g>
			<path fill="#E6E6E6" d="M135.6,97.1c-0.5,0.3-1.1,0.6-1.7,0.9c-23,13.7-41.1,10.3-49.3,4.6c2.8,5.4,12.8,15.1,27.8,8.6
				c1.1-0.5,2.3-1,3.4-1.5C124.3,106.1,130.6,101.6,135.6,97.1z"/>
		</g>
		<g>
			<g>
				<path fill="#CCCCCC" d="M128.3,116.5C128.3,116.5,128.3,116.5,128.3,116.5c-7.2-0.5-12.5-6.1-12.7-6.3l0,0l-0.4-0.5l0.6-0.3
					c9.5-4.2,17.2-9.6,24.1-17.1l0.4-0.4l0.3,0.4c0.2,0.3,5.6,7.5,3.6,14.5c-1.2,3.9-4.5,6.9-9.9,8.9
					C132.3,116.3,130.3,116.6,128.3,116.5z M116.7,110c1.4,1.3,6,5.1,11.6,5.5l0,0c1.9,0.1,3.7-0.1,5.5-0.8c5.1-1.8,8.2-4.6,9.3-8.2
					c1-3.4,0-6.9-1-9.2c-0.8-1.8-1.7-3.2-2.1-3.9C133.3,100.6,125.9,105.9,116.7,110z"/>
			</g>
			<g>
				<path fill="#CCCCCC" d="M99.7,84.1l-0.2-0.9c-0.9-4.9-5.8-19-5.9-19.1l-0.1-0.3l0.2-0.2c0-0.1,4.5-5.5,1.7-12.8l-0.2-0.5
					l0.5-0.1c3.2-1,6.3-1.4,9.2-1.2c9.6,0.7,15.4,7.8,18,12l0,0c1.4,2.2,2,3.9,2.1,4.1l0.1,0.4l-0.4,0.2
					c-5.5,3.1-16.1,9.5-24.5,17.7L99.7,84.1z M94.6,64c0.6,1.8,4.5,13,5.6,18.2c8.2-7.8,18.2-13.9,23.7-17c-0.3-0.6-0.9-2-1.9-3.6
					l0,0c-2.5-4-8-10.9-17.3-11.6c-2.6-0.2-5.5,0.1-8.4,1C98.9,57.7,95.5,62.9,94.6,64z"/>
			</g>
			<g>
				<path fill="#CCCCCC" d="M101.3,113.9C101.3,113.9,101.3,113.9,101.3,113.9c-11.2-0.8-17.6-10.4-17.9-13.5l0-0.3l0.3-0.1
					c1.9-1.1,3.8-2.5,9.3-9.6c3.6-4.9,12.5-14.6,31.1-25.1c-0.3-0.6-0.9-2-1.9-3.6l0-0.1l0-0.1c-0.1-0.3,0.1-0.5,0.3-0.6
					c0.5-0.2,3.2-1.4,9.2-1.4c5.9,0,10.4,2.1,13,5.9c3,4.5,3.4,11,1,18.4c-3.5,11-14,19.8-32.8,27.9
					C108.8,113.4,105,114.1,101.3,113.9z M84.4,100.5c0.6,3.1,6.8,11.7,17,12.4c3.5,0.3,7.2-0.4,11-2.1c18.5-8,28.8-16.7,32.2-27.4
					c2.3-7,1.9-13.4-0.9-17.5c-2.4-3.6-6.7-5.5-12.2-5.5c-4.7,0-7.3,0.7-8.3,1.1c0.8,1.4,1.4,2.6,1.6,3.2c2.2-1.2,3.5-1.9,3.6-1.9
					l0.4,0.8l-4.1,2.2c-8,4.5-22.6,13.7-31,25C88.4,97.8,86.3,99.4,84.4,100.5z"/>
			</g>
			<g>
				<g>
					<path fill="#CCCCCC" d="M80.3,100.9L80.3,100.9c-8.4-0.6-16.4-7.1-18.8-10.4c-2.7-3.8-2.8-10.8,12-22.8
						c5.8-4.7,13.2-5,17.1-4.7c2.2,0.2,3.6,0.5,3.6,0.5l0.3,0.1l0.1,0.2c0.2,0.6,5,14.3,5.9,19.3l0,0.2l-0.2,0.2
						c-2.6,2.5-4.8,5-6.6,7.4c-5.6,7.3-7.6,8.7-9.6,9.8l-0.1,0l-0.1,0C82.8,100.9,81.6,101,80.3,100.9z M90.5,63.9
						c-3.8-0.3-10.9-0.1-16.4,4.5c-7.9,6.4-16.3,15.3-11.8,21.5c2.3,3.2,10,9.4,18.1,10l0,0c1.1,0.1,2.3,0,3.3-0.1
						c1.9-1.1,3.8-2.5,9.2-9.5c1.8-2.4,4-4.9,6.5-7.3c-1-4.7-5.1-16.8-5.7-18.6C93.3,64.2,92.1,64,90.5,63.9z"/>
				</g>
			</g>
			<g>
				<path fill="#CCCCCC" d="M55.8,84.9C55.8,84.9,55.8,84.9,55.8,84.9c-15.8-1.1-19.4-12.3-20.2-17c-0.6-3.3,0.7-6.8,3.7-10.1
					c5.3-5.8,14.5-9.6,22-9.1c0.8,0.1,1.6,0.2,2.4,0.3c2.9,0.6,4.7,2.9,5.4,6.7c0.9,5.2,5.1,12,5.1,12l0.2,0.4l-0.3,0.3
					c-7.5,6.1-12,11.7-12.9,16l0,0.1l-0.3,0.4l-0.2,0C59,85,57.3,85,55.8,84.9z M61.2,49.6C54,49.1,45.1,52.8,40,58.4
					c-2,2.2-4.1,5.5-3.5,9.3c0.8,4.5,4.2,15.2,19.4,16.3c0,0,0,0,0,0c1.4,0.1,2.9,0.1,4.4,0c1-4.5,5.4-9.9,12.9-16.1
					c-0.9-1.5-4.3-7.3-5.1-12c-0.6-3.5-2.1-5.4-4.6-5.9C62.8,49.8,62,49.7,61.2,49.6z"/>
			</g>
			<g>
				<path fill="#CCCCCC" d="M42.6,55.9l-0.3-0.5c-0.7-1.2-0.8-3.1-0.2-5.1c0.6-1.9,2.3-5.4,7.3-7.9c1.4-0.7,2.8-1,4.2-0.9
					c2.5,0.2,5,1.6,7.4,4c1.8,1.8,2.9,3.5,2.9,3.6l0.6,0.9L63.5,50c-0.7-0.1-1.5-0.3-2.2-0.3c-5.9-0.4-12.8,1.9-18.2,6L42.6,55.9z
					 M53.6,42.6c-1.3-0.1-2.5,0.2-3.7,0.8c-4.7,2.3-6.2,5.6-6.8,7.3c-0.4,1.4-0.5,2.8-0.1,3.8c5.8-4.3,13.4-6.5,19.6-5.7
					C61.2,47,57.8,42.9,53.6,42.6z"/>
			</g>
			<g>
				<g>
					<path fill="#CCCCCC" d="M73.7,68.7l-0.3-0.5c-0.2-0.3-4.4-7-5.3-12.4c-0.6-3.5-2.1-5.4-4.6-5.9l-0.2,0l-0.1-0.2
						c0,0-1.2-1.9-3.1-3.8l-0.4-0.4l0.5-0.3c6.5-4.2,12.7-6.2,18.5-5.8c11.6,0.8,17.5,10.9,17.6,11l0,0.1c3.1,7.8-1.8,13.7-1.8,13.8
						l-0.2,0.2L94,64.4c0,0-1.4-0.3-3.5-0.5c-3.8-0.3-10.9-0.1-16.4,4.5L73.7,68.7z M63.9,49.1c2.8,0.7,4.5,2.9,5.2,6.7
						c0.7,4.4,3.9,10,4.9,11.6c5.7-4.4,12.9-4.6,16.7-4.3c1.6,0.1,2.8,0.3,3.3,0.4c0.8-1.1,4-6.1,1.5-12.5
						c-0.4-0.6-6.1-9.7-16.8-10.5c-5.5-0.4-11.3,1.4-17.4,5.3C62.6,47.2,63.6,48.6,63.9,49.1z"/>
				</g>
			</g>
		</g>
	</g>
</g>
</svg>
