<?xml version="1.0" encoding="utf-8"?>
<!-- Generator: Adobe Illustrator 16.0.4, SVG Export Plug-In . SVG Version: 6.00 Build 0)  -->
<!DOCTYPE svg PUBLIC "-//W3C//DTD SVG 1.1//EN" "http://www.w3.org/Graphics/SVG/1.1/DTD/svg11.dtd">
<svg version="1.1" xmlns="http://www.w3.org/2000/svg" xmlns:xlink="http://www.w3.org/1999/xlink" x="0px" y="0px" width="131px"
	 height="131px" viewBox="0 0 131 131" enable-background="new 0 0 131 131" xml:space="preserve">
<g id="Layer_1">
</g>
<g id="ricotta">
</g>
<g id="pussit">
</g>
<g id="vesi">
</g>
<g id="Layer_5">
</g>
<g id="mozzarellat">
	<g>
		<polygon opacity="0.4" fill="#29ABE2" points="28,9 28,22 32,22 34.8,66 95.8,66 98.1,22 103,22 103,9 		"/>
		<path opacity="0.9" fill="#FFFFFF" d="M96.1,28.1c0.1,0-2,37.9-2,37.9H36.6l-2.5-35c11.3-6.5,20.1,1.7,24.3-4.1
			c1.5-2.1,2.1-3.9,7.9-4C76,22.8,84.2,27.5,96.1,28.1z"/>
	</g>
	<g>
		<polygon opacity="0.4" fill="#29ABE2" points="103,66 103,79 98.6,79 95.6,125 34.9,125 32.5,79 28,79 28,66 		"/>
		<path opacity="0.9" fill="#FFFFFF" d="M34.5,85.1c-0.1,0,2,37.9,2,37.9H94l2.5-34.9c-11.3-6.5-20.1,1.7-24.3-4.1
			c-1.5-2.1-2.6-6.3-7.9-4C51.1,85.8,46.3,84.6,34.5,85.1z"/>
	</g>
</g>
</svg>
