<?xml version="1.0" encoding="utf-8"?>
<!-- Generator: Adobe Illustrator 16.0.4, SVG Export Plug-In . SVG Version: 6.00 Build 0)  -->
<!DOCTYPE svg PUBLIC "-//W3C//DTD SVG 1.1//EN" "http://www.w3.org/Graphics/SVG/1.1/DTD/svg11.dtd">
<svg version="1.1" id="Layer_1" xmlns="http://www.w3.org/2000/svg" xmlns:xlink="http://www.w3.org/1999/xlink" x="0px" y="0px"
	 width="338.5px" height="111px" viewBox="0 0 338.5 111" enable-background="new 0 0 338.5 111" xml:space="preserve">
<g>
	<path fill="#FFFFFF" d="M337,102c0,4.4-3.6,8-8,8H9c-4.4,0-8-3.6-8-8V9c0-4.4,3.6-8,8-8h320c4.4,0,8,3.6,8,8V102z"/>
	<g>
		<g>
			<path d="M52.4,20.7h10.1v68.5h-7.2V61.7L56,36.1l-9.3,53h-7.3l-9.7-53l0.7,25.6v27.5h-7.1V20.7h10L43.1,77L52.4,20.7z"/>
			<path d="M81,20.7h9.7l11.3,68.5h-7.6l-1.9-13.1H80.1l-1.8,13.1h-7.7L81,20.7z M81,69.6h10.5l-5.4-36.2H86L81,69.6z"/>
			<path d="M130.5,20.7h8.1l-12.8,33.8l13.7,34.7H131l-12.7-32.8v32.8h-8.1V20.7h8.1v32.7L130.5,20.7z"/>
			<path d="M163.7,20.7h8v50.9c0,6.4-1,11.1-3,14c-2,2.9-5.5,4.4-10.4,4.4s-8.5-1.5-10.5-4.4c-2-2.9-3.1-7.6-3.1-14V20.7h8.1v50.7
				c0,4.6,0.2,7.3,0.6,8.2c0.4,0.9,0.8,1.6,1.2,2.1c0.7,1,2,1.5,3.8,1.5c1.8,0,3.1-0.5,4-1.6c0.9-1.1,1.3-2.7,1.4-4.9
				c0.1-2.2,0.1-3.9,0.1-5.3V20.7z"/>
			<path d="M182.5,20.7h8.1v61.8h12.6v6.7h-20.7V20.7z"/>
			<path d="M210.8,20.7h8.1v68.5h-8.1V20.7z"/>
			<path d="M238.1,20.7h9.7l11.3,68.5h-7.6l-1.9-13.1h-12.4l-1.8,13.1h-7.7L238.1,20.7z M238,69.6h10.5l-5.4-36.2H243L238,69.6z"/>
		</g>
		<path fill="#C1272D" d="M310.2,54.2c0,8.8-7.1,16-16,16c-8.8,0-16-7.1-16-16c0-8.8,7.1-16,16-16C303.1,38.2,310.2,45.4,310.2,54.2
			z"/>
	</g>
</g>
</svg>
